<?xml version="1.0" encoding="utf-8"?>
<svg viewBox="51.5915 117.0971 6.8125 21.4258" xmlns="http://www.w3.org/2000/svg">
  <defs>
    <clipPath id="5934a471ef">
      <path d="M 51.402344 116.71875 L 58.214844 116.71875 L 58.214844 138.144531 L 51.402344 138.144531 Z M 51.402344 116.71875 " clip-rule="nonzero"/>
    </clipPath>
    <clipPath id="c0135b60d3">
      <path d="M 54.808594 116.71875 C 55.710938 116.71875 56.578125 117.078125 57.21875 117.71875 C 57.855469 118.355469 58.214844 119.222656 58.214844 120.128906 L 58.214844 134.730469 C 58.214844 135.632812 57.855469 136.5 57.21875 137.140625 C 56.578125 137.777344 55.710938 138.136719 54.808594 138.136719 C 53.90625 138.136719 53.039062 137.777344 52.398438 137.140625 C 51.761719 136.5 51.402344 135.632812 51.402344 134.730469 L 51.402344 120.128906 C 51.402344 119.222656 51.761719 118.355469 52.398438 117.71875 C 53.039062 117.078125 53.90625 116.71875 54.808594 116.71875 Z M 54.808594 116.71875 " clip-rule="nonzero"/>
    </clipPath>
  </defs>
  <g clip-path="url(#5934a471ef)" transform="matrix(1, 0, 0, 1, 0.18915100395679474, 0.3783019781112671)">
    <g clip-path="url(#c0135b60d3)">
      <path fill="#ffde59" d="M 51.402344 116.71875 L 58.214844 116.71875 L 58.214844 138.144531 L 51.402344 138.144531 Z M 51.402344 116.71875 " fill-opacity="1" fill-rule="nonzero"/>
    </g>
  </g>
  <g fill="#000000" fill-opacity="1">
    <g transform="translate(56.068037, 133.446457)">
      <g>
        <path d="M 0.0859375 -1.828125 C 0.046875 -1.949219 -0.0195312 -1.972656 -0.117188 -1.898438 C -0.253906 -1.796875 -0.554688 -1.734375 -1.0625 -1.71875 C -1.511719 -1.699219 -2.246094 -1.75 -2.726562 -1.816406 C -2.867188 -1.835938 -2.984375 -1.867188 -3.121094 -1.851562 C -3.183594 -1.839844 -3.253906 -1.71875 -3.253906 -1.613281 L -3.253906 -1.617188 C -3.261719 -1.457031 -3.222656 -1.386719 -3.0625 -1.289062 C -2.535156 -0.980469 -1.878906 -0.660156 -1.332031 -0.417969 C -1.320312 -0.414062 -1.3125 -0.414062 -1.304688 -0.410156 L -1.304688 -0.40625 C -1.3125 -0.296875 -1.304688 -0.1875 -1.285156 -0.0859375 L -1.285156 -0.078125 C -1.277344 -0.0585938 -1.265625 0.0234375 -1.222656 0.0390625 C -1.175781 0.0585938 -1.15625 0.0390625 -1.113281 -0.0351562 L -1.113281 -0.0390625 C -1.078125 -0.101562 -1.0625 -0.199219 -1.070312 -0.28125 L -1.070312 -0.285156 C -1.0625 -0.277344 -1.046875 -0.269531 -1.035156 -0.265625 C -0.832031 -0.164062 -0.648438 -0.0742188 -0.464844 0.0078125 C -0.332031 0.0664062 -0.203125 0.117188 -0.101562 0.175781 C -0.0117188 0.226562 0.03125 0.203125 0.0664062 0.0898438 C 0.09375 0.00390625 0.0585938 -0.132812 -0.00390625 -0.164062 C -0.367188 -0.335938 -0.691406 -0.492188 -1.023438 -0.640625 C -1.078125 -0.664062 -1.078125 -0.660156 -1.078125 -0.691406 C -1.078125 -0.90625 -1.105469 -1.113281 -1.101562 -1.320312 C -1.101562 -1.363281 -1.097656 -1.363281 -0.964844 -1.367188 C -0.476562 -1.390625 -0.1875 -1.453125 0 -1.585938 C 0.0625 -1.632812 0.109375 -1.753906 0.0859375 -1.828125 Z M -1.320312 -0.777344 C -1.324219 -0.777344 -1.335938 -0.785156 -1.347656 -0.789062 C -1.734375 -0.980469 -2.074219 -1.140625 -2.359375 -1.269531 C -2.488281 -1.332031 -2.605469 -1.398438 -2.683594 -1.453125 C -2.273438 -1.371094 -1.816406 -1.367188 -1.488281 -1.347656 C -1.488281 -1.347656 -1.347656 -1.335938 -1.347656 -1.339844 C -1.347656 -1.15625 -1.324219 -0.953125 -1.320312 -0.777344 Z M -1.320312 -0.777344 "/>
      </g>
    </g>
  </g>
  <g fill="#000000" fill-opacity="1">
    <g transform="translate(56.068037, 131.072308)">
      <g>
        <path d="M -0.0585938 -1.808594 C -0.167969 -1.800781 -0.253906 -1.542969 -0.253906 -1.253906 C -0.253906 -0.9375 -0.195312 -0.734375 -0.144531 -0.4375 C -0.148438 -0.441406 -0.15625 -0.441406 -0.164062 -0.445312 C -0.640625 -0.566406 -1.070312 -0.683594 -1.539062 -0.785156 C -2.03125 -0.886719 -2.433594 -0.96875 -2.925781 -1.03125 C -3 -1.035156 -3.058594 -1.042969 -3.121094 -1.042969 C -3.203125 -1.039062 -3.265625 -0.949219 -3.265625 -0.84375 C -3.265625 -0.679688 -3.179688 -0.707031 -3.140625 -0.695312 C -2.660156 -0.601562 -2.265625 -0.546875 -1.800781 -0.445312 C -1.214844 -0.3125 -0.667969 -0.210938 -0.113281 -0.0351562 C -0.0234375 -0.0078125 0.0234375 -0.0351562 0.0898438 -0.144531 C 0.121094 -0.195312 0.136719 -0.300781 0.113281 -0.378906 C 0.0117188 -0.703125 -0.0078125 -1.039062 0.03125 -1.421875 C 0.0390625 -1.511719 0.046875 -1.597656 0.0351562 -1.671875 C 0.0234375 -1.777344 0 -1.8125 -0.0585938 -1.808594 Z M -0.0585938 -1.808594 "/>
      </g>
    </g>
  </g>
  <g fill="#000000" fill-opacity="1">
    <g transform="translate(56.068037, 129.012586)">
      <g>
        <path d="M -0.0585938 -1.808594 C -0.167969 -1.800781 -0.253906 -1.542969 -0.253906 -1.253906 C -0.253906 -0.9375 -0.195312 -0.734375 -0.144531 -0.4375 C -0.148438 -0.441406 -0.15625 -0.441406 -0.164062 -0.445312 C -0.640625 -0.566406 -1.070312 -0.683594 -1.539062 -0.785156 C -2.03125 -0.886719 -2.433594 -0.96875 -2.925781 -1.03125 C -3 -1.035156 -3.058594 -1.042969 -3.121094 -1.042969 C -3.203125 -1.039062 -3.265625 -0.949219 -3.265625 -0.84375 C -3.265625 -0.679688 -3.179688 -0.707031 -3.140625 -0.695312 C -2.660156 -0.601562 -2.265625 -0.546875 -1.800781 -0.445312 C -1.214844 -0.3125 -0.667969 -0.210938 -0.113281 -0.0351562 C -0.0234375 -0.0078125 0.0234375 -0.0351562 0.0898438 -0.144531 C 0.121094 -0.195312 0.136719 -0.300781 0.113281 -0.378906 C 0.0117188 -0.703125 -0.0078125 -1.039062 0.03125 -1.421875 C 0.0390625 -1.511719 0.046875 -1.597656 0.0351562 -1.671875 C 0.0234375 -1.777344 0 -1.8125 -0.0585938 -1.808594 Z M -0.0585938 -1.808594 "/>
      </g>
    </g>
  </g>
  <g fill="#000000" fill-opacity="1">
    <g transform="translate(56.068037, 126.952864)">
      <g>
        <path d="M -2.445312 -2.707031 C -2.597656 -2.628906 -2.683594 -2.527344 -2.746094 -2.371094 C -2.761719 -2.324219 -2.757812 -2.238281 -2.742188 -2.171875 C -2.753906 -2.171875 -2.761719 -2.167969 -2.769531 -2.167969 C -3.117188 -2.101562 -3.3125 -1.746094 -3.234375 -1.359375 C -3.171875 -1.042969 -3.035156 -0.785156 -2.847656 -0.605469 C -2.488281 -0.265625 -2.007812 -0.0585938 -1.496094 -0.0234375 C -1.097656 -0.0117188 -0.867188 -0.0546875 -0.613281 -0.175781 C -0.359375 -0.292969 -0.195312 -0.4375 -0.0273438 -0.703125 C 0.101562 -0.914062 0.15625 -1.183594 0.132812 -1.433594 C 0.101562 -1.734375 -0.0351562 -2.023438 -0.277344 -2.269531 C -0.496094 -2.492188 -0.75 -2.652344 -1.046875 -2.746094 C -1.582031 -2.925781 -2.070312 -2.910156 -2.445312 -2.707031 Z M -1.691406 -2.519531 C -0.964844 -2.414062 -0.472656 -2.136719 -0.230469 -1.679688 C -0.109375 -1.441406 -0.0820312 -1.210938 -0.164062 -0.988281 C -0.214844 -0.839844 -0.347656 -0.695312 -0.542969 -0.582031 C -0.722656 -0.472656 -0.851562 -0.429688 -1.03125 -0.410156 C -1.207031 -0.390625 -1.402344 -0.394531 -1.609375 -0.421875 C -1.800781 -0.449219 -2.058594 -0.496094 -2.46875 -0.75 C -2.746094 -0.921875 -2.917969 -1.167969 -3 -1.507812 C -3.027344 -1.617188 -3.011719 -1.6875 -2.964844 -1.757812 C -2.949219 -1.78125 -2.90625 -1.800781 -2.808594 -1.816406 C -2.746094 -1.828125 -2.65625 -1.808594 -2.582031 -1.777344 C -2.484375 -1.742188 -2.445312 -1.753906 -2.398438 -1.851562 C -2.355469 -1.917969 -2.382812 -2.042969 -2.445312 -2.097656 C -2.507812 -2.140625 -2.5625 -2.164062 -2.621094 -2.171875 C -2.605469 -2.199219 -2.59375 -2.234375 -2.570312 -2.261719 C -2.511719 -2.347656 -2.070312 -2.574219 -1.691406 -2.519531 Z M -1.691406 -2.519531 "/>
      </g>
    </g>
  </g>
  <g fill="#000000" fill-opacity="1">
    <g transform="translate(56.068037, 123.831383)">
      <g>
        <path d="M 0.0898438 -1.015625 C 0.0859375 -1.425781 -0.132812 -1.746094 -0.382812 -1.925781 C -0.542969 -2.035156 -0.695312 -2.117188 -0.851562 -2.128906 C -1.144531 -2.144531 -1.425781 -1.976562 -1.714844 -1.625 C -1.878906 -1.417969 -2.007812 -1.195312 -2.128906 -0.929688 C -2.222656 -0.730469 -2.378906 -0.675781 -2.511719 -0.769531 C -2.683594 -0.898438 -2.820312 -1.09375 -2.976562 -1.429688 L -2.972656 -1.421875 C -2.980469 -1.453125 -3.042969 -1.640625 -3.03125 -1.800781 L -3.03125 -1.796875 C -3.027344 -1.835938 -3.019531 -1.839844 -2.957031 -1.808594 C -2.871094 -1.773438 -2.8125 -1.730469 -2.710938 -1.652344 C -2.609375 -1.578125 -2.589844 -1.578125 -2.542969 -1.640625 C -2.492188 -1.699219 -2.523438 -1.890625 -2.601562 -1.980469 C -2.664062 -2.054688 -2.742188 -2.101562 -2.882812 -2.15625 C -2.992188 -2.195312 -3.042969 -2.183594 -3.125 -2.085938 C -3.265625 -1.925781 -3.304688 -1.6875 -3.230469 -1.394531 C -3.15625 -1.117188 -3.019531 -0.855469 -2.828125 -0.640625 C -2.457031 -0.230469 -2.082031 -0.269531 -1.851562 -0.746094 C -1.730469 -0.996094 -1.597656 -1.203125 -1.445312 -1.394531 C -1.238281 -1.660156 -1.03125 -1.769531 -0.800781 -1.722656 C -0.363281 -1.625 -0.117188 -1.175781 -0.203125 -0.625 C -0.242188 -0.382812 -0.40625 -0.21875 -0.65625 -0.175781 C -0.757812 -0.160156 -0.859375 -0.171875 -0.964844 -0.171875 L -0.960938 -0.171875 C -0.996094 -0.183594 -1.015625 -0.148438 -1.039062 -0.0898438 L -1.039062 -0.078125 C -1.042969 -0.0351562 -1.03125 0.0195312 -1.007812 0.0351562 C -0.882812 0.128906 -0.796875 0.160156 -0.683594 0.160156 C -0.382812 0.164062 -0.113281 -0.0390625 0.00390625 -0.363281 C 0.0664062 -0.546875 0.09375 -0.765625 0.0898438 -1.015625 Z M 0.0898438 -1.015625 "/>
      </g>
    </g>
  </g>
</svg>