<?xml version="1.0" encoding="utf-8"?>
<svg viewBox="89.0608 187.2162 288.9454 12.4477" width="288.945" height="12.448" xmlns="http://www.w3.org/2000/svg">
  <g fill="#ffde59" fill-opacity="1" transform="matrix(1, 0, 0, 1, 15.814868208987534, 164.82695252935514)">
    <g transform="translate(131.439659, 34.598634)">
      <g>
        <path d="M 1.722656 0 C 2.367188 0 2.753906 -0.417969 2.816406 -1.03125 L 2.816406 -1.078125 C 2.828125 -1.242188 2.84375 -1.390625 2.84375 -1.570312 L 2.84375 -1.722656 C 2.84375 -1.765625 2.84375 -1.828125 2.828125 -1.886719 C 2.785156 -3.878906 2.753906 -5.121094 2.753906 -6.871094 L 2.753906 -8.128906 C 3.339844 -6.828125 3.832031 -4.792969 4.296875 -3.652344 C 4.433594 -3.367188 4.550781 -3.085938 4.65625 -2.800781 L 4.792969 -2.484375 C 4.835938 -2.246094 4.957031 -2.082031 5.179688 -1.992188 C 5.195312 -1.992188 5.195312 -1.992188 5.210938 -1.976562 L 5.253906 -1.976562 C 5.332031 -1.960938 5.390625 -1.945312 5.449219 -1.945312 C 5.523438 -1.945312 5.601562 -1.960938 5.675781 -1.992188 C 5.871094 -2.050781 6.003906 -2.171875 6.0625 -2.367188 L 6.0625 -2.378906 C 6.320312 -3.519531 6.589844 -4.550781 6.886719 -5.554688 C 6.976562 -5.855469 7.066406 -6.214844 7.140625 -6.617188 C 7.21875 -7.023438 7.308594 -7.382812 7.382812 -7.695312 C 7.425781 -7.261719 7.425781 -6.84375 7.425781 -6.183594 C 7.425781 -5.539062 7.410156 -4.882812 7.398438 -4.175781 L 7.382812 -3.9375 C 7.367188 -3.144531 7.351562 -2.378906 7.351562 -1.675781 L 7.351562 -1.632812 C 7.351562 -1.46875 7.367188 -1.289062 7.410156 -1.09375 C 7.5 -0.417969 7.769531 -0.0742188 8.234375 -0.0585938 L 8.25 -0.0585938 C 8.773438 -0.0585938 8.9375 -0.464844 8.9375 -0.929688 L 8.9375 -1.03125 L 8.757812 -7.335938 L 8.714844 -8.339844 C 8.699219 -8.488281 8.699219 -8.640625 8.699219 -8.773438 C 8.699219 -8.910156 8.699219 -9.058594 8.683594 -9.195312 L 8.683594 -9.644531 C 8.699219 -9.6875 8.699219 -9.746094 8.699219 -9.792969 L 8.699219 -9.941406 C 8.699219 -10.136719 8.683594 -10.316406 8.667969 -10.511719 L 8.667969 -10.554688 C 8.65625 -11.289062 8.28125 -11.902344 7.5 -11.902344 C 7.140625 -11.902344 6.859375 -11.753906 6.664062 -11.46875 C 6.410156 -11.15625 6.257812 -10.839844 6.183594 -10.496094 C 5.898438 -9.523438 5.496094 -7.890625 5 -5.75 C 4.445312 -6.84375 4.238281 -8.191406 4.027344 -8.683594 L 3.398438 -10.0625 C 3.382812 -10.136719 3.367188 -10.195312 3.324219 -10.273438 C 3.277344 -10.347656 3.265625 -10.40625 3.25 -10.480469 C 3.007812 -11.15625 2.695312 -11.738281 1.8125 -11.800781 L 1.796875 -11.800781 L 1.75 -11.785156 C 0.824219 -11.785156 0.597656 -11.230469 0.597656 -10.363281 L 0.597656 -10.285156 C 0.597656 -10.242188 0.597656 -10.210938 0.613281 -10.183594 L 0.613281 -9.941406 L 0.628906 -9.449219 L 0.628906 -8.699219 C 0.628906 -8.535156 0.628906 -8.371094 0.644531 -8.207031 L 0.644531 -4.851562 C 0.660156 -4.613281 0.660156 -4.371094 0.660156 -4.132812 L 0.660156 -2.710938 C 0.660156 -2.46875 0.660156 -2.230469 0.644531 -2.007812 L 0.644531 -1.03125 C 0.703125 -0.402344 1.019531 -0.0585938 1.570312 -0.015625 C 1.617188 0 1.660156 0 1.722656 0 Z M 1.722656 0 "/>
      </g>
    </g>
  </g>
  <g fill="#ffde59" fill-opacity="1" transform="matrix(1, 0, 0, 1, 15.814868208987534, 164.82695252935514)">
    <g transform="translate(140.977829, 34.598634)">
      <g>
        <path d="M 1.558594 0 C 2.351562 0 2.695312 -0.523438 2.800781 -1.257812 C 2.859375 -1.8125 2.933594 -2.335938 3.007812 -2.859375 L 5.585938 -3.144531 C 5.660156 -2.546875 5.734375 -1.855469 5.808594 -1.0625 C 5.855469 -0.660156 6.050781 -0.210938 6.511719 -0.210938 L 6.664062 -0.210938 C 7.246094 -0.390625 7.335938 -0.851562 7.335938 -1.390625 L 7.335938 -1.558594 C 7.335938 -1.601562 7.335938 -1.660156 7.320312 -1.722656 L 7.261719 -2.246094 C 7.097656 -3.804688 6.886719 -5.734375 6.527344 -7.472656 C 6.109375 -9.582031 5.585938 -10.886719 4.925781 -11.542969 C 4.582031 -11.828125 4.238281 -11.980469 3.894531 -11.980469 L 3.804688 -11.980469 C 3.757812 -11.980469 3.726562 -11.980469 3.683594 -11.964844 C 3.277344 -11.902344 2.949219 -11.632812 2.664062 -11.140625 C 2.199219 -10.167969 1.828125 -8.730469 1.421875 -6.648438 C 1.078125 -4.925781 0.839844 -3.128906 0.613281 -1.390625 C 0.597656 -1.332031 0.597656 -1.273438 0.597656 -1.226562 L 0.597656 -1.078125 C 0.597656 -0.433594 0.882812 -0.0429688 1.558594 0 Z M 3.25 -4.296875 C 3.519531 -6.050781 3.984375 -8.398438 4.265625 -9.777344 L 4.296875 -9.792969 L 4.34375 -9.734375 C 4.355469 -9.703125 4.371094 -9.65625 4.386719 -9.597656 C 5.046875 -7.949219 5.164062 -6.003906 5.390625 -4.582031 L 5.40625 -4.507812 Z M 3.25 -4.296875 "/>
      </g>
    </g>
  </g>
  <g fill="#ffde59" fill-opacity="1" transform="matrix(1, 0, 0, 1, 15.814868208987534, 164.82695252935514)">
    <g transform="translate(148.913825, 34.598634)">
      <g>
        <path d="M 1.570312 0 L 1.75 0 C 2.066406 0 2.289062 -0.0898438 2.457031 -0.285156 C 2.621094 -0.539062 2.800781 -1.257812 2.800781 -1.886719 L 2.800781 -3.804688 L 2.785156 -4.074219 L 2.785156 -4.191406 L 2.917969 -4.222656 L 3.382812 -2.980469 C 3.609375 -2.335938 3.742188 -1.871094 4.027344 -1.316406 C 4.328125 -0.71875 4.65625 -0.328125 5 -0.164062 C 5.195312 -0.0898438 5.449219 -0.015625 5.734375 -0.015625 C 5.960938 -0.015625 6.167969 -0.0585938 6.394531 -0.195312 L 6.46875 -0.253906 C 6.664062 -0.359375 6.933594 -0.523438 6.753906 -0.957031 C 6.679688 -1.183594 6.601562 -1.316406 6.527344 -1.347656 C 6.453125 -1.363281 6.378906 -1.363281 6.304688 -1.347656 C 6.078125 -1.242188 5.945312 -1.4375 5.78125 -1.660156 C 5.660156 -1.828125 5.570312 -2.019531 5.464844 -2.246094 C 5.390625 -2.46875 5.332031 -2.648438 5.285156 -2.828125 C 5.242188 -3.007812 5.089844 -3.488281 4.957031 -3.894531 C 4.941406 -3.96875 4.910156 -4.042969 4.882812 -4.101562 C 4.835938 -4.164062 4.804688 -4.238281 4.792969 -4.3125 L 4.582031 -4.957031 C 5.316406 -5.421875 5.882812 -5.988281 6.230469 -6.589844 L 6.242188 -6.648438 C 6.5 -7.113281 6.617188 -7.621094 6.679688 -8.175781 C 6.691406 -8.21875 6.691406 -8.28125 6.691406 -8.324219 L 6.691406 -8.476562 C 6.691406 -10.722656 4.417969 -12.097656 2.351562 -12.097656 C 2.019531 -12.097656 1.738281 -12.070312 1.496094 -11.992188 C 1.078125 -11.828125 0.628906 -11.53125 0.628906 -11.035156 L 0.628906 -10.632812 C 0.628906 -10.570312 0.628906 -10.511719 0.613281 -10.453125 C 0.597656 -10.390625 0.597656 -10.316406 0.597656 -10.242188 L 0.597656 -9.207031 C 0.597656 -9.105469 0.597656 -9 0.613281 -8.894531 L 0.613281 -8.488281 C 0.613281 -8.207031 0.613281 -7.90625 0.628906 -7.621094 L 0.628906 -6.753906 C 0.628906 -6.601562 0.628906 -6.4375 0.644531 -6.273438 L 0.644531 -5.628906 C 0.644531 -5.40625 0.644531 -5.195312 0.660156 -4.972656 L 0.660156 -3.636719 C 0.660156 -3.414062 0.660156 -3.1875 0.644531 -2.964844 L 0.644531 -2.769531 C 0.644531 -2.695312 0.644531 -2.605469 0.628906 -2.515625 C 0.613281 -2.277344 0.597656 -2.019531 0.597656 -1.78125 L 0.597656 -1.511719 C 0.597656 -0.929688 0.867188 0 1.570312 0 Z M 2.769531 -7.578125 L 2.785156 -8.308594 C 2.785156 -8.414062 2.785156 -8.535156 2.769531 -8.65625 C 2.753906 -8.757812 2.753906 -8.878906 2.769531 -8.984375 L 2.769531 -9 L 2.800781 -9.867188 L 2.800781 -10.105469 L 2.785156 -10.40625 C 2.800781 -10.453125 2.84375 -10.496094 2.933594 -10.542969 C 2.949219 -10.542969 2.964844 -10.542969 2.964844 -10.554688 L 2.980469 -10.554688 C 3.113281 -10.554688 3.234375 -10.527344 3.457031 -10.464844 C 4.417969 -10.105469 4.984375 -9.449219 5.089844 -8.65625 L 5.089844 -8.371094 C 5.089844 -7.457031 4.535156 -6.664062 3.773438 -6.167969 C 3.519531 -6.019531 3.324219 -5.929688 3.21875 -5.898438 C 3.097656 -5.871094 3.023438 -5.855469 2.996094 -5.855469 L 2.980469 -5.855469 C 2.890625 -5.855469 2.828125 -5.898438 2.785156 -6.003906 L 2.785156 -7.261719 C 2.769531 -7.367188 2.769531 -7.472656 2.769531 -7.578125 Z M 2.769531 -7.578125 "/>
      </g>
    </g>
  </g>
  <g fill="#ffde59" fill-opacity="1" transform="matrix(1, 0, 0, 1, 15.814868208987534, 164.82695252935514)">
    <g transform="translate(156.325748, 34.598634)">
      <g>
        <path d="M 2.277344 0 C 2.558594 0 2.859375 -0.0429688 3.144531 -0.148438 C 5.496094 -0.988281 6.453125 -3.25 6.453125 -5.628906 C 6.453125 -6.589844 6.320312 -7.546875 6.019531 -8.445312 L 6.003906 -8.535156 L 6.003906 -8.550781 C 5.496094 -10.078125 4.175781 -11.800781 2.605469 -12.160156 C 2.199219 -12.234375 1.152344 -12.292969 0.851562 -11.800781 C 0.628906 -11.453125 0.597656 -11.050781 0.597656 -10.644531 L 0.613281 -10.527344 L 0.613281 -10.421875 C 0.613281 -9.644531 0.613281 -8.863281 0.628906 -8.070312 C 0.644531 -7.277344 0.644531 -6.5 0.644531 -5.703125 L 0.644531 -3.265625 C 0.644531 -3.160156 0.644531 -3.039062 0.628906 -2.933594 C 0.613281 -2.769531 0.613281 -2.621094 0.613281 -2.484375 L 0.613281 -1.660156 C 0.613281 -0.660156 1.257812 0 2.277344 0 Z M 2.738281 -2.425781 L 2.738281 -2.664062 C 2.738281 -3.203125 2.753906 -3.742188 2.769531 -4.265625 C 2.785156 -4.792969 2.785156 -5.332031 2.785156 -5.855469 L 2.785156 -7.023438 C 2.769531 -7.410156 2.769531 -7.800781 2.769531 -8.191406 L 2.769531 -8.640625 C 2.753906 -8.714844 2.753906 -8.773438 2.753906 -8.847656 L 2.753906 -9.117188 C 2.738281 -9.195312 2.738281 -9.285156 2.738281 -9.375 L 2.738281 -9.6875 C 2.738281 -9.777344 2.738281 -9.867188 2.753906 -9.957031 C 2.769531 -10.183594 2.816406 -10.421875 2.980469 -10.464844 L 3.007812 -10.464844 C 3.039062 -10.464844 3.113281 -10.4375 3.234375 -10.375 C 3.355469 -10.316406 3.546875 -10.152344 3.804688 -9.867188 C 4.703125 -8.667969 5.121094 -7.21875 5.121094 -5.71875 C 5.121094 -4.164062 4.730469 -2.679688 3.472656 -1.8125 C 3.25 -1.675781 3.175781 -1.632812 2.933594 -1.632812 L 2.933594 -1.648438 C 2.859375 -1.691406 2.800781 -1.8125 2.769531 -1.976562 C 2.753906 -2.109375 2.738281 -2.261719 2.738281 -2.425781 Z M 2.738281 -2.425781 "/>
      </g>
    </g>
  </g>
  <g fill="#ffde59" fill-opacity="1" transform="matrix(1, 0, 0, 1, 15.814868208987534, 164.82695252935514)">
    <g transform="translate(163.378308, 34.598634)">
      <g>
        <path d="M 1.570312 0 L 1.75 0 C 2.066406 0 2.289062 -0.0898438 2.457031 -0.285156 C 2.621094 -0.539062 2.800781 -1.257812 2.800781 -1.886719 L 2.800781 -3.847656 C 2.785156 -4.492188 2.785156 -5.121094 2.785156 -5.765625 L 2.785156 -7.996094 C 2.769531 -8.339844 2.769531 -8.683594 2.769531 -9.027344 L 2.800781 -9.898438 L 2.800781 -10.136719 C 2.753906 -10.675781 2.816406 -11.050781 2.457031 -11.515625 C 2.289062 -11.710938 2.066406 -11.800781 1.75 -11.800781 L 1.570312 -11.800781 C 0.808594 -11.800781 0.597656 -10.855469 0.597656 -10.273438 L 0.597656 -8.925781 C 0.597656 -8.820312 0.597656 -8.714844 0.613281 -8.609375 L 0.613281 -8.519531 C 0.628906 -8.234375 0.628906 -7.9375 0.628906 -7.652344 L 0.628906 -6.289062 C 0.628906 -6.125 0.628906 -5.945312 0.644531 -5.765625 L 0.644531 -5.644531 C 0.644531 -5.421875 0.644531 -5.210938 0.660156 -4.984375 L 0.660156 -3.652344 C 0.660156 -3.429688 0.660156 -3.203125 0.644531 -2.980469 L 0.644531 -2.769531 C 0.644531 -2.695312 0.644531 -2.605469 0.628906 -2.53125 C 0.613281 -2.277344 0.597656 -2.035156 0.597656 -1.78125 L 0.597656 -1.527344 C 0.597656 -0.929688 0.867188 0 1.570312 0 Z M 1.570312 0 "/>
      </g>
    </g>
  </g>
  <g fill="#ffde59" fill-opacity="1" transform="matrix(1, 0, 0, 1, 15.814868208987534, 164.82695252935514)">
    <g transform="translate(72.648247, 34.598634)">
      <g>
        <path d="M 3.382812 0 L 3.953125 0 C 4.027344 0 4.117188 0 4.207031 -0.015625 C 4.445312 -0.03125 4.65625 -0.105469 4.851562 -0.222656 L 4.867188 -0.222656 C 5.03125 -0.34375 5.121094 -0.507812 5.121094 -0.734375 L 5.121094 -0.867188 C 5.0625 -1.121094 4.910156 -1.300781 4.65625 -1.390625 C 4.492188 -1.421875 4.328125 -1.4375 4.148438 -1.4375 L 3.878906 -1.4375 C 3.726562 -1.4375 3.59375 -1.453125 3.472656 -1.480469 C 3.25 -1.585938 3.070312 -1.855469 2.949219 -2.320312 C 2.84375 -2.738281 2.828125 -3.234375 2.785156 -3.757812 L 2.785156 -3.90625 C 2.753906 -4.625 2.738281 -5.332031 2.738281 -6.019531 C 2.738281 -6.992188 2.769531 -8.039062 2.828125 -9.164062 C 2.828125 -9.386719 2.949219 -9.925781 2.949219 -10.542969 C 2.949219 -11.183594 2.726562 -11.664062 2.050781 -11.828125 L 2.035156 -11.828125 L 1.976562 -11.84375 C 1.929688 -11.859375 1.886719 -11.859375 1.855469 -11.859375 L 1.75 -11.859375 C 1.46875 -11.859375 1.273438 -11.800781 1.136719 -11.664062 C 0.703125 -11.230469 0.75 -9.914062 0.671875 -8.863281 C 0.628906 -7.5 0.597656 -6.378906 0.597656 -5.359375 L 0.597656 -5.253906 C 0.597656 -4.164062 0.6875 -3.160156 0.851562 -2.246094 C 1.136719 -0.582031 1.722656 0 3.382812 0 Z M 3.382812 0 "/>
      </g>
    </g>
  </g>
  <g fill="#ffde59" fill-opacity="1" transform="matrix(1, 0, 0, 1, 15.814868208987534, 164.82695252935514)">
    <g transform="translate(78.368158, 34.598634)">
      <g>
        <path d="M 3.21875 0.238281 C 3.398438 0.238281 3.5625 0.210938 3.714844 0.164062 C 4.941406 -0.210938 5.644531 -1.332031 5.972656 -2.710938 C 6.320312 -4.101562 6.347656 -5.585938 6.347656 -6.722656 L 6.347656 -7.367188 C 6.347656 -7.652344 6.347656 -7.9375 6.332031 -8.207031 C 6.320312 -8.476562 6.320312 -8.730469 6.320312 -8.984375 L 6.320312 -9.597656 C 6.304688 -9.792969 6.304688 -10.003906 6.304688 -10.195312 L 6.304688 -10.839844 C 6.304688 -10.902344 6.304688 -10.960938 6.289062 -11.035156 C 6.257812 -11.8125 5.914062 -11.980469 5.613281 -11.980469 L 5.601562 -11.980469 C 5.195312 -11.980469 4.972656 -11.8125 4.910156 -11.5 C 4.851562 -11.273438 4.820312 -11.082031 4.820312 -10.914062 L 4.820312 -10.796875 C 4.820312 -10.527344 4.820312 -10.257812 4.835938 -9.972656 L 4.835938 -9.117188 C 4.835938 -7.726562 4.820312 -6.320312 4.792969 -4.910156 C 4.746094 -4.117188 4.6875 -3.382812 4.523438 -2.484375 C 4.460938 -2.140625 4.296875 -1.945312 4.132812 -1.78125 C 4.042969 -1.691406 3.9375 -1.617188 3.832031 -1.558594 L 3.816406 -1.558594 C 3.234375 -1.558594 3.054688 -2.890625 2.859375 -4.894531 C 2.84375 -4.957031 2.84375 -5.015625 2.84375 -5.074219 L 2.84375 -5.242188 C 2.828125 -5.78125 2.816406 -6.257812 2.816406 -6.617188 L 2.816406 -6.960938 C 2.800781 -7.066406 2.800781 -7.15625 2.800781 -7.246094 L 2.800781 -9.105469 C 2.800781 -9.148438 2.800781 -9.207031 2.816406 -9.285156 L 2.816406 -9.507812 C 2.816406 -9.613281 2.828125 -9.71875 2.84375 -9.824219 C 2.859375 -9.925781 2.859375 -10.046875 2.859375 -10.152344 L 2.859375 -10.496094 C 2.859375 -11.183594 2.558594 -11.980469 1.765625 -11.980469 L 1.75 -11.980469 C 1.316406 -11.980469 1.003906 -11.800781 0.824219 -11.453125 L 0.824219 -11.441406 C 0.703125 -11.125 0.628906 -10.824219 0.628906 -10.480469 L 0.628906 -9.65625 C 0.628906 -9.402344 0.628906 -9.164062 0.613281 -8.910156 C 0.597656 -8.65625 0.597656 -8.386719 0.597656 -8.128906 C 0.597656 -6.976562 0.628906 -5.570312 0.851562 -3.921875 C 1.0625 -2.378906 1.46875 -0.941406 2.1875 -0.222656 C 2.457031 0.0898438 2.800781 0.238281 3.21875 0.238281 Z M 3.21875 0.238281 "/>
      </g>
    </g>
  </g>
  <g fill="#ffde59" fill-opacity="1" transform="matrix(1, 0, 0, 1, 15.814868208987534, 164.82695252935514)">
    <g transform="translate(85.315903, 34.598634)">
      <g>
        <path d="M 1.585938 0 L 1.601562 0 C 2.636719 0 2.816406 -0.75 2.816406 -1.558594 L 2.816406 -1.707031 C 2.816406 -1.75 2.816406 -1.8125 2.800781 -1.855469 C 2.753906 -3.039062 2.726562 -5.449219 2.726562 -6.828125 L 2.726562 -7.398438 C 3.160156 -6.289062 3.265625 -5.945312 3.773438 -4.6875 C 3.996094 -4.175781 4.238281 -3.5625 4.492188 -2.859375 L 4.492188 -2.84375 L 4.535156 -2.753906 C 4.535156 -2.738281 4.535156 -2.738281 4.550781 -2.726562 L 5.226562 -0.703125 C 5.40625 -0.148438 5.585938 0.105469 6.304688 0 L 6.589844 0 C 6.992188 0 7.039062 -0.597656 7.097656 -0.851562 C 7.140625 -1.046875 7.171875 -1.257812 7.171875 -1.480469 C 7.15625 -1.691406 7.15625 -1.917969 7.171875 -2.140625 C 7.203125 -2.859375 7.21875 -3.652344 7.21875 -4.523438 L 7.21875 -5.332031 C 7.21875 -6.273438 7.15625 -7.320312 7.097656 -8.339844 C 7.097656 -8.59375 7.082031 -8.863281 7.066406 -9.117188 C 7.066406 -9.34375 7.039062 -9.65625 7.039062 -10.332031 L 7.039062 -10.722656 C 7.039062 -11.273438 7.023438 -11.992188 6.363281 -11.992188 C 5.644531 -11.992188 5.464844 -11.632812 5.449219 -11.289062 C 5.433594 -11.246094 5.433594 -11.15625 5.433594 -11.050781 C 5.433594 -11.019531 5.433594 -10.992188 5.449219 -10.960938 L 5.449219 -10.796875 C 5.449219 -9.851562 5.691406 -8.535156 5.691406 -7.546875 L 5.691406 -7.53125 C 5.691406 -6.527344 5.675781 -6.050781 5.675781 -4.582031 L 5.675781 -4.523438 C 5.675781 -4.445312 5.675781 -4.328125 5.691406 -4.175781 C 5.691406 -4.027344 5.691406 -3.90625 5.675781 -3.832031 C 4.746094 -6.257812 3.878906 -8.820312 3.578125 -9.433594 L 3.472656 -9.671875 C 3.457031 -9.734375 3.429688 -9.792969 3.414062 -9.867188 C 3.382812 -9.941406 3.355469 -10.015625 3.339844 -10.09375 L 3.292969 -10.183594 C 2.996094 -11.035156 2.636719 -11.890625 1.691406 -11.933594 C 0.792969 -11.933594 0.597656 -11.15625 0.597656 -10.347656 L 0.597656 -9.105469 L 0.613281 -7.308594 C 0.613281 -6.320312 0.644531 -4.984375 0.644531 -3.953125 L 0.644531 -3.054688 C 0.644531 -2.738281 0.644531 -2.441406 0.628906 -2.15625 C 0.613281 -2.109375 0.613281 -2.066406 0.613281 -2.019531 L 0.613281 -1.871094 C 0.597656 -1.8125 0.597656 -1.75 0.597656 -1.691406 L 0.597656 -1.480469 C 0.597656 -0.761719 0.761719 0 1.585938 0 Z M 1.585938 0 "/>
      </g>
    </g>
  </g>
  <g fill="#ffde59" fill-opacity="1" transform="matrix(1, 0, 0, 1, 15.814868208987534, 164.82695252935514)">
    <g transform="translate(93.132108, 34.598634)">
      <g>
        <path d="M 2.277344 0 C 2.558594 0 2.859375 -0.0429688 3.144531 -0.148438 C 5.496094 -0.988281 6.453125 -3.25 6.453125 -5.628906 C 6.453125 -6.589844 6.320312 -7.546875 6.019531 -8.445312 L 6.003906 -8.535156 L 6.003906 -8.550781 C 5.496094 -10.078125 4.175781 -11.800781 2.605469 -12.160156 C 2.199219 -12.234375 1.152344 -12.292969 0.851562 -11.800781 C 0.628906 -11.453125 0.597656 -11.050781 0.597656 -10.644531 L 0.613281 -10.527344 L 0.613281 -10.421875 C 0.613281 -9.644531 0.613281 -8.863281 0.628906 -8.070312 C 0.644531 -7.277344 0.644531 -6.5 0.644531 -5.703125 L 0.644531 -3.265625 C 0.644531 -3.160156 0.644531 -3.039062 0.628906 -2.933594 C 0.613281 -2.769531 0.613281 -2.621094 0.613281 -2.484375 L 0.613281 -1.660156 C 0.613281 -0.660156 1.257812 0 2.277344 0 Z M 2.738281 -2.425781 L 2.738281 -2.664062 C 2.738281 -3.203125 2.753906 -3.742188 2.769531 -4.265625 C 2.785156 -4.792969 2.785156 -5.332031 2.785156 -5.855469 L 2.785156 -7.023438 C 2.769531 -7.410156 2.769531 -7.800781 2.769531 -8.191406 L 2.769531 -8.640625 C 2.753906 -8.714844 2.753906 -8.773438 2.753906 -8.847656 L 2.753906 -9.117188 C 2.738281 -9.195312 2.738281 -9.285156 2.738281 -9.375 L 2.738281 -9.6875 C 2.738281 -9.777344 2.738281 -9.867188 2.753906 -9.957031 C 2.769531 -10.183594 2.816406 -10.421875 2.980469 -10.464844 L 3.007812 -10.464844 C 3.039062 -10.464844 3.113281 -10.4375 3.234375 -10.375 C 3.355469 -10.316406 3.546875 -10.152344 3.804688 -9.867188 C 4.703125 -8.667969 5.121094 -7.21875 5.121094 -5.71875 C 5.121094 -4.164062 4.730469 -2.679688 3.472656 -1.8125 C 3.25 -1.675781 3.175781 -1.632812 2.933594 -1.632812 L 2.933594 -1.648438 C 2.859375 -1.691406 2.800781 -1.8125 2.769531 -1.976562 C 2.753906 -2.109375 2.738281 -2.261719 2.738281 -2.425781 Z M 2.738281 -2.425781 "/>
      </g>
    </g>
  </g>
  <g fill="#ffde59" fill-opacity="1" transform="matrix(1, 0, 0, 1, 15.814868208987534, 164.82695252935514)">
    <g transform="translate(100.184668, 34.598634)">
      <g>
        <path d="M 1.570312 0 L 1.75 0 C 2.066406 0 2.289062 -0.0898438 2.457031 -0.285156 C 2.621094 -0.539062 2.800781 -1.257812 2.800781 -1.886719 L 2.800781 -3.847656 C 2.785156 -4.492188 2.785156 -5.121094 2.785156 -5.765625 L 2.785156 -7.996094 C 2.769531 -8.339844 2.769531 -8.683594 2.769531 -9.027344 L 2.800781 -9.898438 L 2.800781 -10.136719 C 2.753906 -10.675781 2.816406 -11.050781 2.457031 -11.515625 C 2.289062 -11.710938 2.066406 -11.800781 1.75 -11.800781 L 1.570312 -11.800781 C 0.808594 -11.800781 0.597656 -10.855469 0.597656 -10.273438 L 0.597656 -8.925781 C 0.597656 -8.820312 0.597656 -8.714844 0.613281 -8.609375 L 0.613281 -8.519531 C 0.628906 -8.234375 0.628906 -7.9375 0.628906 -7.652344 L 0.628906 -6.289062 C 0.628906 -6.125 0.628906 -5.945312 0.644531 -5.765625 L 0.644531 -5.644531 C 0.644531 -5.421875 0.644531 -5.210938 0.660156 -4.984375 L 0.660156 -3.652344 C 0.660156 -3.429688 0.660156 -3.203125 0.644531 -2.980469 L 0.644531 -2.769531 C 0.644531 -2.695312 0.644531 -2.605469 0.628906 -2.53125 C 0.613281 -2.277344 0.597656 -2.035156 0.597656 -1.78125 L 0.597656 -1.527344 C 0.597656 -0.929688 0.867188 0 1.570312 0 Z M 1.570312 0 "/>
      </g>
    </g>
  </g>
  <g fill="#ffde59" fill-opacity="1" transform="matrix(1, 0, 0, 1, 15.814868208987534, 164.82695252935514)">
    <g transform="translate(184.927227, 34.598634)">
      <g>
        <path d="M 1.722656 0 C 2.367188 0 2.753906 -0.417969 2.816406 -1.03125 L 2.816406 -1.078125 C 2.828125 -1.242188 2.84375 -1.390625 2.84375 -1.570312 L 2.84375 -1.722656 C 2.84375 -1.765625 2.84375 -1.828125 2.828125 -1.886719 C 2.785156 -3.878906 2.753906 -5.121094 2.753906 -6.871094 L 2.753906 -8.128906 C 3.339844 -6.828125 3.832031 -4.792969 4.296875 -3.652344 C 4.433594 -3.367188 4.550781 -3.085938 4.65625 -2.800781 L 4.792969 -2.484375 C 4.835938 -2.246094 4.957031 -2.082031 5.179688 -1.992188 C 5.195312 -1.992188 5.195312 -1.992188 5.210938 -1.976562 L 5.253906 -1.976562 C 5.332031 -1.960938 5.390625 -1.945312 5.449219 -1.945312 C 5.523438 -1.945312 5.601562 -1.960938 5.675781 -1.992188 C 5.871094 -2.050781 6.003906 -2.171875 6.0625 -2.367188 L 6.0625 -2.378906 C 6.320312 -3.519531 6.589844 -4.550781 6.886719 -5.554688 C 6.976562 -5.855469 7.066406 -6.214844 7.140625 -6.617188 C 7.21875 -7.023438 7.308594 -7.382812 7.382812 -7.695312 C 7.425781 -7.261719 7.425781 -6.84375 7.425781 -6.183594 C 7.425781 -5.539062 7.410156 -4.882812 7.398438 -4.175781 L 7.382812 -3.9375 C 7.367188 -3.144531 7.351562 -2.378906 7.351562 -1.675781 L 7.351562 -1.632812 C 7.351562 -1.46875 7.367188 -1.289062 7.410156 -1.09375 C 7.5 -0.417969 7.769531 -0.0742188 8.234375 -0.0585938 L 8.25 -0.0585938 C 8.773438 -0.0585938 8.9375 -0.464844 8.9375 -0.929688 L 8.9375 -1.03125 L 8.757812 -7.335938 L 8.714844 -8.339844 C 8.699219 -8.488281 8.699219 -8.640625 8.699219 -8.773438 C 8.699219 -8.910156 8.699219 -9.058594 8.683594 -9.195312 L 8.683594 -9.644531 C 8.699219 -9.6875 8.699219 -9.746094 8.699219 -9.792969 L 8.699219 -9.941406 C 8.699219 -10.136719 8.683594 -10.316406 8.667969 -10.511719 L 8.667969 -10.554688 C 8.65625 -11.289062 8.28125 -11.902344 7.5 -11.902344 C 7.140625 -11.902344 6.859375 -11.753906 6.664062 -11.46875 C 6.410156 -11.15625 6.257812 -10.839844 6.183594 -10.496094 C 5.898438 -9.523438 5.496094 -7.890625 5 -5.75 C 4.445312 -6.84375 4.238281 -8.191406 4.027344 -8.683594 L 3.398438 -10.0625 C 3.382812 -10.136719 3.367188 -10.195312 3.324219 -10.273438 C 3.277344 -10.347656 3.265625 -10.40625 3.25 -10.480469 C 3.007812 -11.15625 2.695312 -11.738281 1.8125 -11.800781 L 1.796875 -11.800781 L 1.75 -11.785156 C 0.824219 -11.785156 0.597656 -11.230469 0.597656 -10.363281 L 0.597656 -10.285156 C 0.597656 -10.242188 0.597656 -10.210938 0.613281 -10.183594 L 0.613281 -9.941406 L 0.628906 -9.449219 L 0.628906 -8.699219 C 0.628906 -8.535156 0.628906 -8.371094 0.644531 -8.207031 L 0.644531 -4.851562 C 0.660156 -4.613281 0.660156 -4.371094 0.660156 -4.132812 L 0.660156 -2.710938 C 0.660156 -2.46875 0.660156 -2.230469 0.644531 -2.007812 L 0.644531 -1.03125 C 0.703125 -0.402344 1.019531 -0.0585938 1.570312 -0.015625 C 1.617188 0 1.660156 0 1.722656 0 Z M 1.722656 0 "/>
      </g>
    </g>
  </g>
  <g fill="#ffde59" fill-opacity="1" transform="matrix(1, 0, 0, 1, 15.814868208987534, 164.82695252935514)">
    <g transform="translate(194.465397, 34.598634)">
      <g>
        <path d="M 3.578125 0 L 3.789062 0 C 4.148438 0 4.460938 -0.015625 4.746094 -0.03125 C 5.269531 -0.0742188 5.75 -0.285156 5.75 -0.808594 C 5.75 -1.0625 5.523438 -1.511719 5 -1.511719 L 4.984375 -1.511719 L 4.566406 -1.480469 C 4.492188 -1.46875 4.402344 -1.46875 4.328125 -1.46875 L 3.832031 -1.46875 C 3.757812 -1.46875 3.667969 -1.46875 3.59375 -1.480469 C 3.128906 -1.585938 2.859375 -1.976562 2.769531 -2.648438 L 2.769531 -2.726562 C 2.753906 -2.738281 2.753906 -2.769531 2.753906 -2.785156 C 2.605469 -3.804688 2.621094 -4.355469 2.621094 -4.445312 L 2.636719 -4.867188 C 2.648438 -5.152344 2.949219 -5.152344 3.234375 -5.152344 L 3.9375 -5.152344 C 3.996094 -5.136719 4.058594 -5.136719 4.101562 -5.136719 L 4.371094 -5.136719 C 4.792969 -5.136719 5.074219 -5.449219 5.074219 -5.855469 C 5.074219 -6.0625 5 -6.242188 4.851562 -6.394531 L 4.835938 -6.410156 C 4.703125 -6.542969 4.492188 -6.558594 4.3125 -6.558594 L 3.457031 -6.558594 C 3.382812 -6.558594 3.308594 -6.542969 3.234375 -6.527344 L 3.054688 -6.527344 C 2.933594 -6.527344 2.84375 -6.542969 2.785156 -6.574219 L 2.769531 -6.589844 C 2.753906 -6.601562 2.726562 -6.648438 2.710938 -6.707031 C 2.679688 -6.753906 2.664062 -6.871094 2.664062 -7.039062 C 2.679688 -7.082031 2.679688 -7.15625 2.679688 -7.246094 C 2.695312 -7.292969 2.710938 -7.335938 2.710938 -7.382812 L 2.710938 -7.488281 C 2.710938 -7.832031 2.726562 -8.191406 2.753906 -8.535156 C 2.785156 -8.878906 2.800781 -9.222656 2.800781 -9.566406 L 2.800781 -9.71875 C 2.800781 -10.09375 2.90625 -10.347656 3.070312 -10.421875 C 3.21875 -10.480469 3.398438 -10.511719 3.59375 -10.511719 L 3.714844 -10.511719 C 3.742188 -10.496094 3.773438 -10.496094 3.804688 -10.496094 L 4.402344 -10.496094 C 4.820312 -10.496094 5.449219 -10.675781 5.449219 -11.214844 C 5.449219 -11.289062 5.433594 -11.363281 5.421875 -11.410156 C 5.269531 -12.082031 3.96875 -11.980469 3.21875 -11.980469 L 2.125 -11.980469 C 1.03125 -11.980469 0.71875 -11.542969 0.71875 -10.40625 L 0.71875 -10.195312 L 0.644531 -8.953125 C 0.613281 -8.414062 0.613281 -7.875 0.628906 -7.320312 C 0.644531 -6.769531 0.660156 -6.199219 0.644531 -5.628906 L 0.628906 -5.511719 C 0.613281 -4.957031 0.613281 -4.433594 0.597656 -3.921875 C 0.582031 -3.398438 0.613281 -2.90625 0.6875 -2.425781 C 0.734375 -1.992188 0.824219 -1.496094 1.019531 -1.078125 C 1.242188 -0.660156 1.542969 -0.359375 1.976562 -0.195312 L 1.992188 -0.195312 C 2.367188 -0.0742188 2.828125 -0.015625 3.355469 -0.015625 C 3.429688 0 3.503906 0 3.578125 0 Z M 3.578125 0 "/>
      </g>
    </g>
  </g>
  <g fill="#ffde59" fill-opacity="1" transform="matrix(1, 0, 0, 1, 15.814868208987534, 164.82695252935514)">
    <g transform="translate(200.814196, 34.598634)">
      <g>
        <path d="M 1.570312 0 L 1.75 0 C 2.066406 0 2.289062 -0.0898438 2.457031 -0.285156 C 2.621094 -0.539062 2.800781 -1.257812 2.800781 -1.886719 L 2.800781 -3.804688 L 2.785156 -4.074219 L 2.785156 -4.191406 L 2.917969 -4.222656 L 3.382812 -2.980469 C 3.609375 -2.335938 3.742188 -1.871094 4.027344 -1.316406 C 4.328125 -0.71875 4.65625 -0.328125 5 -0.164062 C 5.195312 -0.0898438 5.449219 -0.015625 5.734375 -0.015625 C 5.960938 -0.015625 6.167969 -0.0585938 6.394531 -0.195312 L 6.46875 -0.253906 C 6.664062 -0.359375 6.933594 -0.523438 6.753906 -0.957031 C 6.679688 -1.183594 6.601562 -1.316406 6.527344 -1.347656 C 6.453125 -1.363281 6.378906 -1.363281 6.304688 -1.347656 C 6.078125 -1.242188 5.945312 -1.4375 5.78125 -1.660156 C 5.660156 -1.828125 5.570312 -2.019531 5.464844 -2.246094 C 5.390625 -2.46875 5.332031 -2.648438 5.285156 -2.828125 C 5.242188 -3.007812 5.089844 -3.488281 4.957031 -3.894531 C 4.941406 -3.96875 4.910156 -4.042969 4.882812 -4.101562 C 4.835938 -4.164062 4.804688 -4.238281 4.792969 -4.3125 L 4.582031 -4.957031 C 5.316406 -5.421875 5.882812 -5.988281 6.230469 -6.589844 L 6.242188 -6.648438 C 6.5 -7.113281 6.617188 -7.621094 6.679688 -8.175781 C 6.691406 -8.21875 6.691406 -8.28125 6.691406 -8.324219 L 6.691406 -8.476562 C 6.691406 -10.722656 4.417969 -12.097656 2.351562 -12.097656 C 2.019531 -12.097656 1.738281 -12.070312 1.496094 -11.992188 C 1.078125 -11.828125 0.628906 -11.53125 0.628906 -11.035156 L 0.628906 -10.632812 C 0.628906 -10.570312 0.628906 -10.511719 0.613281 -10.453125 C 0.597656 -10.390625 0.597656 -10.316406 0.597656 -10.242188 L 0.597656 -9.207031 C 0.597656 -9.105469 0.597656 -9 0.613281 -8.894531 L 0.613281 -8.488281 C 0.613281 -8.207031 0.613281 -7.90625 0.628906 -7.621094 L 0.628906 -6.753906 C 0.628906 -6.601562 0.628906 -6.4375 0.644531 -6.273438 L 0.644531 -5.628906 C 0.644531 -5.40625 0.644531 -5.195312 0.660156 -4.972656 L 0.660156 -3.636719 C 0.660156 -3.414062 0.660156 -3.1875 0.644531 -2.964844 L 0.644531 -2.769531 C 0.644531 -2.695312 0.644531 -2.605469 0.628906 -2.515625 C 0.613281 -2.277344 0.597656 -2.019531 0.597656 -1.78125 L 0.597656 -1.511719 C 0.597656 -0.929688 0.867188 0 1.570312 0 Z M 2.769531 -7.578125 L 2.785156 -8.308594 C 2.785156 -8.414062 2.785156 -8.535156 2.769531 -8.65625 C 2.753906 -8.757812 2.753906 -8.878906 2.769531 -8.984375 L 2.769531 -9 L 2.800781 -9.867188 L 2.800781 -10.105469 L 2.785156 -10.40625 C 2.800781 -10.453125 2.84375 -10.496094 2.933594 -10.542969 C 2.949219 -10.542969 2.964844 -10.542969 2.964844 -10.554688 L 2.980469 -10.554688 C 3.113281 -10.554688 3.234375 -10.527344 3.457031 -10.464844 C 4.417969 -10.105469 4.984375 -9.449219 5.089844 -8.65625 L 5.089844 -8.371094 C 5.089844 -7.457031 4.535156 -6.664062 3.773438 -6.167969 C 3.519531 -6.019531 3.324219 -5.929688 3.21875 -5.898438 C 3.097656 -5.871094 3.023438 -5.855469 2.996094 -5.855469 L 2.980469 -5.855469 C 2.890625 -5.855469 2.828125 -5.898438 2.785156 -6.003906 L 2.785156 -7.261719 C 2.769531 -7.367188 2.769531 -7.472656 2.769531 -7.578125 Z M 2.769531 -7.578125 "/>
      </g>
    </g>
  </g>
  <g fill="#ffde59" fill-opacity="1" transform="matrix(1, 0, 0, 1, 15.814868208987534, 164.82695252935514)">
    <g transform="translate(208.226118, 34.598634)">
      <g>
        <path d="M 3.90625 0 C 4.523438 0 5.089844 -0.210938 5.613281 -0.613281 L 5.628906 -0.613281 C 6.410156 -1.273438 6.84375 -2.335938 6.886719 -3.472656 L 6.886719 -3.519531 C 6.886719 -3.9375 6.722656 -4.386719 6.230469 -4.386719 L 6.199219 -4.386719 C 5.660156 -4.3125 5.554688 -3.757812 5.496094 -3.21875 C 5.375 -2.546875 5.226562 -1.945312 4.6875 -1.585938 C 4.535156 -1.527344 4.402344 -1.496094 4.296875 -1.496094 C 4.148438 -1.496094 4.011719 -1.542969 3.894531 -1.632812 C 2.933594 -2.515625 2.710938 -5.253906 2.710938 -6.542969 C 2.710938 -7.769531 2.84375 -10.078125 4.132812 -10.644531 L 4.355469 -10.722656 L 4.371094 -10.722656 C 4.433594 -10.75 4.507812 -10.765625 4.582031 -10.765625 C 4.703125 -10.765625 4.820312 -10.722656 4.941406 -10.632812 L 5.089844 -10.464844 C 5.195312 -10.300781 5.285156 -10.078125 5.359375 -9.777344 C 5.496094 -9.195312 5.703125 -8.609375 6.242188 -8.503906 L 6.257812 -8.503906 C 6.722656 -8.503906 6.828125 -8.910156 6.828125 -9.285156 L 6.828125 -9.328125 C 6.828125 -9.507812 6.8125 -9.65625 6.78125 -9.792969 C 6.5 -11.335938 5.824219 -12.144531 4.253906 -12.144531 C 2.695312 -12.144531 1.765625 -11.261719 1.257812 -10.0625 C 0.734375 -8.789062 0.628906 -7.351562 0.597656 -6.140625 L 0.597656 -5.945312 C 0.597656 -4.820312 0.703125 -3.414062 1.167969 -2.140625 C 1.632812 -0.882812 2.5 0 3.90625 0 Z M 3.90625 0 "/>
      </g>
    </g>
  </g>
  <g fill="#ffde59" fill-opacity="1" transform="matrix(1, 0, 0, 1, 15.814868208987534, 164.82695252935514)">
    <g transform="translate(215.712902, 34.598634)">
      <g>
        <path d="M 1.570312 0 L 1.75 0 C 2.066406 0 2.289062 -0.0898438 2.457031 -0.285156 C 2.621094 -0.539062 2.800781 -1.257812 2.800781 -1.886719 L 2.800781 -3.804688 L 2.785156 -4.074219 L 2.785156 -4.191406 L 2.917969 -4.222656 L 3.382812 -2.980469 C 3.609375 -2.335938 3.742188 -1.871094 4.027344 -1.316406 C 4.328125 -0.71875 4.65625 -0.328125 5 -0.164062 C 5.195312 -0.0898438 5.449219 -0.015625 5.734375 -0.015625 C 5.960938 -0.015625 6.167969 -0.0585938 6.394531 -0.195312 L 6.46875 -0.253906 C 6.664062 -0.359375 6.933594 -0.523438 6.753906 -0.957031 C 6.679688 -1.183594 6.601562 -1.316406 6.527344 -1.347656 C 6.453125 -1.363281 6.378906 -1.363281 6.304688 -1.347656 C 6.078125 -1.242188 5.945312 -1.4375 5.78125 -1.660156 C 5.660156 -1.828125 5.570312 -2.019531 5.464844 -2.246094 C 5.390625 -2.46875 5.332031 -2.648438 5.285156 -2.828125 C 5.242188 -3.007812 5.089844 -3.488281 4.957031 -3.894531 C 4.941406 -3.96875 4.910156 -4.042969 4.882812 -4.101562 C 4.835938 -4.164062 4.804688 -4.238281 4.792969 -4.3125 L 4.582031 -4.957031 C 5.316406 -5.421875 5.882812 -5.988281 6.230469 -6.589844 L 6.242188 -6.648438 C 6.5 -7.113281 6.617188 -7.621094 6.679688 -8.175781 C 6.691406 -8.21875 6.691406 -8.28125 6.691406 -8.324219 L 6.691406 -8.476562 C 6.691406 -10.722656 4.417969 -12.097656 2.351562 -12.097656 C 2.019531 -12.097656 1.738281 -12.070312 1.496094 -11.992188 C 1.078125 -11.828125 0.628906 -11.53125 0.628906 -11.035156 L 0.628906 -10.632812 C 0.628906 -10.570312 0.628906 -10.511719 0.613281 -10.453125 C 0.597656 -10.390625 0.597656 -10.316406 0.597656 -10.242188 L 0.597656 -9.207031 C 0.597656 -9.105469 0.597656 -9 0.613281 -8.894531 L 0.613281 -8.488281 C 0.613281 -8.207031 0.613281 -7.90625 0.628906 -7.621094 L 0.628906 -6.753906 C 0.628906 -6.601562 0.628906 -6.4375 0.644531 -6.273438 L 0.644531 -5.628906 C 0.644531 -5.40625 0.644531 -5.195312 0.660156 -4.972656 L 0.660156 -3.636719 C 0.660156 -3.414062 0.660156 -3.1875 0.644531 -2.964844 L 0.644531 -2.769531 C 0.644531 -2.695312 0.644531 -2.605469 0.628906 -2.515625 C 0.613281 -2.277344 0.597656 -2.019531 0.597656 -1.78125 L 0.597656 -1.511719 C 0.597656 -0.929688 0.867188 0 1.570312 0 Z M 2.769531 -7.578125 L 2.785156 -8.308594 C 2.785156 -8.414062 2.785156 -8.535156 2.769531 -8.65625 C 2.753906 -8.757812 2.753906 -8.878906 2.769531 -8.984375 L 2.769531 -9 L 2.800781 -9.867188 L 2.800781 -10.105469 L 2.785156 -10.40625 C 2.800781 -10.453125 2.84375 -10.496094 2.933594 -10.542969 C 2.949219 -10.542969 2.964844 -10.542969 2.964844 -10.554688 L 2.980469 -10.554688 C 3.113281 -10.554688 3.234375 -10.527344 3.457031 -10.464844 C 4.417969 -10.105469 4.984375 -9.449219 5.089844 -8.65625 L 5.089844 -8.371094 C 5.089844 -7.457031 4.535156 -6.664062 3.773438 -6.167969 C 3.519531 -6.019531 3.324219 -5.929688 3.21875 -5.898438 C 3.097656 -5.871094 3.023438 -5.855469 2.996094 -5.855469 L 2.980469 -5.855469 C 2.890625 -5.855469 2.828125 -5.898438 2.785156 -6.003906 L 2.785156 -7.261719 C 2.769531 -7.367188 2.769531 -7.472656 2.769531 -7.578125 Z M 2.769531 -7.578125 "/>
      </g>
    </g>
  </g>
  <g fill="#ffde59" fill-opacity="1" transform="matrix(1, 0, 0, 1, 15.814868208987534, 164.82695252935514)">
    <g transform="translate(223.124825, 34.598634)">
      <g>
        <path d="M 3.578125 0 L 3.789062 0 C 4.148438 0 4.460938 -0.015625 4.746094 -0.03125 C 5.269531 -0.0742188 5.75 -0.285156 5.75 -0.808594 C 5.75 -1.0625 5.523438 -1.511719 5 -1.511719 L 4.984375 -1.511719 L 4.566406 -1.480469 C 4.492188 -1.46875 4.402344 -1.46875 4.328125 -1.46875 L 3.832031 -1.46875 C 3.757812 -1.46875 3.667969 -1.46875 3.59375 -1.480469 C 3.128906 -1.585938 2.859375 -1.976562 2.769531 -2.648438 L 2.769531 -2.726562 C 2.753906 -2.738281 2.753906 -2.769531 2.753906 -2.785156 C 2.605469 -3.804688 2.621094 -4.355469 2.621094 -4.445312 L 2.636719 -4.867188 C 2.648438 -5.152344 2.949219 -5.152344 3.234375 -5.152344 L 3.9375 -5.152344 C 3.996094 -5.136719 4.058594 -5.136719 4.101562 -5.136719 L 4.371094 -5.136719 C 4.792969 -5.136719 5.074219 -5.449219 5.074219 -5.855469 C 5.074219 -6.0625 5 -6.242188 4.851562 -6.394531 L 4.835938 -6.410156 C 4.703125 -6.542969 4.492188 -6.558594 4.3125 -6.558594 L 3.457031 -6.558594 C 3.382812 -6.558594 3.308594 -6.542969 3.234375 -6.527344 L 3.054688 -6.527344 C 2.933594 -6.527344 2.84375 -6.542969 2.785156 -6.574219 L 2.769531 -6.589844 C 2.753906 -6.601562 2.726562 -6.648438 2.710938 -6.707031 C 2.679688 -6.753906 2.664062 -6.871094 2.664062 -7.039062 C 2.679688 -7.082031 2.679688 -7.15625 2.679688 -7.246094 C 2.695312 -7.292969 2.710938 -7.335938 2.710938 -7.382812 L 2.710938 -7.488281 C 2.710938 -7.832031 2.726562 -8.191406 2.753906 -8.535156 C 2.785156 -8.878906 2.800781 -9.222656 2.800781 -9.566406 L 2.800781 -9.71875 C 2.800781 -10.09375 2.90625 -10.347656 3.070312 -10.421875 C 3.21875 -10.480469 3.398438 -10.511719 3.59375 -10.511719 L 3.714844 -10.511719 C 3.742188 -10.496094 3.773438 -10.496094 3.804688 -10.496094 L 4.402344 -10.496094 C 4.820312 -10.496094 5.449219 -10.675781 5.449219 -11.214844 C 5.449219 -11.289062 5.433594 -11.363281 5.421875 -11.410156 C 5.269531 -12.082031 3.96875 -11.980469 3.21875 -11.980469 L 2.125 -11.980469 C 1.03125 -11.980469 0.71875 -11.542969 0.71875 -10.40625 L 0.71875 -10.195312 L 0.644531 -8.953125 C 0.613281 -8.414062 0.613281 -7.875 0.628906 -7.320312 C 0.644531 -6.769531 0.660156 -6.199219 0.644531 -5.628906 L 0.628906 -5.511719 C 0.613281 -4.957031 0.613281 -4.433594 0.597656 -3.921875 C 0.582031 -3.398438 0.613281 -2.90625 0.6875 -2.425781 C 0.734375 -1.992188 0.824219 -1.496094 1.019531 -1.078125 C 1.242188 -0.660156 1.542969 -0.359375 1.976562 -0.195312 L 1.992188 -0.195312 C 2.367188 -0.0742188 2.828125 -0.015625 3.355469 -0.015625 C 3.429688 0 3.503906 0 3.578125 0 Z M 3.578125 0 "/>
      </g>
    </g>
  </g>
  <g fill="#ffde59" fill-opacity="1" transform="matrix(1, 0, 0, 1, 15.814868208987534, 164.82695252935514)">
    <g transform="translate(229.473624, 34.598634)">
      <g>
        <path d="M 2.277344 0 C 2.558594 0 2.859375 -0.0429688 3.144531 -0.148438 C 5.496094 -0.988281 6.453125 -3.25 6.453125 -5.628906 C 6.453125 -6.589844 6.320312 -7.546875 6.019531 -8.445312 L 6.003906 -8.535156 L 6.003906 -8.550781 C 5.496094 -10.078125 4.175781 -11.800781 2.605469 -12.160156 C 2.199219 -12.234375 1.152344 -12.292969 0.851562 -11.800781 C 0.628906 -11.453125 0.597656 -11.050781 0.597656 -10.644531 L 0.613281 -10.527344 L 0.613281 -10.421875 C 0.613281 -9.644531 0.613281 -8.863281 0.628906 -8.070312 C 0.644531 -7.277344 0.644531 -6.5 0.644531 -5.703125 L 0.644531 -3.265625 C 0.644531 -3.160156 0.644531 -3.039062 0.628906 -2.933594 C 0.613281 -2.769531 0.613281 -2.621094 0.613281 -2.484375 L 0.613281 -1.660156 C 0.613281 -0.660156 1.257812 0 2.277344 0 Z M 2.738281 -2.425781 L 2.738281 -2.664062 C 2.738281 -3.203125 2.753906 -3.742188 2.769531 -4.265625 C 2.785156 -4.792969 2.785156 -5.332031 2.785156 -5.855469 L 2.785156 -7.023438 C 2.769531 -7.410156 2.769531 -7.800781 2.769531 -8.191406 L 2.769531 -8.640625 C 2.753906 -8.714844 2.753906 -8.773438 2.753906 -8.847656 L 2.753906 -9.117188 C 2.738281 -9.195312 2.738281 -9.285156 2.738281 -9.375 L 2.738281 -9.6875 C 2.738281 -9.777344 2.738281 -9.867188 2.753906 -9.957031 C 2.769531 -10.183594 2.816406 -10.421875 2.980469 -10.464844 L 3.007812 -10.464844 C 3.039062 -10.464844 3.113281 -10.4375 3.234375 -10.375 C 3.355469 -10.316406 3.546875 -10.152344 3.804688 -9.867188 C 4.703125 -8.667969 5.121094 -7.21875 5.121094 -5.71875 C 5.121094 -4.164062 4.730469 -2.679688 3.472656 -1.8125 C 3.25 -1.675781 3.175781 -1.632812 2.933594 -1.632812 L 2.933594 -1.648438 C 2.859375 -1.691406 2.800781 -1.8125 2.769531 -1.976562 C 2.753906 -2.109375 2.738281 -2.261719 2.738281 -2.425781 Z M 2.738281 -2.425781 "/>
      </g>
    </g>
  </g>
  <g fill="#ffde59" fill-opacity="1" transform="matrix(1, 0, 0, 1, 15.814868208987534, 164.82695252935514)">
    <g transform="translate(236.526184, 34.598634)">
      <g>
        <path d="M 1.570312 0 L 1.75 0 C 2.066406 0 2.289062 -0.0898438 2.457031 -0.285156 C 2.621094 -0.539062 2.800781 -1.257812 2.800781 -1.886719 L 2.800781 -3.847656 C 2.785156 -4.492188 2.785156 -5.121094 2.785156 -5.765625 L 2.785156 -7.996094 C 2.769531 -8.339844 2.769531 -8.683594 2.769531 -9.027344 L 2.800781 -9.898438 L 2.800781 -10.136719 C 2.753906 -10.675781 2.816406 -11.050781 2.457031 -11.515625 C 2.289062 -11.710938 2.066406 -11.800781 1.75 -11.800781 L 1.570312 -11.800781 C 0.808594 -11.800781 0.597656 -10.855469 0.597656 -10.273438 L 0.597656 -8.925781 C 0.597656 -8.820312 0.597656 -8.714844 0.613281 -8.609375 L 0.613281 -8.519531 C 0.628906 -8.234375 0.628906 -7.9375 0.628906 -7.652344 L 0.628906 -6.289062 C 0.628906 -6.125 0.628906 -5.945312 0.644531 -5.765625 L 0.644531 -5.644531 C 0.644531 -5.421875 0.644531 -5.210938 0.660156 -4.984375 L 0.660156 -3.652344 C 0.660156 -3.429688 0.660156 -3.203125 0.644531 -2.980469 L 0.644531 -2.769531 C 0.644531 -2.695312 0.644531 -2.605469 0.628906 -2.53125 C 0.613281 -2.277344 0.597656 -2.035156 0.597656 -1.78125 L 0.597656 -1.527344 C 0.597656 -0.929688 0.867188 0 1.570312 0 Z M 1.570312 0 "/>
      </g>
    </g>
  </g>
  <g fill="#ffde59" fill-opacity="1" transform="matrix(1, 0, 0, 1, 15.814868208987534, 164.82695252935514)">
    <g transform="translate(258.780674, 34.598634)">
      <g>
        <path d="M 2.949219 0 C 3.59375 -0.015625 4.117188 -0.253906 4.550781 -0.71875 L 4.550781 -0.734375 C 5.734375 -2.082031 5.734375 -4.175781 5.78125 -5.75 C 5.792969 -7.367188 5.703125 -8.894531 5.523438 -10.453125 C 5.480469 -10.855469 5.390625 -11.183594 5.253906 -11.425781 C 5.089844 -11.679688 4.867188 -11.828125 4.613281 -11.859375 C 4.535156 -11.902344 4.433594 -11.917969 4.328125 -11.917969 C 4.28125 -11.917969 4.175781 -11.917969 4.042969 -11.902344 L 3.457031 -11.84375 C 2.84375 -11.800781 2.710938 -11.859375 2.066406 -11.785156 C 1.707031 -11.738281 1.511719 -11.5 1.511719 -11.214844 L 1.511719 -10.976562 C 1.542969 -10.707031 1.617188 -10.511719 1.722656 -10.40625 C 1.828125 -10.300781 1.917969 -10.242188 2.007812 -10.242188 C 2.441406 -10.242188 2.875 -10.273438 3.292969 -10.332031 C 3.308594 -10.183594 3.339844 -10.03125 3.382812 -9.882812 C 3.488281 -9.296875 3.535156 -8.398438 3.578125 -7.023438 C 3.59375 -6.828125 3.59375 -6.648438 3.59375 -6.484375 C 3.578125 -6.304688 3.578125 -6.125 3.578125 -5.929688 C 3.535156 -4.6875 3.609375 -3.160156 2.917969 -1.828125 C 2.800781 -1.648438 2.679688 -1.558594 2.558594 -1.558594 C 2.335938 -1.558594 2.15625 -1.855469 2.035156 -2.277344 C 2.019531 -2.351562 2.007812 -2.441406 2.007812 -2.546875 C 1.992188 -2.636719 1.992188 -2.738281 1.976562 -2.84375 C 1.960938 -3.324219 1.929688 -3.863281 1.511719 -4.101562 C 1.421875 -4.164062 1.332031 -4.191406 1.242188 -4.191406 C 0.957031 -4.191406 0.792969 -3.953125 0.71875 -3.757812 C 0.644531 -3.59375 0.597656 -3.398438 0.597656 -3.144531 C 0.582031 -2.800781 0.644531 -2.425781 0.75 -1.945312 C 0.882812 -1.453125 1.09375 -1.019531 1.363281 -0.671875 L 1.363281 -0.660156 C 1.78125 -0.222656 2.304688 0 2.949219 0 Z M 2.949219 0 "/>
      </g>
    </g>
  </g>
  <g fill="#ffde59" fill-opacity="1" transform="matrix(1, 0, 0, 1, 15.814868208987534, 164.82695252935514)">
    <g transform="translate(265.159416, 34.598634)">
      <g>
        <path d="M 3.578125 0 L 3.789062 0 C 4.148438 0 4.460938 -0.015625 4.746094 -0.03125 C 5.269531 -0.0742188 5.75 -0.285156 5.75 -0.808594 C 5.75 -1.0625 5.523438 -1.511719 5 -1.511719 L 4.984375 -1.511719 L 4.566406 -1.480469 C 4.492188 -1.46875 4.402344 -1.46875 4.328125 -1.46875 L 3.832031 -1.46875 C 3.757812 -1.46875 3.667969 -1.46875 3.59375 -1.480469 C 3.128906 -1.585938 2.859375 -1.976562 2.769531 -2.648438 L 2.769531 -2.726562 C 2.753906 -2.738281 2.753906 -2.769531 2.753906 -2.785156 C 2.605469 -3.804688 2.621094 -4.355469 2.621094 -4.445312 L 2.636719 -4.867188 C 2.648438 -5.152344 2.949219 -5.152344 3.234375 -5.152344 L 3.9375 -5.152344 C 3.996094 -5.136719 4.058594 -5.136719 4.101562 -5.136719 L 4.371094 -5.136719 C 4.792969 -5.136719 5.074219 -5.449219 5.074219 -5.855469 C 5.074219 -6.0625 5 -6.242188 4.851562 -6.394531 L 4.835938 -6.410156 C 4.703125 -6.542969 4.492188 -6.558594 4.3125 -6.558594 L 3.457031 -6.558594 C 3.382812 -6.558594 3.308594 -6.542969 3.234375 -6.527344 L 3.054688 -6.527344 C 2.933594 -6.527344 2.84375 -6.542969 2.785156 -6.574219 L 2.769531 -6.589844 C 2.753906 -6.601562 2.726562 -6.648438 2.710938 -6.707031 C 2.679688 -6.753906 2.664062 -6.871094 2.664062 -7.039062 C 2.679688 -7.082031 2.679688 -7.15625 2.679688 -7.246094 C 2.695312 -7.292969 2.710938 -7.335938 2.710938 -7.382812 L 2.710938 -7.488281 C 2.710938 -7.832031 2.726562 -8.191406 2.753906 -8.535156 C 2.785156 -8.878906 2.800781 -9.222656 2.800781 -9.566406 L 2.800781 -9.71875 C 2.800781 -10.09375 2.90625 -10.347656 3.070312 -10.421875 C 3.21875 -10.480469 3.398438 -10.511719 3.59375 -10.511719 L 3.714844 -10.511719 C 3.742188 -10.496094 3.773438 -10.496094 3.804688 -10.496094 L 4.402344 -10.496094 C 4.820312 -10.496094 5.449219 -10.675781 5.449219 -11.214844 C 5.449219 -11.289062 5.433594 -11.363281 5.421875 -11.410156 C 5.269531 -12.082031 3.96875 -11.980469 3.21875 -11.980469 L 2.125 -11.980469 C 1.03125 -11.980469 0.71875 -11.542969 0.71875 -10.40625 L 0.71875 -10.195312 L 0.644531 -8.953125 C 0.613281 -8.414062 0.613281 -7.875 0.628906 -7.320312 C 0.644531 -6.769531 0.660156 -6.199219 0.644531 -5.628906 L 0.628906 -5.511719 C 0.613281 -4.957031 0.613281 -4.433594 0.597656 -3.921875 C 0.582031 -3.398438 0.613281 -2.90625 0.6875 -2.425781 C 0.734375 -1.992188 0.824219 -1.496094 1.019531 -1.078125 C 1.242188 -0.660156 1.542969 -0.359375 1.976562 -0.195312 L 1.992188 -0.195312 C 2.367188 -0.0742188 2.828125 -0.015625 3.355469 -0.015625 C 3.429688 0 3.503906 0 3.578125 0 Z M 3.578125 0 "/>
      </g>
    </g>
  </g>
  <g fill="#ffde59" fill-opacity="1" transform="matrix(1, 0, 0, 1, 15.814868208987534, 164.82695252935514)">
    <g transform="translate(271.508215, 34.598634)">
      <g>
        <path d="M 3.21875 0.238281 C 3.398438 0.238281 3.5625 0.210938 3.714844 0.164062 C 4.941406 -0.210938 5.644531 -1.332031 5.972656 -2.710938 C 6.320312 -4.101562 6.347656 -5.585938 6.347656 -6.722656 L 6.347656 -7.367188 C 6.347656 -7.652344 6.347656 -7.9375 6.332031 -8.207031 C 6.320312 -8.476562 6.320312 -8.730469 6.320312 -8.984375 L 6.320312 -9.597656 C 6.304688 -9.792969 6.304688 -10.003906 6.304688 -10.195312 L 6.304688 -10.839844 C 6.304688 -10.902344 6.304688 -10.960938 6.289062 -11.035156 C 6.257812 -11.8125 5.914062 -11.980469 5.613281 -11.980469 L 5.601562 -11.980469 C 5.195312 -11.980469 4.972656 -11.8125 4.910156 -11.5 C 4.851562 -11.273438 4.820312 -11.082031 4.820312 -10.914062 L 4.820312 -10.796875 C 4.820312 -10.527344 4.820312 -10.257812 4.835938 -9.972656 L 4.835938 -9.117188 C 4.835938 -7.726562 4.820312 -6.320312 4.792969 -4.910156 C 4.746094 -4.117188 4.6875 -3.382812 4.523438 -2.484375 C 4.460938 -2.140625 4.296875 -1.945312 4.132812 -1.78125 C 4.042969 -1.691406 3.9375 -1.617188 3.832031 -1.558594 L 3.816406 -1.558594 C 3.234375 -1.558594 3.054688 -2.890625 2.859375 -4.894531 C 2.84375 -4.957031 2.84375 -5.015625 2.84375 -5.074219 L 2.84375 -5.242188 C 2.828125 -5.78125 2.816406 -6.257812 2.816406 -6.617188 L 2.816406 -6.960938 C 2.800781 -7.066406 2.800781 -7.15625 2.800781 -7.246094 L 2.800781 -9.105469 C 2.800781 -9.148438 2.800781 -9.207031 2.816406 -9.285156 L 2.816406 -9.507812 C 2.816406 -9.613281 2.828125 -9.71875 2.84375 -9.824219 C 2.859375 -9.925781 2.859375 -10.046875 2.859375 -10.152344 L 2.859375 -10.496094 C 2.859375 -11.183594 2.558594 -11.980469 1.765625 -11.980469 L 1.75 -11.980469 C 1.316406 -11.980469 1.003906 -11.800781 0.824219 -11.453125 L 0.824219 -11.441406 C 0.703125 -11.125 0.628906 -10.824219 0.628906 -10.480469 L 0.628906 -9.65625 C 0.628906 -9.402344 0.628906 -9.164062 0.613281 -8.910156 C 0.597656 -8.65625 0.597656 -8.386719 0.597656 -8.128906 C 0.597656 -6.976562 0.628906 -5.570312 0.851562 -3.921875 C 1.0625 -2.378906 1.46875 -0.941406 2.1875 -0.222656 C 2.457031 0.0898438 2.800781 0.238281 3.21875 0.238281 Z M 3.21875 0.238281 "/>
      </g>
    </g>
  </g>
  <g fill="#ffde59" fill-opacity="1" transform="matrix(1, 0, 0, 1, 15.814868208987534, 164.82695252935514)">
    <g transform="translate(278.45596, 34.598634)">
      <g>
        <path d="M 2.277344 0 C 2.558594 0 2.859375 -0.0429688 3.144531 -0.148438 C 5.496094 -0.988281 6.453125 -3.25 6.453125 -5.628906 C 6.453125 -6.589844 6.320312 -7.546875 6.019531 -8.445312 L 6.003906 -8.535156 L 6.003906 -8.550781 C 5.496094 -10.078125 4.175781 -11.800781 2.605469 -12.160156 C 2.199219 -12.234375 1.152344 -12.292969 0.851562 -11.800781 C 0.628906 -11.453125 0.597656 -11.050781 0.597656 -10.644531 L 0.613281 -10.527344 L 0.613281 -10.421875 C 0.613281 -9.644531 0.613281 -8.863281 0.628906 -8.070312 C 0.644531 -7.277344 0.644531 -6.5 0.644531 -5.703125 L 0.644531 -3.265625 C 0.644531 -3.160156 0.644531 -3.039062 0.628906 -2.933594 C 0.613281 -2.769531 0.613281 -2.621094 0.613281 -2.484375 L 0.613281 -1.660156 C 0.613281 -0.660156 1.257812 0 2.277344 0 Z M 2.738281 -2.425781 L 2.738281 -2.664062 C 2.738281 -3.203125 2.753906 -3.742188 2.769531 -4.265625 C 2.785156 -4.792969 2.785156 -5.332031 2.785156 -5.855469 L 2.785156 -7.023438 C 2.769531 -7.410156 2.769531 -7.800781 2.769531 -8.191406 L 2.769531 -8.640625 C 2.753906 -8.714844 2.753906 -8.773438 2.753906 -8.847656 L 2.753906 -9.117188 C 2.738281 -9.195312 2.738281 -9.285156 2.738281 -9.375 L 2.738281 -9.6875 C 2.738281 -9.777344 2.738281 -9.867188 2.753906 -9.957031 C 2.769531 -10.183594 2.816406 -10.421875 2.980469 -10.464844 L 3.007812 -10.464844 C 3.039062 -10.464844 3.113281 -10.4375 3.234375 -10.375 C 3.355469 -10.316406 3.546875 -10.152344 3.804688 -9.867188 C 4.703125 -8.667969 5.121094 -7.21875 5.121094 -5.71875 C 5.121094 -4.164062 4.730469 -2.679688 3.472656 -1.8125 C 3.25 -1.675781 3.175781 -1.632812 2.933594 -1.632812 L 2.933594 -1.648438 C 2.859375 -1.691406 2.800781 -1.8125 2.769531 -1.976562 C 2.753906 -2.109375 2.738281 -2.261719 2.738281 -2.425781 Z M 2.738281 -2.425781 "/>
      </g>
    </g>
  </g>
  <g fill="#ffde59" fill-opacity="1" transform="matrix(1, 0, 0, 1, 15.814868208987534, 164.82695252935514)">
    <g transform="translate(285.50852, 34.598634)">
      <g>
        <path d="M 1.570312 0 L 1.75 0 C 2.066406 0 2.289062 -0.0898438 2.457031 -0.285156 C 2.621094 -0.539062 2.800781 -1.257812 2.800781 -1.886719 L 2.800781 -3.847656 C 2.785156 -4.492188 2.785156 -5.121094 2.785156 -5.765625 L 2.785156 -7.996094 C 2.769531 -8.339844 2.769531 -8.683594 2.769531 -9.027344 L 2.800781 -9.898438 L 2.800781 -10.136719 C 2.753906 -10.675781 2.816406 -11.050781 2.457031 -11.515625 C 2.289062 -11.710938 2.066406 -11.800781 1.75 -11.800781 L 1.570312 -11.800781 C 0.808594 -11.800781 0.597656 -10.855469 0.597656 -10.273438 L 0.597656 -8.925781 C 0.597656 -8.820312 0.597656 -8.714844 0.613281 -8.609375 L 0.613281 -8.519531 C 0.628906 -8.234375 0.628906 -7.9375 0.628906 -7.652344 L 0.628906 -6.289062 C 0.628906 -6.125 0.628906 -5.945312 0.644531 -5.765625 L 0.644531 -5.644531 C 0.644531 -5.421875 0.644531 -5.210938 0.660156 -4.984375 L 0.660156 -3.652344 C 0.660156 -3.429688 0.660156 -3.203125 0.644531 -2.980469 L 0.644531 -2.769531 C 0.644531 -2.695312 0.644531 -2.605469 0.628906 -2.53125 C 0.613281 -2.277344 0.597656 -2.035156 0.597656 -1.78125 L 0.597656 -1.527344 C 0.597656 -0.929688 0.867188 0 1.570312 0 Z M 1.570312 0 "/>
      </g>
    </g>
  </g>
  <g fill="#ffde59" fill-opacity="1" transform="matrix(1, 0, 0, 1, 15.814868208987534, 164.82695252935514)">
    <g transform="translate(309.678249, 34.598634)">
      <g>
        <path d="M 3.953125 0 C 4.175781 0 4.417969 -0.0742188 4.703125 -0.210938 C 5.40625 -0.660156 5.660156 -1.617188 5.824219 -2.367188 C 5.839844 -2.378906 5.839844 -2.410156 5.839844 -2.457031 C 6.125 -3.519531 6.320312 -4.6875 6.542969 -6.109375 C 6.632812 -6.769531 6.707031 -7.441406 6.78125 -8.117188 C 6.859375 -8.789062 6.917969 -9.417969 6.976562 -9.988281 L 6.976562 -10.046875 L 6.992188 -10.136719 L 6.992188 -10.195312 C 6.992188 -10.273438 6.992188 -10.347656 7.007812 -10.390625 C 7.023438 -10.40625 7.023438 -10.453125 7.023438 -10.496094 L 7.023438 -10.527344 L 7.039062 -10.570312 C 7.066406 -10.75 7.082031 -10.914062 7.082031 -11.082031 L 7.082031 -11.304688 C 7.066406 -11.589844 6.902344 -11.800781 6.617188 -11.902344 C 6.542969 -11.917969 6.46875 -11.933594 6.421875 -11.933594 C 6.199219 -11.933594 6.035156 -11.828125 5.929688 -11.632812 C 5.792969 -11.441406 5.71875 -11.230469 5.703125 -11.003906 L 5.660156 -10.347656 C 5.644531 -10.136719 5.613281 -9.914062 5.601562 -9.6875 L 5.601562 -9.628906 C 5.285156 -6.320312 4.894531 -4.253906 4.613281 -3.039062 L 4.582031 -2.933594 C 4.582031 -2.917969 4.582031 -2.890625 4.566406 -2.859375 C 4.550781 -2.828125 4.550781 -2.800781 4.550781 -2.769531 C 4.492188 -2.515625 4.433594 -2.320312 4.386719 -2.1875 C 4.386719 -2.171875 4.386719 -2.15625 4.371094 -2.140625 C 4.355469 -2.1875 4.328125 -2.246094 4.3125 -2.320312 L 4.191406 -2.648438 C 3.683594 -4.65625 3.265625 -7.308594 3.023438 -9.433594 L 2.980469 -9.761719 L 2.933594 -10.195312 C 2.917969 -10.363281 2.890625 -10.542969 2.84375 -10.707031 C 2.679688 -11.335938 2.394531 -11.949219 1.632812 -11.949219 L 1.601562 -11.949219 C 1.046875 -11.902344 0.808594 -11.695312 0.703125 -11.515625 C 0.628906 -11.378906 0.597656 -11.199219 0.597656 -10.976562 C 0.597656 -10.855469 0.613281 -10.722656 0.628906 -10.554688 L 0.628906 -10.542969 C 0.734375 -9.957031 0.824219 -9.386719 0.898438 -8.804688 C 1.078125 -7.53125 1.273438 -6.09375 1.421875 -5.164062 L 1.421875 -5.152344 C 1.660156 -3.832031 2.109375 -2.066406 2.589844 -0.972656 C 2.785156 -0.539062 3.085938 -0.253906 3.457031 -0.105469 C 3.609375 -0.03125 3.773438 0 3.953125 0 Z M 3.953125 0 "/>
      </g>
    </g>
  </g>
  <g fill="#ffde59" fill-opacity="1" transform="matrix(1, 0, 0, 1, 15.814868208987534, 164.82695252935514)">
    <g transform="translate(317.359697, 34.598634)">
      <g>
        <path d="M 3.578125 0 L 3.789062 0 C 4.148438 0 4.460938 -0.015625 4.746094 -0.03125 C 5.269531 -0.0742188 5.75 -0.285156 5.75 -0.808594 C 5.75 -1.0625 5.523438 -1.511719 5 -1.511719 L 4.984375 -1.511719 L 4.566406 -1.480469 C 4.492188 -1.46875 4.402344 -1.46875 4.328125 -1.46875 L 3.832031 -1.46875 C 3.757812 -1.46875 3.667969 -1.46875 3.59375 -1.480469 C 3.128906 -1.585938 2.859375 -1.976562 2.769531 -2.648438 L 2.769531 -2.726562 C 2.753906 -2.738281 2.753906 -2.769531 2.753906 -2.785156 C 2.605469 -3.804688 2.621094 -4.355469 2.621094 -4.445312 L 2.636719 -4.867188 C 2.648438 -5.152344 2.949219 -5.152344 3.234375 -5.152344 L 3.9375 -5.152344 C 3.996094 -5.136719 4.058594 -5.136719 4.101562 -5.136719 L 4.371094 -5.136719 C 4.792969 -5.136719 5.074219 -5.449219 5.074219 -5.855469 C 5.074219 -6.0625 5 -6.242188 4.851562 -6.394531 L 4.835938 -6.410156 C 4.703125 -6.542969 4.492188 -6.558594 4.3125 -6.558594 L 3.457031 -6.558594 C 3.382812 -6.558594 3.308594 -6.542969 3.234375 -6.527344 L 3.054688 -6.527344 C 2.933594 -6.527344 2.84375 -6.542969 2.785156 -6.574219 L 2.769531 -6.589844 C 2.753906 -6.601562 2.726562 -6.648438 2.710938 -6.707031 C 2.679688 -6.753906 2.664062 -6.871094 2.664062 -7.039062 C 2.679688 -7.082031 2.679688 -7.15625 2.679688 -7.246094 C 2.695312 -7.292969 2.710938 -7.335938 2.710938 -7.382812 L 2.710938 -7.488281 C 2.710938 -7.832031 2.726562 -8.191406 2.753906 -8.535156 C 2.785156 -8.878906 2.800781 -9.222656 2.800781 -9.566406 L 2.800781 -9.71875 C 2.800781 -10.09375 2.90625 -10.347656 3.070312 -10.421875 C 3.21875 -10.480469 3.398438 -10.511719 3.59375 -10.511719 L 3.714844 -10.511719 C 3.742188 -10.496094 3.773438 -10.496094 3.804688 -10.496094 L 4.402344 -10.496094 C 4.820312 -10.496094 5.449219 -10.675781 5.449219 -11.214844 C 5.449219 -11.289062 5.433594 -11.363281 5.421875 -11.410156 C 5.269531 -12.082031 3.96875 -11.980469 3.21875 -11.980469 L 2.125 -11.980469 C 1.03125 -11.980469 0.71875 -11.542969 0.71875 -10.40625 L 0.71875 -10.195312 L 0.644531 -8.953125 C 0.613281 -8.414062 0.613281 -7.875 0.628906 -7.320312 C 0.644531 -6.769531 0.660156 -6.199219 0.644531 -5.628906 L 0.628906 -5.511719 C 0.613281 -4.957031 0.613281 -4.433594 0.597656 -3.921875 C 0.582031 -3.398438 0.613281 -2.90625 0.6875 -2.425781 C 0.734375 -1.992188 0.824219 -1.496094 1.019531 -1.078125 C 1.242188 -0.660156 1.542969 -0.359375 1.976562 -0.195312 L 1.992188 -0.195312 C 2.367188 -0.0742188 2.828125 -0.015625 3.355469 -0.015625 C 3.429688 0 3.503906 0 3.578125 0 Z M 3.578125 0 "/>
      </g>
    </g>
  </g>
  <g fill="#ffde59" fill-opacity="1" transform="matrix(1, 0, 0, 1, 15.814868208987534, 164.82695252935514)">
    <g transform="translate(323.708496, 34.598634)">
      <g>
        <path d="M 1.585938 0 L 1.601562 0 C 2.636719 0 2.816406 -0.75 2.816406 -1.558594 L 2.816406 -1.707031 C 2.816406 -1.75 2.816406 -1.8125 2.800781 -1.855469 C 2.753906 -3.039062 2.726562 -5.449219 2.726562 -6.828125 L 2.726562 -7.398438 C 3.160156 -6.289062 3.265625 -5.945312 3.773438 -4.6875 C 3.996094 -4.175781 4.238281 -3.5625 4.492188 -2.859375 L 4.492188 -2.84375 L 4.535156 -2.753906 C 4.535156 -2.738281 4.535156 -2.738281 4.550781 -2.726562 L 5.226562 -0.703125 C 5.40625 -0.148438 5.585938 0.105469 6.304688 0 L 6.589844 0 C 6.992188 0 7.039062 -0.597656 7.097656 -0.851562 C 7.140625 -1.046875 7.171875 -1.257812 7.171875 -1.480469 C 7.15625 -1.691406 7.15625 -1.917969 7.171875 -2.140625 C 7.203125 -2.859375 7.21875 -3.652344 7.21875 -4.523438 L 7.21875 -5.332031 C 7.21875 -6.273438 7.15625 -7.320312 7.097656 -8.339844 C 7.097656 -8.59375 7.082031 -8.863281 7.066406 -9.117188 C 7.066406 -9.34375 7.039062 -9.65625 7.039062 -10.332031 L 7.039062 -10.722656 C 7.039062 -11.273438 7.023438 -11.992188 6.363281 -11.992188 C 5.644531 -11.992188 5.464844 -11.632812 5.449219 -11.289062 C 5.433594 -11.246094 5.433594 -11.15625 5.433594 -11.050781 C 5.433594 -11.019531 5.433594 -10.992188 5.449219 -10.960938 L 5.449219 -10.796875 C 5.449219 -9.851562 5.691406 -8.535156 5.691406 -7.546875 L 5.691406 -7.53125 C 5.691406 -6.527344 5.675781 -6.050781 5.675781 -4.582031 L 5.675781 -4.523438 C 5.675781 -4.445312 5.675781 -4.328125 5.691406 -4.175781 C 5.691406 -4.027344 5.691406 -3.90625 5.675781 -3.832031 C 4.746094 -6.257812 3.878906 -8.820312 3.578125 -9.433594 L 3.472656 -9.671875 C 3.457031 -9.734375 3.429688 -9.792969 3.414062 -9.867188 C 3.382812 -9.941406 3.355469 -10.015625 3.339844 -10.09375 L 3.292969 -10.183594 C 2.996094 -11.035156 2.636719 -11.890625 1.691406 -11.933594 C 0.792969 -11.933594 0.597656 -11.15625 0.597656 -10.347656 L 0.597656 -9.105469 L 0.613281 -7.308594 C 0.613281 -6.320312 0.644531 -4.984375 0.644531 -3.953125 L 0.644531 -3.054688 C 0.644531 -2.738281 0.644531 -2.441406 0.628906 -2.15625 C 0.613281 -2.109375 0.613281 -2.066406 0.613281 -2.019531 L 0.613281 -1.871094 C 0.597656 -1.8125 0.597656 -1.75 0.597656 -1.691406 L 0.597656 -1.480469 C 0.597656 -0.761719 0.761719 0 1.585938 0 Z M 1.585938 0 "/>
      </g>
    </g>
  </g>
  <g fill="#ffde59" fill-opacity="1" transform="matrix(1, 0, 0, 1, 15.814868208987534, 164.82695252935514)">
    <g transform="translate(331.524701, 34.598634)">
      <g>
        <path d="M 2.277344 0 C 2.558594 0 2.859375 -0.0429688 3.144531 -0.148438 C 5.496094 -0.988281 6.453125 -3.25 6.453125 -5.628906 C 6.453125 -6.589844 6.320312 -7.546875 6.019531 -8.445312 L 6.003906 -8.535156 L 6.003906 -8.550781 C 5.496094 -10.078125 4.175781 -11.800781 2.605469 -12.160156 C 2.199219 -12.234375 1.152344 -12.292969 0.851562 -11.800781 C 0.628906 -11.453125 0.597656 -11.050781 0.597656 -10.644531 L 0.613281 -10.527344 L 0.613281 -10.421875 C 0.613281 -9.644531 0.613281 -8.863281 0.628906 -8.070312 C 0.644531 -7.277344 0.644531 -6.5 0.644531 -5.703125 L 0.644531 -3.265625 C 0.644531 -3.160156 0.644531 -3.039062 0.628906 -2.933594 C 0.613281 -2.769531 0.613281 -2.621094 0.613281 -2.484375 L 0.613281 -1.660156 C 0.613281 -0.660156 1.257812 0 2.277344 0 Z M 2.738281 -2.425781 L 2.738281 -2.664062 C 2.738281 -3.203125 2.753906 -3.742188 2.769531 -4.265625 C 2.785156 -4.792969 2.785156 -5.332031 2.785156 -5.855469 L 2.785156 -7.023438 C 2.769531 -7.410156 2.769531 -7.800781 2.769531 -8.191406 L 2.769531 -8.640625 C 2.753906 -8.714844 2.753906 -8.773438 2.753906 -8.847656 L 2.753906 -9.117188 C 2.738281 -9.195312 2.738281 -9.285156 2.738281 -9.375 L 2.738281 -9.6875 C 2.738281 -9.777344 2.738281 -9.867188 2.753906 -9.957031 C 2.769531 -10.183594 2.816406 -10.421875 2.980469 -10.464844 L 3.007812 -10.464844 C 3.039062 -10.464844 3.113281 -10.4375 3.234375 -10.375 C 3.355469 -10.316406 3.546875 -10.152344 3.804688 -9.867188 C 4.703125 -8.667969 5.121094 -7.21875 5.121094 -5.71875 C 5.121094 -4.164062 4.730469 -2.679688 3.472656 -1.8125 C 3.25 -1.675781 3.175781 -1.632812 2.933594 -1.632812 L 2.933594 -1.648438 C 2.859375 -1.691406 2.800781 -1.8125 2.769531 -1.976562 C 2.753906 -2.109375 2.738281 -2.261719 2.738281 -2.425781 Z M 2.738281 -2.425781 "/>
      </g>
    </g>
  </g>
  <g fill="#ffde59" fill-opacity="1" transform="matrix(1, 0, 0, 1, 15.814868208987534, 164.82695252935514)">
    <g transform="translate(338.57726, 34.598634)">
      <g>
        <path d="M 1.570312 0 L 1.75 0 C 2.066406 0 2.289062 -0.0898438 2.457031 -0.285156 C 2.621094 -0.539062 2.800781 -1.257812 2.800781 -1.886719 L 2.800781 -3.804688 L 2.785156 -4.074219 L 2.785156 -4.191406 L 2.917969 -4.222656 L 3.382812 -2.980469 C 3.609375 -2.335938 3.742188 -1.871094 4.027344 -1.316406 C 4.328125 -0.71875 4.65625 -0.328125 5 -0.164062 C 5.195312 -0.0898438 5.449219 -0.015625 5.734375 -0.015625 C 5.960938 -0.015625 6.167969 -0.0585938 6.394531 -0.195312 L 6.46875 -0.253906 C 6.664062 -0.359375 6.933594 -0.523438 6.753906 -0.957031 C 6.679688 -1.183594 6.601562 -1.316406 6.527344 -1.347656 C 6.453125 -1.363281 6.378906 -1.363281 6.304688 -1.347656 C 6.078125 -1.242188 5.945312 -1.4375 5.78125 -1.660156 C 5.660156 -1.828125 5.570312 -2.019531 5.464844 -2.246094 C 5.390625 -2.46875 5.332031 -2.648438 5.285156 -2.828125 C 5.242188 -3.007812 5.089844 -3.488281 4.957031 -3.894531 C 4.941406 -3.96875 4.910156 -4.042969 4.882812 -4.101562 C 4.835938 -4.164062 4.804688 -4.238281 4.792969 -4.3125 L 4.582031 -4.957031 C 5.316406 -5.421875 5.882812 -5.988281 6.230469 -6.589844 L 6.242188 -6.648438 C 6.5 -7.113281 6.617188 -7.621094 6.679688 -8.175781 C 6.691406 -8.21875 6.691406 -8.28125 6.691406 -8.324219 L 6.691406 -8.476562 C 6.691406 -10.722656 4.417969 -12.097656 2.351562 -12.097656 C 2.019531 -12.097656 1.738281 -12.070312 1.496094 -11.992188 C 1.078125 -11.828125 0.628906 -11.53125 0.628906 -11.035156 L 0.628906 -10.632812 C 0.628906 -10.570312 0.628906 -10.511719 0.613281 -10.453125 C 0.597656 -10.390625 0.597656 -10.316406 0.597656 -10.242188 L 0.597656 -9.207031 C 0.597656 -9.105469 0.597656 -9 0.613281 -8.894531 L 0.613281 -8.488281 C 0.613281 -8.207031 0.613281 -7.90625 0.628906 -7.621094 L 0.628906 -6.753906 C 0.628906 -6.601562 0.628906 -6.4375 0.644531 -6.273438 L 0.644531 -5.628906 C 0.644531 -5.40625 0.644531 -5.195312 0.660156 -4.972656 L 0.660156 -3.636719 C 0.660156 -3.414062 0.660156 -3.1875 0.644531 -2.964844 L 0.644531 -2.769531 C 0.644531 -2.695312 0.644531 -2.605469 0.628906 -2.515625 C 0.613281 -2.277344 0.597656 -2.019531 0.597656 -1.78125 L 0.597656 -1.511719 C 0.597656 -0.929688 0.867188 0 1.570312 0 Z M 2.769531 -7.578125 L 2.785156 -8.308594 C 2.785156 -8.414062 2.785156 -8.535156 2.769531 -8.65625 C 2.753906 -8.757812 2.753906 -8.878906 2.769531 -8.984375 L 2.769531 -9 L 2.800781 -9.867188 L 2.800781 -10.105469 L 2.785156 -10.40625 C 2.800781 -10.453125 2.84375 -10.496094 2.933594 -10.542969 C 2.949219 -10.542969 2.964844 -10.542969 2.964844 -10.554688 L 2.980469 -10.554688 C 3.113281 -10.554688 3.234375 -10.527344 3.457031 -10.464844 C 4.417969 -10.105469 4.984375 -9.449219 5.089844 -8.65625 L 5.089844 -8.371094 C 5.089844 -7.457031 4.535156 -6.664062 3.773438 -6.167969 C 3.519531 -6.019531 3.324219 -5.929688 3.21875 -5.898438 C 3.097656 -5.871094 3.023438 -5.855469 2.996094 -5.855469 L 2.980469 -5.855469 C 2.890625 -5.855469 2.828125 -5.898438 2.785156 -6.003906 L 2.785156 -7.261719 C 2.769531 -7.367188 2.769531 -7.472656 2.769531 -7.578125 Z M 2.769531 -7.578125 "/>
      </g>
    </g>
  </g>
  <g fill="#ffde59" fill-opacity="1" transform="matrix(1, 0, 0, 1, 15.814868208987534, 164.82695252935514)">
    <g transform="translate(345.989183, 34.598634)">
      <g>
        <path d="M 3.578125 0 L 3.789062 0 C 4.148438 0 4.460938 -0.015625 4.746094 -0.03125 C 5.269531 -0.0742188 5.75 -0.285156 5.75 -0.808594 C 5.75 -1.0625 5.523438 -1.511719 5 -1.511719 L 4.984375 -1.511719 L 4.566406 -1.480469 C 4.492188 -1.46875 4.402344 -1.46875 4.328125 -1.46875 L 3.832031 -1.46875 C 3.757812 -1.46875 3.667969 -1.46875 3.59375 -1.480469 C 3.128906 -1.585938 2.859375 -1.976562 2.769531 -2.648438 L 2.769531 -2.726562 C 2.753906 -2.738281 2.753906 -2.769531 2.753906 -2.785156 C 2.605469 -3.804688 2.621094 -4.355469 2.621094 -4.445312 L 2.636719 -4.867188 C 2.648438 -5.152344 2.949219 -5.152344 3.234375 -5.152344 L 3.9375 -5.152344 C 3.996094 -5.136719 4.058594 -5.136719 4.101562 -5.136719 L 4.371094 -5.136719 C 4.792969 -5.136719 5.074219 -5.449219 5.074219 -5.855469 C 5.074219 -6.0625 5 -6.242188 4.851562 -6.394531 L 4.835938 -6.410156 C 4.703125 -6.542969 4.492188 -6.558594 4.3125 -6.558594 L 3.457031 -6.558594 C 3.382812 -6.558594 3.308594 -6.542969 3.234375 -6.527344 L 3.054688 -6.527344 C 2.933594 -6.527344 2.84375 -6.542969 2.785156 -6.574219 L 2.769531 -6.589844 C 2.753906 -6.601562 2.726562 -6.648438 2.710938 -6.707031 C 2.679688 -6.753906 2.664062 -6.871094 2.664062 -7.039062 C 2.679688 -7.082031 2.679688 -7.15625 2.679688 -7.246094 C 2.695312 -7.292969 2.710938 -7.335938 2.710938 -7.382812 L 2.710938 -7.488281 C 2.710938 -7.832031 2.726562 -8.191406 2.753906 -8.535156 C 2.785156 -8.878906 2.800781 -9.222656 2.800781 -9.566406 L 2.800781 -9.71875 C 2.800781 -10.09375 2.90625 -10.347656 3.070312 -10.421875 C 3.21875 -10.480469 3.398438 -10.511719 3.59375 -10.511719 L 3.714844 -10.511719 C 3.742188 -10.496094 3.773438 -10.496094 3.804688 -10.496094 L 4.402344 -10.496094 C 4.820312 -10.496094 5.449219 -10.675781 5.449219 -11.214844 C 5.449219 -11.289062 5.433594 -11.363281 5.421875 -11.410156 C 5.269531 -12.082031 3.96875 -11.980469 3.21875 -11.980469 L 2.125 -11.980469 C 1.03125 -11.980469 0.71875 -11.542969 0.71875 -10.40625 L 0.71875 -10.195312 L 0.644531 -8.953125 C 0.613281 -8.414062 0.613281 -7.875 0.628906 -7.320312 C 0.644531 -6.769531 0.660156 -6.199219 0.644531 -5.628906 L 0.628906 -5.511719 C 0.613281 -4.957031 0.613281 -4.433594 0.597656 -3.921875 C 0.582031 -3.398438 0.613281 -2.90625 0.6875 -2.425781 C 0.734375 -1.992188 0.824219 -1.496094 1.019531 -1.078125 C 1.242188 -0.660156 1.542969 -0.359375 1.976562 -0.195312 L 1.992188 -0.195312 C 2.367188 -0.0742188 2.828125 -0.015625 3.355469 -0.015625 C 3.429688 0 3.503906 0 3.578125 0 Z M 3.578125 0 "/>
      </g>
    </g>
  </g>
  <g fill="#ffde59" fill-opacity="1" transform="matrix(1, 0, 0, 1, 15.814868208987534, 164.82695252935514)">
    <g transform="translate(352.337982, 34.598634)">
      <g>
        <path d="M 2.277344 0 C 2.558594 0 2.859375 -0.0429688 3.144531 -0.148438 C 5.496094 -0.988281 6.453125 -3.25 6.453125 -5.628906 C 6.453125 -6.589844 6.320312 -7.546875 6.019531 -8.445312 L 6.003906 -8.535156 L 6.003906 -8.550781 C 5.496094 -10.078125 4.175781 -11.800781 2.605469 -12.160156 C 2.199219 -12.234375 1.152344 -12.292969 0.851562 -11.800781 C 0.628906 -11.453125 0.597656 -11.050781 0.597656 -10.644531 L 0.613281 -10.527344 L 0.613281 -10.421875 C 0.613281 -9.644531 0.613281 -8.863281 0.628906 -8.070312 C 0.644531 -7.277344 0.644531 -6.5 0.644531 -5.703125 L 0.644531 -3.265625 C 0.644531 -3.160156 0.644531 -3.039062 0.628906 -2.933594 C 0.613281 -2.769531 0.613281 -2.621094 0.613281 -2.484375 L 0.613281 -1.660156 C 0.613281 -0.660156 1.257812 0 2.277344 0 Z M 2.738281 -2.425781 L 2.738281 -2.664062 C 2.738281 -3.203125 2.753906 -3.742188 2.769531 -4.265625 C 2.785156 -4.792969 2.785156 -5.332031 2.785156 -5.855469 L 2.785156 -7.023438 C 2.769531 -7.410156 2.769531 -7.800781 2.769531 -8.191406 L 2.769531 -8.640625 C 2.753906 -8.714844 2.753906 -8.773438 2.753906 -8.847656 L 2.753906 -9.117188 C 2.738281 -9.195312 2.738281 -9.285156 2.738281 -9.375 L 2.738281 -9.6875 C 2.738281 -9.777344 2.738281 -9.867188 2.753906 -9.957031 C 2.769531 -10.183594 2.816406 -10.421875 2.980469 -10.464844 L 3.007812 -10.464844 C 3.039062 -10.464844 3.113281 -10.4375 3.234375 -10.375 C 3.355469 -10.316406 3.546875 -10.152344 3.804688 -9.867188 C 4.703125 -8.667969 5.121094 -7.21875 5.121094 -5.71875 C 5.121094 -4.164062 4.730469 -2.679688 3.472656 -1.8125 C 3.25 -1.675781 3.175781 -1.632812 2.933594 -1.632812 L 2.933594 -1.648438 C 2.859375 -1.691406 2.800781 -1.8125 2.769531 -1.976562 C 2.753906 -2.109375 2.738281 -2.261719 2.738281 -2.425781 Z M 2.738281 -2.425781 "/>
      </g>
    </g>
  </g>
  <g fill="#ffde59" fill-opacity="1" transform="matrix(1, 0, 0, 1, 15.814868208987534, 164.82695252935514)">
    <g transform="translate(359.390542, 34.598634)">
      <g>
        <path d="M 1.570312 0 L 1.75 0 C 2.066406 0 2.289062 -0.0898438 2.457031 -0.285156 C 2.621094 -0.539062 2.800781 -1.257812 2.800781 -1.886719 L 2.800781 -3.847656 C 2.785156 -4.492188 2.785156 -5.121094 2.785156 -5.765625 L 2.785156 -7.996094 C 2.769531 -8.339844 2.769531 -8.683594 2.769531 -9.027344 L 2.800781 -9.898438 L 2.800781 -10.136719 C 2.753906 -10.675781 2.816406 -11.050781 2.457031 -11.515625 C 2.289062 -11.710938 2.066406 -11.800781 1.75 -11.800781 L 1.570312 -11.800781 C 0.808594 -11.800781 0.597656 -10.855469 0.597656 -10.273438 L 0.597656 -8.925781 C 0.597656 -8.820312 0.597656 -8.714844 0.613281 -8.609375 L 0.613281 -8.519531 C 0.628906 -8.234375 0.628906 -7.9375 0.628906 -7.652344 L 0.628906 -6.289062 C 0.628906 -6.125 0.628906 -5.945312 0.644531 -5.765625 L 0.644531 -5.644531 C 0.644531 -5.421875 0.644531 -5.210938 0.660156 -4.984375 L 0.660156 -3.652344 C 0.660156 -3.429688 0.660156 -3.203125 0.644531 -2.980469 L 0.644531 -2.769531 C 0.644531 -2.695312 0.644531 -2.605469 0.628906 -2.53125 C 0.613281 -2.277344 0.597656 -2.035156 0.597656 -1.78125 L 0.597656 -1.527344 C 0.597656 -0.929688 0.867188 0 1.570312 0 Z M 1.570312 0 "/>
      </g>
    </g>
  </g>
</svg>