<?xml version="1.0" encoding="utf-8"?>
<svg viewBox="67.2172 200.5535 6.9063 102.418" width="6.906" height="102.418" xmlns="http://www.w3.org/2000/svg">
  <defs>
    <clipPath id="32b6f85fcb">
      <path d="M 52.078125 35.726562 L 58.308594 35.726562 L 58.308594 114.15625 L 52.078125 114.15625 Z M 52.078125 35.726562 " clip-rule="nonzero"/>
    </clipPath>
    <clipPath id="5255b3b710">
      <path d="M 55.195312 35.726562 C 56.914062 35.726562 58.308594 37.121094 58.308594 38.839844 L 58.308594 111.03125 C 58.308594 112.75 56.914062 114.144531 55.195312 114.144531 C 53.472656 114.144531 52.078125 112.75 52.078125 111.03125 L 52.078125 38.839844 C 52.078125 37.121094 53.472656 35.726562 55.195312 35.726562 Z M 55.195312 35.726562 " clip-rule="nonzero"/>
    </clipPath>
    <clipPath id="5934a471ef">
      <path d="M 51.402344 116.71875 L 58.214844 116.71875 L 58.214844 138.144531 L 51.402344 138.144531 Z M 51.402344 116.71875 " clip-rule="nonzero"/>
    </clipPath>
    <clipPath id="c0135b60d3">
      <path d="M 54.808594 116.71875 C 55.710938 116.71875 56.578125 117.078125 57.21875 117.71875 C 57.855469 118.355469 58.214844 119.222656 58.214844 120.128906 L 58.214844 134.730469 C 58.214844 135.632812 57.855469 136.5 57.21875 137.140625 C 56.578125 137.777344 55.710938 138.136719 54.808594 138.136719 C 53.90625 138.136719 53.039062 137.777344 52.398438 137.140625 C 51.761719 136.5 51.402344 135.632812 51.402344 134.730469 L 51.402344 120.128906 C 51.402344 119.222656 51.761719 118.355469 52.398438 117.71875 C 53.039062 117.078125 53.90625 116.71875 54.808594 116.71875 Z M 54.808594 116.71875 " clip-rule="nonzero"/>
    </clipPath>
  </defs>
  <g clip-path="url(#32b6f85fcb)" transform="matrix(1, 0, 0, 1, 15.814868208987534, 164.82695252935514)">
    <g clip-path="url(#5255b3b710)">
      <path fill="#ffde59" d="M 52.078125 35.726562 L 58.308594 35.726562 L 58.308594 114.15625 L 52.078125 114.15625 Z M 52.078125 35.726562 " fill-opacity="1" fill-rule="nonzero"/>
    </g>
  </g>
  <g clip-path="url(#5934a471ef)" transform="matrix(1, 0, 0, 1, 15.814868208987534, 164.82695252935514)">
    <g clip-path="url(#c0135b60d3)">
      <path fill="#ffde59" d="M 51.402344 116.71875 L 58.214844 116.71875 L 58.214844 138.144531 L 51.402344 138.144531 Z M 51.402344 116.71875 " fill-opacity="1" fill-rule="nonzero"/>
    </g>
  </g>
  <g fill="#000000" fill-opacity="1" transform="matrix(1, 0, 0, 1, 15.814868208987534, 164.82695252935514)">
    <g transform="translate(56.066166, 53.383478)">
      <g>
        <path d="M -3.058594 -2.730469 C -3.101562 -2.546875 -2.910156 -2.378906 -2.417969 -2.128906 C -2.070312 -1.949219 -1.597656 -1.703125 -1.292969 -1.550781 L -1.292969 -1.554688 L -1.25 -1.523438 C -1.261719 -1.515625 -1.277344 -1.515625 -1.292969 -1.515625 L -1.296875 -1.515625 C -1.535156 -1.480469 -1.882812 -1.449219 -2.136719 -1.417969 C -2.4375 -1.375 -2.757812 -1.386719 -3.085938 -1.304688 L -3.085938 -1.296875 C -3.171875 -1.265625 -3.203125 -1.222656 -3.207031 -1.117188 C -3.21875 -1.007812 -3.179688 -0.925781 -3.113281 -0.90625 C -2.378906 -0.660156 -1.59375 -0.363281 -0.875 -0.136719 C -0.605469 -0.0546875 -0.324219 0.0390625 -0.078125 0.109375 C 0.0234375 0.132812 0.078125 0.0859375 0.0898438 -0.0351562 C 0.105469 -0.183594 0.046875 -0.203125 -0.0195312 -0.222656 C -0.378906 -0.328125 -0.742188 -0.449219 -1.074219 -0.566406 C -1.523438 -0.71875 -2.03125 -0.859375 -2.464844 -1.023438 C -2.261719 -1.03125 -1.894531 -1.066406 -1.429688 -1.097656 C -1.265625 -1.105469 -1.101562 -1.152344 -0.921875 -1.207031 C -0.761719 -1.25 -0.714844 -1.507812 -0.828125 -1.648438 C -0.878906 -1.71875 -0.914062 -1.746094 -1.003906 -1.785156 C -1.261719 -1.910156 -2.25 -2.363281 -2.574219 -2.566406 C -2.539062 -2.554688 -2.488281 -2.554688 -2.398438 -2.535156 C -1.894531 -2.410156 -1.496094 -2.34375 -0.8125 -2.316406 C -0.585938 -2.308594 -0.253906 -2.316406 0.0117188 -2.378906 C 0.113281 -2.40625 0.214844 -2.566406 0.199219 -2.683594 L 0.199219 -2.691406 C 0.171875 -2.824219 0.136719 -2.851562 0.046875 -2.8125 C -0.046875 -2.765625 -0.0742188 -2.703125 -0.59375 -2.675781 C -1.105469 -2.648438 -1.695312 -2.761719 -2.589844 -2.921875 C -2.835938 -2.964844 -3.015625 -2.902344 -3.058594 -2.730469 Z M -3.058594 -2.730469 "/>
      </g>
    </g>
  </g>
  <g fill="#000000" fill-opacity="1" transform="matrix(1, 0, 0, 1, 15.814868208987534, 164.82695252935514)">
    <g transform="translate(56.066166, 50.157188)">
      <g>
        <path d="M 0.0859375 -1.828125 C 0.046875 -1.949219 -0.0195312 -1.972656 -0.117188 -1.898438 C -0.253906 -1.796875 -0.554688 -1.734375 -1.0625 -1.71875 C -1.511719 -1.699219 -2.246094 -1.75 -2.726562 -1.816406 C -2.867188 -1.835938 -2.984375 -1.867188 -3.121094 -1.851562 C -3.183594 -1.839844 -3.253906 -1.71875 -3.253906 -1.613281 L -3.253906 -1.617188 C -3.261719 -1.457031 -3.222656 -1.386719 -3.0625 -1.289062 C -2.535156 -0.980469 -1.878906 -0.660156 -1.332031 -0.417969 C -1.320312 -0.414062 -1.3125 -0.414062 -1.304688 -0.410156 L -1.304688 -0.40625 C -1.3125 -0.296875 -1.304688 -0.1875 -1.285156 -0.0859375 L -1.285156 -0.078125 C -1.277344 -0.0585938 -1.265625 0.0234375 -1.222656 0.0390625 C -1.175781 0.0585938 -1.15625 0.0390625 -1.113281 -0.0351562 L -1.113281 -0.0390625 C -1.078125 -0.101562 -1.0625 -0.199219 -1.070312 -0.28125 L -1.070312 -0.285156 C -1.0625 -0.277344 -1.046875 -0.269531 -1.035156 -0.265625 C -0.832031 -0.164062 -0.648438 -0.0742188 -0.464844 0.0078125 C -0.332031 0.0664062 -0.203125 0.117188 -0.101562 0.175781 C -0.0117188 0.226562 0.03125 0.203125 0.0664062 0.0898438 C 0.09375 0.00390625 0.0585938 -0.132812 -0.00390625 -0.164062 C -0.367188 -0.335938 -0.691406 -0.492188 -1.023438 -0.640625 C -1.078125 -0.664062 -1.078125 -0.660156 -1.078125 -0.691406 C -1.078125 -0.90625 -1.105469 -1.113281 -1.101562 -1.320312 C -1.101562 -1.363281 -1.097656 -1.363281 -0.964844 -1.367188 C -0.476562 -1.390625 -0.1875 -1.453125 0 -1.585938 C 0.0625 -1.632812 0.109375 -1.753906 0.0859375 -1.828125 Z M -1.320312 -0.777344 C -1.324219 -0.777344 -1.335938 -0.785156 -1.347656 -0.789062 C -1.734375 -0.980469 -2.074219 -1.140625 -2.359375 -1.269531 C -2.488281 -1.332031 -2.605469 -1.398438 -2.683594 -1.453125 C -2.273438 -1.371094 -1.816406 -1.367188 -1.488281 -1.347656 C -1.488281 -1.347656 -1.347656 -1.335938 -1.347656 -1.339844 C -1.347656 -1.15625 -1.324219 -0.953125 -1.320312 -0.777344 Z M -1.320312 -0.777344 "/>
      </g>
    </g>
  </g>
  <g fill="#000000" fill-opacity="1" transform="matrix(1, 0, 0, 1, 15.814868208987534, 164.82695252935514)">
    <g transform="translate(56.066166, 47.783039)">
      <g>
        <path d="M 0.121094 -0.648438 C 0.132812 -0.8125 0.0234375 -0.816406 -0.03125 -0.824219 C -0.183594 -0.847656 -0.328125 -0.855469 -0.460938 -0.882812 L -2.785156 -1.335938 L -2.78125 -1.332031 C -2.8125 -1.339844 -2.820312 -1.335938 -2.820312 -1.324219 C -2.835938 -1.484375 -2.839844 -1.644531 -2.839844 -1.804688 C -2.839844 -1.953125 -2.84375 -2.105469 -2.84375 -2.253906 C -2.84375 -2.351562 -2.890625 -2.429688 -2.953125 -2.4375 C -3.027344 -2.445312 -3.042969 -2.414062 -3.082031 -2.300781 C -3.117188 -2.183594 -3.117188 -2.042969 -3.121094 -1.917969 L -3.121094 -1.914062 C -3.121094 -1.554688 -3.121094 -1.183594 -3.09375 -0.824219 C -3.074219 -0.597656 -3.074219 -0.375 -3.058594 -0.148438 L -3.058594 -0.15625 C -3.058594 -0.0507812 -3.03125 -0.00390625 -2.960938 -0.03125 C -2.882812 -0.0625 -2.761719 -0.128906 -2.773438 -0.304688 C -2.78125 -0.433594 -2.789062 -0.871094 -2.800781 -0.957031 C -2.808594 -0.988281 -2.808594 -0.980469 -2.730469 -0.964844 C -2.210938 -0.867188 -1.625 -0.734375 -1.121094 -0.625 C -0.765625 -0.554688 -0.414062 -0.511719 -0.078125 -0.445312 C 0.0390625 -0.433594 0.109375 -0.5 0.121094 -0.648438 Z M 0.121094 -0.648438 "/>
      </g>
    </g>
  </g>
  <g fill="#000000" fill-opacity="1" transform="matrix(1, 0, 0, 1, 15.814868208987534, 164.82695252935514)">
    <g transform="translate(56.066166, 45.641293)">
      <g>
        <path d="M -3.140625 -1.867188 C -3.179688 -1.828125 -3.175781 -1.730469 -3.179688 -1.707031 L -3.179688 -1.699219 C -3.179688 -1.488281 -3.171875 -1.324219 -3.164062 -1.199219 C -3.144531 -0.914062 -3.183594 -0.707031 -3.15625 -0.492188 C -3.140625 -0.363281 -3.128906 -0.347656 -3.082031 -0.339844 C -3.019531 -0.335938 -2.988281 -0.359375 -2.945312 -0.433594 C -2.882812 -0.53125 -2.921875 -0.765625 -2.925781 -0.929688 L -2.925781 -0.941406 C -2.921875 -0.9375 -2.90625 -0.933594 -2.882812 -0.929688 C -2.734375 -0.894531 -2.582031 -0.875 -2.460938 -0.839844 L -2.457031 -0.832031 C -1.734375 -0.691406 -1.019531 -0.550781 -0.300781 -0.429688 C -0.277344 -0.421875 -0.265625 -0.429688 -0.253906 -0.429688 L -0.253906 -0.414062 C -0.25 -0.238281 -0.238281 -0.0546875 -0.226562 0.113281 C -0.21875 0.238281 -0.183594 0.269531 -0.0898438 0.238281 C 0.0117188 0.199219 0.0507812 0.109375 0.0390625 -0.0898438 C 0.03125 -0.265625 0.0195312 -0.402344 0.0195312 -0.570312 C 0.0117188 -0.90625 0.00390625 -1.117188 -0.00390625 -1.320312 C -0.0078125 -1.429688 -0.078125 -1.488281 -0.183594 -1.484375 C -0.25 -1.480469 -0.28125 -1.421875 -0.28125 -1.304688 C -0.28125 -1.171875 -0.257812 -0.9375 -0.25 -0.816406 C -0.246094 -0.769531 -0.230469 -0.785156 -0.3125 -0.796875 C -0.71875 -0.855469 -1.0625 -0.9375 -1.441406 -1.015625 C -1.933594 -1.113281 -2.425781 -1.203125 -2.875 -1.285156 C -2.929688 -1.292969 -2.925781 -1.285156 -2.929688 -1.320312 C -2.957031 -1.488281 -2.929688 -1.636719 -2.9375 -1.804688 C -2.949219 -1.949219 -3.035156 -1.980469 -3.140625 -1.867188 Z M -3.140625 -1.867188 "/>
      </g>
    </g>
  </g>
  <g fill="#000000" fill-opacity="1" transform="matrix(1, 0, 0, 1, 15.814868208987534, 164.82695252935514)">
    <g transform="translate(56.066166, 43.681823)">
      <g>
        <path d="M -3.113281 -2.550781 L -3.109375 -2.554688 C -3.152344 -2.539062 -3.199219 -2.464844 -3.191406 -2.40625 L -3.191406 -2.398438 C -3.171875 -2.328125 -3.15625 -2.316406 -3.085938 -2.316406 C -2.535156 -2.316406 -1.949219 -2.246094 -1.429688 -2.117188 C -1.003906 -2.019531 -0.601562 -1.925781 -0.25 -1.714844 C -0.128906 -1.640625 -0.109375 -1.625 -0.113281 -1.609375 C -0.117188 -1.578125 -0.167969 -1.542969 -0.28125 -1.5 L -0.285156 -1.496094 L -0.304688 -1.484375 C -0.503906 -1.398438 -0.746094 -1.386719 -0.984375 -1.359375 C -1.449219 -1.304688 -1.964844 -1.257812 -2.441406 -1.195312 C -2.601562 -1.171875 -2.761719 -1.152344 -2.933594 -1.125 C -3.011719 -1.117188 -3.066406 -1.023438 -3.066406 -0.910156 C -3.066406 -0.800781 -3.019531 -0.75 -2.929688 -0.738281 C -2.78125 -0.714844 -2.648438 -0.683594 -2.539062 -0.65625 C -2.21875 -0.566406 -1.851562 -0.472656 -1.449219 -0.378906 C -0.960938 -0.253906 -0.472656 -0.148438 -0.00390625 -0.03125 C 0.078125 -0.0117188 0.117188 -0.0390625 0.15625 -0.140625 C 0.1875 -0.226562 0.148438 -0.332031 0.0820312 -0.355469 C 0.0117188 -0.382812 -0.0507812 -0.410156 -0.101562 -0.421875 C -0.484375 -0.519531 -0.855469 -0.59375 -1.210938 -0.691406 C -1.441406 -0.761719 -1.6875 -0.820312 -1.921875 -0.878906 C -1.894531 -0.878906 -1.871094 -0.882812 -1.851562 -0.882812 C -1.429688 -0.90625 -1.015625 -0.976562 -0.601562 -1.050781 C -0.320312 -1.105469 -0.164062 -1.179688 -0.0195312 -1.335938 C 0.164062 -1.515625 0.148438 -1.808594 -0.046875 -1.96875 C -0.183594 -2.074219 -0.304688 -2.179688 -0.441406 -2.222656 C -1.171875 -2.484375 -1.960938 -2.589844 -2.734375 -2.625 C -2.917969 -2.632812 -2.980469 -2.625 -3.113281 -2.550781 Z M -3.113281 -2.550781 "/>
      </g>
    </g>
  </g>
  <g fill="#000000" fill-opacity="1" transform="matrix(1, 0, 0, 1, 15.814868208987534, 164.82695252935514)">
    <g transform="translate(56.360885, 68.843521)">
      <g>
        <path d="M -3.058594 -2.730469 C -3.101562 -2.546875 -2.910156 -2.378906 -2.417969 -2.128906 C -2.070312 -1.949219 -1.597656 -1.703125 -1.292969 -1.550781 L -1.292969 -1.554688 L -1.25 -1.523438 C -1.261719 -1.515625 -1.277344 -1.515625 -1.292969 -1.515625 L -1.296875 -1.515625 C -1.535156 -1.480469 -1.882812 -1.449219 -2.136719 -1.417969 C -2.4375 -1.375 -2.757812 -1.386719 -3.085938 -1.304688 L -3.085938 -1.296875 C -3.171875 -1.265625 -3.203125 -1.222656 -3.207031 -1.117188 C -3.21875 -1.007812 -3.179688 -0.925781 -3.113281 -0.90625 C -2.378906 -0.660156 -1.59375 -0.363281 -0.875 -0.136719 C -0.605469 -0.0546875 -0.324219 0.0390625 -0.078125 0.109375 C 0.0234375 0.132812 0.078125 0.0859375 0.0898438 -0.0351562 C 0.105469 -0.183594 0.046875 -0.203125 -0.0195312 -0.222656 C -0.378906 -0.328125 -0.742188 -0.449219 -1.074219 -0.566406 C -1.523438 -0.71875 -2.03125 -0.859375 -2.464844 -1.023438 C -2.261719 -1.03125 -1.894531 -1.066406 -1.429688 -1.097656 C -1.265625 -1.105469 -1.101562 -1.152344 -0.921875 -1.207031 C -0.761719 -1.25 -0.714844 -1.507812 -0.828125 -1.648438 C -0.878906 -1.71875 -0.914062 -1.746094 -1.003906 -1.785156 C -1.261719 -1.910156 -2.25 -2.363281 -2.574219 -2.566406 C -2.539062 -2.554688 -2.488281 -2.554688 -2.398438 -2.535156 C -1.894531 -2.410156 -1.496094 -2.34375 -0.8125 -2.316406 C -0.585938 -2.308594 -0.253906 -2.316406 0.0117188 -2.378906 C 0.113281 -2.40625 0.214844 -2.566406 0.199219 -2.683594 L 0.199219 -2.691406 C 0.171875 -2.824219 0.136719 -2.851562 0.046875 -2.8125 C -0.046875 -2.765625 -0.0742188 -2.703125 -0.59375 -2.675781 C -1.105469 -2.648438 -1.695312 -2.761719 -2.589844 -2.921875 C -2.835938 -2.964844 -3.015625 -2.902344 -3.058594 -2.730469 Z M -3.058594 -2.730469 "/>
      </g>
    </g>
  </g>
  <g fill="#000000" fill-opacity="1" transform="matrix(1, 0, 0, 1, 15.814868208987534, 164.82695252935514)">
    <g transform="translate(56.360885, 65.617231)">
      <g>
        <path d="M -3.140625 -1.867188 C -3.179688 -1.828125 -3.175781 -1.730469 -3.179688 -1.707031 L -3.179688 -1.699219 C -3.179688 -1.488281 -3.171875 -1.324219 -3.164062 -1.199219 C -3.144531 -0.914062 -3.183594 -0.707031 -3.15625 -0.492188 C -3.140625 -0.363281 -3.128906 -0.347656 -3.082031 -0.339844 C -3.019531 -0.335938 -2.988281 -0.359375 -2.945312 -0.433594 C -2.882812 -0.53125 -2.921875 -0.765625 -2.925781 -0.929688 L -2.925781 -0.941406 C -2.921875 -0.9375 -2.90625 -0.933594 -2.882812 -0.929688 C -2.734375 -0.894531 -2.582031 -0.875 -2.460938 -0.839844 L -2.457031 -0.832031 C -1.734375 -0.691406 -1.019531 -0.550781 -0.300781 -0.429688 C -0.277344 -0.421875 -0.265625 -0.429688 -0.253906 -0.429688 L -0.253906 -0.414062 C -0.25 -0.238281 -0.238281 -0.0546875 -0.226562 0.113281 C -0.21875 0.238281 -0.183594 0.269531 -0.0898438 0.238281 C 0.0117188 0.199219 0.0507812 0.109375 0.0390625 -0.0898438 C 0.03125 -0.265625 0.0195312 -0.402344 0.0195312 -0.570312 C 0.0117188 -0.90625 0.00390625 -1.117188 -0.00390625 -1.320312 C -0.0078125 -1.429688 -0.078125 -1.488281 -0.183594 -1.484375 C -0.25 -1.480469 -0.28125 -1.421875 -0.28125 -1.304688 C -0.28125 -1.171875 -0.257812 -0.9375 -0.25 -0.816406 C -0.246094 -0.769531 -0.230469 -0.785156 -0.3125 -0.796875 C -0.71875 -0.855469 -1.0625 -0.9375 -1.441406 -1.015625 C -1.933594 -1.113281 -2.425781 -1.203125 -2.875 -1.285156 C -2.929688 -1.292969 -2.925781 -1.285156 -2.929688 -1.320312 C -2.957031 -1.488281 -2.929688 -1.636719 -2.9375 -1.804688 C -2.949219 -1.949219 -3.035156 -1.980469 -3.140625 -1.867188 Z M -3.140625 -1.867188 "/>
      </g>
    </g>
  </g>
  <g fill="#000000" fill-opacity="1" transform="matrix(1, 0, 0, 1, 15.814868208987534, 164.82695252935514)">
    <g transform="translate(56.360885, 63.657761)">
      <g>
        <path d="M -3.121094 -1.742188 C -3.289062 -1.265625 -3.300781 -0.816406 -3.21875 -0.351562 C -3.171875 -0.0859375 -3.082031 0.0117188 -2.964844 -0.101562 C -2.894531 -0.171875 -2.894531 -0.210938 -2.953125 -0.414062 C -3.074219 -0.820312 -3.066406 -1.171875 -2.910156 -1.632812 C -2.789062 -2.019531 -2.492188 -2.238281 -2.097656 -2.238281 C -1.429688 -2.238281 -0.71875 -1.824219 -0.449219 -1.285156 C -0.210938 -0.789062 -0.175781 -0.421875 -0.203125 -0.386719 L -0.203125 -0.390625 L -0.308594 -0.421875 C -0.96875 -0.574219 -1.523438 -0.675781 -2.261719 -0.816406 C -2.433594 -0.847656 -2.554688 -0.875 -2.710938 -0.898438 C -2.824219 -0.914062 -2.921875 -0.804688 -2.921875 -0.675781 L -2.921875 -0.679688 C -2.929688 -0.476562 -2.800781 -0.546875 -2.761719 -0.539062 L -2.734375 -0.539062 L -2.730469 -0.53125 C -2.234375 -0.472656 -1.808594 -0.324219 -1.324219 -0.25 C -1.003906 -0.203125 -0.597656 -0.0742188 -0.101562 -0.0234375 C 0.0078125 -0.0117188 0.0664062 -0.09375 0.0664062 -0.25 C 0.0664062 -0.605469 0.00390625 -0.941406 -0.105469 -1.203125 C -0.265625 -1.5625 -0.375 -1.84375 -0.757812 -2.140625 C -1.140625 -2.4375 -1.367188 -2.527344 -1.828125 -2.578125 C -2.457031 -2.648438 -2.894531 -2.359375 -3.121094 -1.742188 Z M -3.121094 -1.742188 "/>
      </g>
    </g>
  </g>
  <g fill="#000000" fill-opacity="1" transform="matrix(1, 0, 0, 1, 15.814868208987534, 164.82695252935514)">
    <g transform="translate(56.360885, 60.818808)">
      <g>
        <path d="M -3.140625 -1.867188 C -3.179688 -1.828125 -3.175781 -1.730469 -3.179688 -1.707031 L -3.179688 -1.699219 C -3.179688 -1.488281 -3.171875 -1.324219 -3.164062 -1.199219 C -3.144531 -0.914062 -3.183594 -0.707031 -3.15625 -0.492188 C -3.140625 -0.363281 -3.128906 -0.347656 -3.082031 -0.339844 C -3.019531 -0.335938 -2.988281 -0.359375 -2.945312 -0.433594 C -2.882812 -0.53125 -2.921875 -0.765625 -2.925781 -0.929688 L -2.925781 -0.941406 C -2.921875 -0.9375 -2.90625 -0.933594 -2.882812 -0.929688 C -2.734375 -0.894531 -2.582031 -0.875 -2.460938 -0.839844 L -2.457031 -0.832031 C -1.734375 -0.691406 -1.019531 -0.550781 -0.300781 -0.429688 C -0.277344 -0.421875 -0.265625 -0.429688 -0.253906 -0.429688 L -0.253906 -0.414062 C -0.25 -0.238281 -0.238281 -0.0546875 -0.226562 0.113281 C -0.21875 0.238281 -0.183594 0.269531 -0.0898438 0.238281 C 0.0117188 0.199219 0.0507812 0.109375 0.0390625 -0.0898438 C 0.03125 -0.265625 0.0195312 -0.402344 0.0195312 -0.570312 C 0.0117188 -0.90625 0.00390625 -1.117188 -0.00390625 -1.320312 C -0.0078125 -1.429688 -0.078125 -1.488281 -0.183594 -1.484375 C -0.25 -1.480469 -0.28125 -1.421875 -0.28125 -1.304688 C -0.28125 -1.171875 -0.257812 -0.9375 -0.25 -0.816406 C -0.246094 -0.769531 -0.230469 -0.785156 -0.3125 -0.796875 C -0.71875 -0.855469 -1.0625 -0.9375 -1.441406 -1.015625 C -1.933594 -1.113281 -2.425781 -1.203125 -2.875 -1.285156 C -2.929688 -1.292969 -2.925781 -1.285156 -2.929688 -1.320312 C -2.957031 -1.488281 -2.929688 -1.636719 -2.9375 -1.804688 C -2.949219 -1.949219 -3.035156 -1.980469 -3.140625 -1.867188 Z M -3.140625 -1.867188 "/>
      </g>
    </g>
  </g>
  <g fill="#000000" fill-opacity="1" transform="matrix(1, 0, 0, 1, 15.814868208987534, 164.82695252935514)">
    <g transform="translate(57.017207, 91.377434)">
      <g>
        <path d="M 0.0859375 -1.828125 C 0.046875 -1.949219 -0.0195312 -1.972656 -0.117188 -1.898438 C -0.253906 -1.796875 -0.554688 -1.734375 -1.0625 -1.71875 C -1.511719 -1.699219 -2.246094 -1.75 -2.726562 -1.816406 C -2.867188 -1.835938 -2.984375 -1.867188 -3.121094 -1.851562 C -3.183594 -1.839844 -3.253906 -1.71875 -3.253906 -1.613281 L -3.253906 -1.617188 C -3.261719 -1.457031 -3.222656 -1.386719 -3.0625 -1.289062 C -2.535156 -0.980469 -1.878906 -0.660156 -1.332031 -0.417969 C -1.320312 -0.414062 -1.3125 -0.414062 -1.304688 -0.410156 L -1.304688 -0.40625 C -1.3125 -0.296875 -1.304688 -0.1875 -1.285156 -0.0859375 L -1.285156 -0.078125 C -1.277344 -0.0585938 -1.265625 0.0234375 -1.222656 0.0390625 C -1.175781 0.0585938 -1.15625 0.0390625 -1.113281 -0.0351562 L -1.113281 -0.0390625 C -1.078125 -0.101562 -1.0625 -0.199219 -1.070312 -0.28125 L -1.070312 -0.285156 C -1.0625 -0.277344 -1.046875 -0.269531 -1.035156 -0.265625 C -0.832031 -0.164062 -0.648438 -0.0742188 -0.464844 0.0078125 C -0.332031 0.0664062 -0.203125 0.117188 -0.101562 0.175781 C -0.0117188 0.226562 0.03125 0.203125 0.0664062 0.0898438 C 0.09375 0.00390625 0.0585938 -0.132812 -0.00390625 -0.164062 C -0.367188 -0.335938 -0.691406 -0.492188 -1.023438 -0.640625 C -1.078125 -0.664062 -1.078125 -0.660156 -1.078125 -0.691406 C -1.078125 -0.90625 -1.105469 -1.113281 -1.101562 -1.320312 C -1.101562 -1.363281 -1.097656 -1.363281 -0.964844 -1.367188 C -0.476562 -1.390625 -0.1875 -1.453125 0 -1.585938 C 0.0625 -1.632812 0.109375 -1.753906 0.0859375 -1.828125 Z M -1.320312 -0.777344 C -1.324219 -0.777344 -1.335938 -0.785156 -1.347656 -0.789062 C -1.734375 -0.980469 -2.074219 -1.140625 -2.359375 -1.269531 C -2.488281 -1.332031 -2.605469 -1.398438 -2.683594 -1.453125 C -2.273438 -1.371094 -1.816406 -1.367188 -1.488281 -1.347656 C -1.488281 -1.347656 -1.347656 -1.335938 -1.347656 -1.339844 C -1.347656 -1.15625 -1.324219 -0.953125 -1.320312 -0.777344 Z M -1.320312 -0.777344 "/>
      </g>
    </g>
  </g>
  <g fill="#000000" fill-opacity="1" transform="matrix(1, 0, 0, 1, 15.814868208987534, 164.82695252935514)">
    <g transform="translate(57.017207, 89.003285)">
      <g>
        <path d="M -3.207031 -1.148438 C -3.207031 -0.847656 -3.203125 -0.519531 -3.058594 -0.253906 C -3 -0.136719 -2.960938 -0.132812 -2.894531 -0.214844 C -2.863281 -0.25 -2.875 -0.476562 -2.910156 -0.625 C -2.933594 -0.707031 -2.949219 -0.660156 -2.851562 -0.640625 C -2.21875 -0.53125 -1.609375 -0.386719 -1.003906 -0.242188 C -0.625 -0.15625 -0.441406 -0.09375 -0.078125 -0.0273438 C 0.03125 -0.0078125 0.078125 -0.0351562 0.105469 -0.144531 C 0.136719 -0.265625 0.0820312 -0.367188 -0.0195312 -0.390625 L -0.0625 -0.402344 C -0.449219 -0.476562 -0.789062 -0.554688 -1.121094 -0.632812 C -1.074219 -0.695312 -1.050781 -0.832031 -1.066406 -0.984375 C -1.125 -1.507812 -1.417969 -1.980469 -1.867188 -2.199219 C -2.511719 -2.507812 -3.203125 -1.953125 -3.207031 -1.148438 Z M -2.335938 -1.921875 C -2.109375 -1.917969 -1.917969 -1.84375 -1.722656 -1.675781 C -1.480469 -1.460938 -1.335938 -1.152344 -1.285156 -0.824219 L -1.285156 -0.8125 C -1.28125 -0.796875 -1.277344 -0.722656 -1.257812 -0.664062 C -1.523438 -0.730469 -1.785156 -0.792969 -2.085938 -0.859375 C -2.34375 -0.914062 -2.59375 -0.980469 -2.851562 -0.992188 C -2.945312 -0.996094 -2.960938 -0.925781 -2.976562 -0.949219 L -2.976562 -0.953125 C -3.003906 -0.996094 -3.058594 -1.304688 -2.835938 -1.6875 C -2.757812 -1.824219 -2.535156 -1.925781 -2.335938 -1.921875 Z M -2.335938 -1.921875 "/>
      </g>
    </g>
  </g>
  <g fill="#000000" fill-opacity="1" transform="matrix(1, 0, 0, 1, 15.814868208987534, 164.82695252935514)">
    <g transform="translate(57.017207, 86.556226)">
      <g>
        <path d="M -0.171875 -1.976562 C -0.132812 -1.742188 -0.355469 -1.523438 -0.539062 -1.394531 C -0.84375 -1.167969 -1.085938 -1.042969 -1.390625 -0.976562 C -1.40625 -0.964844 -1.414062 -0.957031 -1.414062 -0.953125 C -1.414062 -0.953125 -1.414062 -0.960938 -1.417969 -0.976562 C -1.457031 -1.09375 -1.480469 -1.167969 -1.503906 -1.253906 C -1.640625 -1.746094 -1.796875 -1.96875 -2.125 -2.136719 C -2.730469 -2.445312 -3.253906 -2.003906 -3.253906 -1.210938 C -3.253906 -0.980469 -3.238281 -0.90625 -3.230469 -0.75 C -3.21875 -0.566406 -3.191406 -0.429688 -3.140625 -0.328125 L -3.140625 -0.324219 C -3.117188 -0.285156 -3.097656 -0.171875 -3.011719 -0.226562 C -2.949219 -0.257812 -2.90625 -0.355469 -2.925781 -0.441406 L -2.925781 -0.445312 C -2.9375 -0.496094 -2.953125 -0.542969 -2.957031 -0.578125 C -2.953125 -0.574219 -2.9375 -0.574219 -2.917969 -0.570312 C -2.628906 -0.511719 -2.300781 -0.445312 -2.035156 -0.386719 C -1.535156 -0.277344 -1.011719 -0.171875 -0.464844 -0.0742188 C -0.328125 -0.0507812 -0.175781 -0.0234375 -0.0390625 -0.0234375 C 0.00390625 -0.0234375 0.0390625 -0.0742188 0.0742188 -0.160156 C 0.09375 -0.21875 0.0664062 -0.304688 0.0078125 -0.339844 C -0.0546875 -0.378906 -0.09375 -0.394531 -0.136719 -0.402344 C -0.542969 -0.441406 -0.957031 -0.546875 -1.339844 -0.613281 L -1.34375 -0.613281 C -1.203125 -0.652344 -1.019531 -0.675781 -0.527344 -0.976562 C -0.367188 -1.074219 -0.078125 -1.324219 0.046875 -1.675781 C 0.078125 -1.78125 0.078125 -1.960938 0.0351562 -2.035156 C -0.0585938 -2.21875 -0.214844 -2.183594 -0.171875 -1.976562 Z M -1.59375 -0.664062 C -1.613281 -0.667969 -1.632812 -0.679688 -1.664062 -0.683594 C -2.003906 -0.757812 -2.386719 -0.851562 -2.707031 -0.910156 C -2.773438 -0.925781 -2.824219 -0.941406 -2.878906 -0.914062 C -2.910156 -0.898438 -2.980469 -0.707031 -3 -0.914062 C -3.09375 -1.445312 -2.917969 -1.925781 -2.574219 -1.886719 C -2.222656 -1.851562 -1.96875 -1.664062 -1.816406 -1.34375 C -1.742188 -1.175781 -1.671875 -0.964844 -1.605469 -0.683594 C -1.605469 -0.675781 -1.597656 -0.667969 -1.59375 -0.664062 Z M -2.960938 -0.597656 C -2.960938 -0.597656 -2.960938 -0.597656 -2.960938 -0.59375 Z M -2.960938 -0.597656 "/>
      </g>
    </g>
  </g>
  <g fill="#000000" fill-opacity="1" transform="matrix(1, 0, 0, 1, 15.814868208987534, 164.82695252935514)">
    <g transform="translate(57.017207, 84.109167)">
      <g>
        <path d="M 0.117188 -0.183594 C 0.0117188 -0.761719 0.03125 -1.078125 0.0273438 -1.375 C 0.0234375 -1.578125 0.09375 -1.8125 0.0195312 -2 C -0.0234375 -2.085938 -0.0507812 -2.105469 -0.140625 -2.097656 L -0.136719 -2.097656 C -0.191406 -2.097656 -0.214844 -2.054688 -0.226562 -1.949219 C -0.269531 -1.570312 -0.257812 -0.855469 -0.210938 -0.460938 C -0.210938 -0.457031 -0.21875 -0.449219 -0.296875 -0.464844 C -0.652344 -0.515625 -0.980469 -0.628906 -1.320312 -0.683594 C -1.578125 -0.722656 -1.566406 -0.714844 -1.5625 -0.886719 C -1.554688 -1.144531 -1.585938 -1.335938 -1.609375 -1.570312 L -1.609375 -1.578125 C -1.625 -1.675781 -1.660156 -1.734375 -1.707031 -1.75 L -1.71875 -1.753906 C -1.796875 -1.757812 -1.808594 -1.707031 -1.839844 -1.652344 L -1.839844 -1.644531 C -1.863281 -1.597656 -1.878906 -1.53125 -1.878906 -1.457031 L -1.878906 -1.453125 C -1.863281 -1.203125 -1.84375 -1.039062 -1.835938 -0.792969 C -1.835938 -0.761719 -1.824219 -0.769531 -1.867188 -0.773438 C -2.199219 -0.820312 -2.496094 -0.882812 -2.824219 -0.910156 C -2.882812 -0.914062 -2.890625 -0.914062 -2.898438 -0.941406 C -2.933594 -1.074219 -2.9375 -1.324219 -2.949219 -1.476562 C -2.957031 -1.613281 -2.929688 -1.964844 -2.929688 -2.105469 C -2.929688 -2.183594 -2.9375 -2.238281 -2.953125 -2.265625 C -2.984375 -2.34375 -3.003906 -2.371094 -3.042969 -2.371094 L -3.046875 -2.371094 C -3.089844 -2.359375 -3.148438 -2.363281 -3.175781 -2.25 L -3.175781 -2.261719 C -3.183594 -2.234375 -3.207031 -2.167969 -3.207031 -2.109375 C -3.207031 -1.625 -3.195312 -1.175781 -3.167969 -0.765625 C -3.148438 -0.554688 -3.109375 -0.410156 -3.054688 -0.40625 C -2.785156 -0.386719 -3.027344 -0.601562 -2.835938 -0.582031 C -2.132812 -0.515625 -1.085938 -0.238281 -0.296875 -0.09375 C -0.1875 -0.0859375 -0.160156 -0.0507812 -0.164062 -0.0820312 C -0.144531 0.0273438 -0.09375 0.0820312 -0.0117188 0.0625 C 0.0898438 0.03125 0.140625 -0.0625 0.117188 -0.183594 Z M 0.117188 -0.183594 "/>
      </g>
    </g>
  </g>
  <g fill="#000000" fill-opacity="1" transform="matrix(1, 0, 0, 1, 15.814868208987534, 164.82695252935514)">
    <g transform="translate(57.017207, 81.648436)">
      <g>
        <path d="M -3.058594 -2.730469 C -3.101562 -2.546875 -2.910156 -2.378906 -2.417969 -2.128906 C -2.070312 -1.949219 -1.597656 -1.703125 -1.292969 -1.550781 L -1.292969 -1.554688 L -1.25 -1.523438 C -1.261719 -1.515625 -1.277344 -1.515625 -1.292969 -1.515625 L -1.296875 -1.515625 C -1.535156 -1.480469 -1.882812 -1.449219 -2.136719 -1.417969 C -2.4375 -1.375 -2.757812 -1.386719 -3.085938 -1.304688 L -3.085938 -1.296875 C -3.171875 -1.265625 -3.203125 -1.222656 -3.207031 -1.117188 C -3.21875 -1.007812 -3.179688 -0.925781 -3.113281 -0.90625 C -2.378906 -0.660156 -1.59375 -0.363281 -0.875 -0.136719 C -0.605469 -0.0546875 -0.324219 0.0390625 -0.078125 0.109375 C 0.0234375 0.132812 0.078125 0.0859375 0.0898438 -0.0351562 C 0.105469 -0.183594 0.046875 -0.203125 -0.0195312 -0.222656 C -0.378906 -0.328125 -0.742188 -0.449219 -1.074219 -0.566406 C -1.523438 -0.71875 -2.03125 -0.859375 -2.464844 -1.023438 C -2.261719 -1.03125 -1.894531 -1.066406 -1.429688 -1.097656 C -1.265625 -1.105469 -1.101562 -1.152344 -0.921875 -1.207031 C -0.761719 -1.25 -0.714844 -1.507812 -0.828125 -1.648438 C -0.878906 -1.71875 -0.914062 -1.746094 -1.003906 -1.785156 C -1.261719 -1.910156 -2.25 -2.363281 -2.574219 -2.566406 C -2.539062 -2.554688 -2.488281 -2.554688 -2.398438 -2.535156 C -1.894531 -2.410156 -1.496094 -2.34375 -0.8125 -2.316406 C -0.585938 -2.308594 -0.253906 -2.316406 0.0117188 -2.378906 C 0.113281 -2.40625 0.214844 -2.566406 0.199219 -2.683594 L 0.199219 -2.691406 C 0.171875 -2.824219 0.136719 -2.851562 0.046875 -2.8125 C -0.046875 -2.765625 -0.0742188 -2.703125 -0.59375 -2.675781 C -1.105469 -2.648438 -1.695312 -2.761719 -2.589844 -2.921875 C -2.835938 -2.964844 -3.015625 -2.902344 -3.058594 -2.730469 Z M -3.058594 -2.730469 "/>
      </g>
    </g>
  </g>
  <g fill="#000000" fill-opacity="1" transform="matrix(1, 0, 0, 1, 15.814868208987534, 164.82695252935514)">
    <g transform="translate(57.017207, 108.611539)">
      <g>
        <path d="M 0.0898438 -1.015625 C 0.0859375 -1.425781 -0.132812 -1.746094 -0.382812 -1.925781 C -0.542969 -2.035156 -0.695312 -2.117188 -0.851562 -2.128906 C -1.144531 -2.144531 -1.425781 -1.976562 -1.714844 -1.625 C -1.878906 -1.417969 -2.007812 -1.195312 -2.128906 -0.929688 C -2.222656 -0.730469 -2.378906 -0.675781 -2.511719 -0.769531 C -2.683594 -0.898438 -2.820312 -1.09375 -2.976562 -1.429688 L -2.972656 -1.421875 C -2.980469 -1.453125 -3.042969 -1.640625 -3.03125 -1.800781 L -3.03125 -1.796875 C -3.027344 -1.835938 -3.019531 -1.839844 -2.957031 -1.808594 C -2.871094 -1.773438 -2.8125 -1.730469 -2.710938 -1.652344 C -2.609375 -1.578125 -2.589844 -1.578125 -2.542969 -1.640625 C -2.492188 -1.699219 -2.523438 -1.890625 -2.601562 -1.980469 C -2.664062 -2.054688 -2.742188 -2.101562 -2.882812 -2.15625 C -2.992188 -2.195312 -3.042969 -2.183594 -3.125 -2.085938 C -3.265625 -1.925781 -3.304688 -1.6875 -3.230469 -1.394531 C -3.15625 -1.117188 -3.019531 -0.855469 -2.828125 -0.640625 C -2.457031 -0.230469 -2.082031 -0.269531 -1.851562 -0.746094 C -1.730469 -0.996094 -1.597656 -1.203125 -1.445312 -1.394531 C -1.238281 -1.660156 -1.03125 -1.769531 -0.800781 -1.722656 C -0.363281 -1.625 -0.117188 -1.175781 -0.203125 -0.625 C -0.242188 -0.382812 -0.40625 -0.21875 -0.65625 -0.175781 C -0.757812 -0.160156 -0.859375 -0.171875 -0.964844 -0.171875 L -0.960938 -0.171875 C -0.996094 -0.183594 -1.015625 -0.148438 -1.039062 -0.0898438 L -1.039062 -0.078125 C -1.042969 -0.0351562 -1.03125 0.0195312 -1.007812 0.0351562 C -0.882812 0.128906 -0.796875 0.160156 -0.683594 0.160156 C -0.382812 0.164062 -0.113281 -0.0390625 0.00390625 -0.363281 C 0.0664062 -0.546875 0.09375 -0.765625 0.0898438 -1.015625 Z M 0.0898438 -1.015625 "/>
      </g>
    </g>
  </g>
  <g fill="#000000" fill-opacity="1" transform="matrix(1, 0, 0, 1, 15.814868208987534, 164.82695252935514)">
    <g transform="translate(57.017207, 106.182707)">
      <g>
        <path d="M -2.445312 -2.707031 C -2.597656 -2.628906 -2.683594 -2.527344 -2.746094 -2.371094 C -2.761719 -2.324219 -2.757812 -2.238281 -2.742188 -2.171875 C -2.753906 -2.171875 -2.761719 -2.167969 -2.769531 -2.167969 C -3.117188 -2.101562 -3.3125 -1.746094 -3.234375 -1.359375 C -3.171875 -1.042969 -3.035156 -0.785156 -2.847656 -0.605469 C -2.488281 -0.265625 -2.007812 -0.0585938 -1.496094 -0.0234375 C -1.097656 -0.0117188 -0.867188 -0.0546875 -0.613281 -0.175781 C -0.359375 -0.292969 -0.195312 -0.4375 -0.0273438 -0.703125 C 0.101562 -0.914062 0.15625 -1.183594 0.132812 -1.433594 C 0.101562 -1.734375 -0.0351562 -2.023438 -0.277344 -2.269531 C -0.496094 -2.492188 -0.75 -2.652344 -1.046875 -2.746094 C -1.582031 -2.925781 -2.070312 -2.910156 -2.445312 -2.707031 Z M -1.691406 -2.519531 C -0.964844 -2.414062 -0.472656 -2.136719 -0.230469 -1.679688 C -0.109375 -1.441406 -0.0820312 -1.210938 -0.164062 -0.988281 C -0.214844 -0.839844 -0.347656 -0.695312 -0.542969 -0.582031 C -0.722656 -0.472656 -0.851562 -0.429688 -1.03125 -0.410156 C -1.207031 -0.390625 -1.402344 -0.394531 -1.609375 -0.421875 C -1.800781 -0.449219 -2.058594 -0.496094 -2.46875 -0.75 C -2.746094 -0.921875 -2.917969 -1.167969 -3 -1.507812 C -3.027344 -1.617188 -3.011719 -1.6875 -2.964844 -1.757812 C -2.949219 -1.78125 -2.90625 -1.800781 -2.808594 -1.816406 C -2.746094 -1.828125 -2.65625 -1.808594 -2.582031 -1.777344 C -2.484375 -1.742188 -2.445312 -1.753906 -2.398438 -1.851562 C -2.355469 -1.917969 -2.382812 -2.042969 -2.445312 -2.097656 C -2.507812 -2.140625 -2.5625 -2.164062 -2.621094 -2.171875 C -2.605469 -2.199219 -2.59375 -2.234375 -2.570312 -2.261719 C -2.511719 -2.347656 -2.070312 -2.574219 -1.691406 -2.519531 Z M -1.691406 -2.519531 "/>
      </g>
    </g>
  </g>
  <g fill="#000000" fill-opacity="1" transform="matrix(1, 0, 0, 1, 15.814868208987534, 164.82695252935514)">
    <g transform="translate(57.017207, 103.061226)">
      <g>
        <path d="M -3.140625 -1.867188 C -3.179688 -1.828125 -3.175781 -1.730469 -3.179688 -1.707031 L -3.179688 -1.699219 C -3.179688 -1.488281 -3.171875 -1.324219 -3.164062 -1.199219 C -3.144531 -0.914062 -3.183594 -0.707031 -3.15625 -0.492188 C -3.140625 -0.363281 -3.128906 -0.347656 -3.082031 -0.339844 C -3.019531 -0.335938 -2.988281 -0.359375 -2.945312 -0.433594 C -2.882812 -0.53125 -2.921875 -0.765625 -2.925781 -0.929688 L -2.925781 -0.941406 C -2.921875 -0.9375 -2.90625 -0.933594 -2.882812 -0.929688 C -2.734375 -0.894531 -2.582031 -0.875 -2.460938 -0.839844 L -2.457031 -0.832031 C -1.734375 -0.691406 -1.019531 -0.550781 -0.300781 -0.429688 C -0.277344 -0.421875 -0.265625 -0.429688 -0.253906 -0.429688 L -0.253906 -0.414062 C -0.25 -0.238281 -0.238281 -0.0546875 -0.226562 0.113281 C -0.21875 0.238281 -0.183594 0.269531 -0.0898438 0.238281 C 0.0117188 0.199219 0.0507812 0.109375 0.0390625 -0.0898438 C 0.03125 -0.265625 0.0195312 -0.402344 0.0195312 -0.570312 C 0.0117188 -0.90625 0.00390625 -1.117188 -0.00390625 -1.320312 C -0.0078125 -1.429688 -0.078125 -1.488281 -0.183594 -1.484375 C -0.25 -1.480469 -0.28125 -1.421875 -0.28125 -1.304688 C -0.28125 -1.171875 -0.257812 -0.9375 -0.25 -0.816406 C -0.246094 -0.769531 -0.230469 -0.785156 -0.3125 -0.796875 C -0.71875 -0.855469 -1.0625 -0.9375 -1.441406 -1.015625 C -1.933594 -1.113281 -2.425781 -1.203125 -2.875 -1.285156 C -2.929688 -1.292969 -2.925781 -1.285156 -2.929688 -1.320312 C -2.957031 -1.488281 -2.929688 -1.636719 -2.9375 -1.804688 C -2.949219 -1.949219 -3.035156 -1.980469 -3.140625 -1.867188 Z M -3.140625 -1.867188 "/>
      </g>
    </g>
  </g>
  <g fill="#000000" fill-opacity="1" transform="matrix(1, 0, 0, 1, 15.814868208987534, 164.82695252935514)">
    <g transform="translate(57.017207, 101.101756)">
      <g>
        <path d="M -0.171875 -1.976562 C -0.132812 -1.742188 -0.355469 -1.523438 -0.539062 -1.394531 C -0.84375 -1.167969 -1.085938 -1.042969 -1.390625 -0.976562 C -1.40625 -0.964844 -1.414062 -0.957031 -1.414062 -0.953125 C -1.414062 -0.953125 -1.414062 -0.960938 -1.417969 -0.976562 C -1.457031 -1.09375 -1.480469 -1.167969 -1.503906 -1.253906 C -1.640625 -1.746094 -1.796875 -1.96875 -2.125 -2.136719 C -2.730469 -2.445312 -3.253906 -2.003906 -3.253906 -1.210938 C -3.253906 -0.980469 -3.238281 -0.90625 -3.230469 -0.75 C -3.21875 -0.566406 -3.191406 -0.429688 -3.140625 -0.328125 L -3.140625 -0.324219 C -3.117188 -0.285156 -3.097656 -0.171875 -3.011719 -0.226562 C -2.949219 -0.257812 -2.90625 -0.355469 -2.925781 -0.441406 L -2.925781 -0.445312 C -2.9375 -0.496094 -2.953125 -0.542969 -2.957031 -0.578125 C -2.953125 -0.574219 -2.9375 -0.574219 -2.917969 -0.570312 C -2.628906 -0.511719 -2.300781 -0.445312 -2.035156 -0.386719 C -1.535156 -0.277344 -1.011719 -0.171875 -0.464844 -0.0742188 C -0.328125 -0.0507812 -0.175781 -0.0234375 -0.0390625 -0.0234375 C 0.00390625 -0.0234375 0.0390625 -0.0742188 0.0742188 -0.160156 C 0.09375 -0.21875 0.0664062 -0.304688 0.0078125 -0.339844 C -0.0546875 -0.378906 -0.09375 -0.394531 -0.136719 -0.402344 C -0.542969 -0.441406 -0.957031 -0.546875 -1.339844 -0.613281 L -1.34375 -0.613281 C -1.203125 -0.652344 -1.019531 -0.675781 -0.527344 -0.976562 C -0.367188 -1.074219 -0.078125 -1.324219 0.046875 -1.675781 C 0.078125 -1.78125 0.078125 -1.960938 0.0351562 -2.035156 C -0.0585938 -2.21875 -0.214844 -2.183594 -0.171875 -1.976562 Z M -1.59375 -0.664062 C -1.613281 -0.667969 -1.632812 -0.679688 -1.664062 -0.683594 C -2.003906 -0.757812 -2.386719 -0.851562 -2.707031 -0.910156 C -2.773438 -0.925781 -2.824219 -0.941406 -2.878906 -0.914062 C -2.910156 -0.898438 -2.980469 -0.707031 -3 -0.914062 C -3.09375 -1.445312 -2.917969 -1.925781 -2.574219 -1.886719 C -2.222656 -1.851562 -1.96875 -1.664062 -1.816406 -1.34375 C -1.742188 -1.175781 -1.671875 -0.964844 -1.605469 -0.683594 C -1.605469 -0.675781 -1.597656 -0.667969 -1.59375 -0.664062 Z M -2.960938 -0.597656 C -2.960938 -0.597656 -2.960938 -0.597656 -2.960938 -0.59375 Z M -2.960938 -0.597656 "/>
      </g>
    </g>
  </g>
  <g fill="#000000" fill-opacity="1" transform="matrix(1, 0, 0, 1, 15.814868208987534, 164.82695252935514)">
    <g transform="translate(56.068037, 133.446457)">
      <g>
        <path d="M 0.0859375 -1.828125 C 0.046875 -1.949219 -0.0195312 -1.972656 -0.117188 -1.898438 C -0.253906 -1.796875 -0.554688 -1.734375 -1.0625 -1.71875 C -1.511719 -1.699219 -2.246094 -1.75 -2.726562 -1.816406 C -2.867188 -1.835938 -2.984375 -1.867188 -3.121094 -1.851562 C -3.183594 -1.839844 -3.253906 -1.71875 -3.253906 -1.613281 L -3.253906 -1.617188 C -3.261719 -1.457031 -3.222656 -1.386719 -3.0625 -1.289062 C -2.535156 -0.980469 -1.878906 -0.660156 -1.332031 -0.417969 C -1.320312 -0.414062 -1.3125 -0.414062 -1.304688 -0.410156 L -1.304688 -0.40625 C -1.3125 -0.296875 -1.304688 -0.1875 -1.285156 -0.0859375 L -1.285156 -0.078125 C -1.277344 -0.0585938 -1.265625 0.0234375 -1.222656 0.0390625 C -1.175781 0.0585938 -1.15625 0.0390625 -1.113281 -0.0351562 L -1.113281 -0.0390625 C -1.078125 -0.101562 -1.0625 -0.199219 -1.070312 -0.28125 L -1.070312 -0.285156 C -1.0625 -0.277344 -1.046875 -0.269531 -1.035156 -0.265625 C -0.832031 -0.164062 -0.648438 -0.0742188 -0.464844 0.0078125 C -0.332031 0.0664062 -0.203125 0.117188 -0.101562 0.175781 C -0.0117188 0.226562 0.03125 0.203125 0.0664062 0.0898438 C 0.09375 0.00390625 0.0585938 -0.132812 -0.00390625 -0.164062 C -0.367188 -0.335938 -0.691406 -0.492188 -1.023438 -0.640625 C -1.078125 -0.664062 -1.078125 -0.660156 -1.078125 -0.691406 C -1.078125 -0.90625 -1.105469 -1.113281 -1.101562 -1.320312 C -1.101562 -1.363281 -1.097656 -1.363281 -0.964844 -1.367188 C -0.476562 -1.390625 -0.1875 -1.453125 0 -1.585938 C 0.0625 -1.632812 0.109375 -1.753906 0.0859375 -1.828125 Z M -1.320312 -0.777344 C -1.324219 -0.777344 -1.335938 -0.785156 -1.347656 -0.789062 C -1.734375 -0.980469 -2.074219 -1.140625 -2.359375 -1.269531 C -2.488281 -1.332031 -2.605469 -1.398438 -2.683594 -1.453125 C -2.273438 -1.371094 -1.816406 -1.367188 -1.488281 -1.347656 C -1.488281 -1.347656 -1.347656 -1.335938 -1.347656 -1.339844 C -1.347656 -1.15625 -1.324219 -0.953125 -1.320312 -0.777344 Z M -1.320312 -0.777344 "/>
      </g>
    </g>
  </g>
  <g fill="#000000" fill-opacity="1" transform="matrix(1, 0, 0, 1, 15.814868208987534, 164.82695252935514)">
    <g transform="translate(56.068037, 131.072308)">
      <g>
        <path d="M -0.0585938 -1.808594 C -0.167969 -1.800781 -0.253906 -1.542969 -0.253906 -1.253906 C -0.253906 -0.9375 -0.195312 -0.734375 -0.144531 -0.4375 C -0.148438 -0.441406 -0.15625 -0.441406 -0.164062 -0.445312 C -0.640625 -0.566406 -1.070312 -0.683594 -1.539062 -0.785156 C -2.03125 -0.886719 -2.433594 -0.96875 -2.925781 -1.03125 C -3 -1.035156 -3.058594 -1.042969 -3.121094 -1.042969 C -3.203125 -1.039062 -3.265625 -0.949219 -3.265625 -0.84375 C -3.265625 -0.679688 -3.179688 -0.707031 -3.140625 -0.695312 C -2.660156 -0.601562 -2.265625 -0.546875 -1.800781 -0.445312 C -1.214844 -0.3125 -0.667969 -0.210938 -0.113281 -0.0351562 C -0.0234375 -0.0078125 0.0234375 -0.0351562 0.0898438 -0.144531 C 0.121094 -0.195312 0.136719 -0.300781 0.113281 -0.378906 C 0.0117188 -0.703125 -0.0078125 -1.039062 0.03125 -1.421875 C 0.0390625 -1.511719 0.046875 -1.597656 0.0351562 -1.671875 C 0.0234375 -1.777344 0 -1.8125 -0.0585938 -1.808594 Z M -0.0585938 -1.808594 "/>
      </g>
    </g>
  </g>
  <g fill="#000000" fill-opacity="1" transform="matrix(1, 0, 0, 1, 15.814868208987534, 164.82695252935514)">
    <g transform="translate(56.068037, 129.012586)">
      <g>
        <path d="M -0.0585938 -1.808594 C -0.167969 -1.800781 -0.253906 -1.542969 -0.253906 -1.253906 C -0.253906 -0.9375 -0.195312 -0.734375 -0.144531 -0.4375 C -0.148438 -0.441406 -0.15625 -0.441406 -0.164062 -0.445312 C -0.640625 -0.566406 -1.070312 -0.683594 -1.539062 -0.785156 C -2.03125 -0.886719 -2.433594 -0.96875 -2.925781 -1.03125 C -3 -1.035156 -3.058594 -1.042969 -3.121094 -1.042969 C -3.203125 -1.039062 -3.265625 -0.949219 -3.265625 -0.84375 C -3.265625 -0.679688 -3.179688 -0.707031 -3.140625 -0.695312 C -2.660156 -0.601562 -2.265625 -0.546875 -1.800781 -0.445312 C -1.214844 -0.3125 -0.667969 -0.210938 -0.113281 -0.0351562 C -0.0234375 -0.0078125 0.0234375 -0.0351562 0.0898438 -0.144531 C 0.121094 -0.195312 0.136719 -0.300781 0.113281 -0.378906 C 0.0117188 -0.703125 -0.0078125 -1.039062 0.03125 -1.421875 C 0.0390625 -1.511719 0.046875 -1.597656 0.0351562 -1.671875 C 0.0234375 -1.777344 0 -1.8125 -0.0585938 -1.808594 Z M -0.0585938 -1.808594 "/>
      </g>
    </g>
  </g>
  <g fill="#000000" fill-opacity="1" transform="matrix(1, 0, 0, 1, 15.814868208987534, 164.82695252935514)">
    <g transform="translate(56.068037, 126.952864)">
      <g>
        <path d="M -2.445312 -2.707031 C -2.597656 -2.628906 -2.683594 -2.527344 -2.746094 -2.371094 C -2.761719 -2.324219 -2.757812 -2.238281 -2.742188 -2.171875 C -2.753906 -2.171875 -2.761719 -2.167969 -2.769531 -2.167969 C -3.117188 -2.101562 -3.3125 -1.746094 -3.234375 -1.359375 C -3.171875 -1.042969 -3.035156 -0.785156 -2.847656 -0.605469 C -2.488281 -0.265625 -2.007812 -0.0585938 -1.496094 -0.0234375 C -1.097656 -0.0117188 -0.867188 -0.0546875 -0.613281 -0.175781 C -0.359375 -0.292969 -0.195312 -0.4375 -0.0273438 -0.703125 C 0.101562 -0.914062 0.15625 -1.183594 0.132812 -1.433594 C 0.101562 -1.734375 -0.0351562 -2.023438 -0.277344 -2.269531 C -0.496094 -2.492188 -0.75 -2.652344 -1.046875 -2.746094 C -1.582031 -2.925781 -2.070312 -2.910156 -2.445312 -2.707031 Z M -1.691406 -2.519531 C -0.964844 -2.414062 -0.472656 -2.136719 -0.230469 -1.679688 C -0.109375 -1.441406 -0.0820312 -1.210938 -0.164062 -0.988281 C -0.214844 -0.839844 -0.347656 -0.695312 -0.542969 -0.582031 C -0.722656 -0.472656 -0.851562 -0.429688 -1.03125 -0.410156 C -1.207031 -0.390625 -1.402344 -0.394531 -1.609375 -0.421875 C -1.800781 -0.449219 -2.058594 -0.496094 -2.46875 -0.75 C -2.746094 -0.921875 -2.917969 -1.167969 -3 -1.507812 C -3.027344 -1.617188 -3.011719 -1.6875 -2.964844 -1.757812 C -2.949219 -1.78125 -2.90625 -1.800781 -2.808594 -1.816406 C -2.746094 -1.828125 -2.65625 -1.808594 -2.582031 -1.777344 C -2.484375 -1.742188 -2.445312 -1.753906 -2.398438 -1.851562 C -2.355469 -1.917969 -2.382812 -2.042969 -2.445312 -2.097656 C -2.507812 -2.140625 -2.5625 -2.164062 -2.621094 -2.171875 C -2.605469 -2.199219 -2.59375 -2.234375 -2.570312 -2.261719 C -2.511719 -2.347656 -2.070312 -2.574219 -1.691406 -2.519531 Z M -1.691406 -2.519531 "/>
      </g>
    </g>
  </g>
  <g fill="#000000" fill-opacity="1" transform="matrix(1, 0, 0, 1, 15.814868208987534, 164.82695252935514)">
    <g transform="translate(56.068037, 123.831383)">
      <g>
        <path d="M 0.0898438 -1.015625 C 0.0859375 -1.425781 -0.132812 -1.746094 -0.382812 -1.925781 C -0.542969 -2.035156 -0.695312 -2.117188 -0.851562 -2.128906 C -1.144531 -2.144531 -1.425781 -1.976562 -1.714844 -1.625 C -1.878906 -1.417969 -2.007812 -1.195312 -2.128906 -0.929688 C -2.222656 -0.730469 -2.378906 -0.675781 -2.511719 -0.769531 C -2.683594 -0.898438 -2.820312 -1.09375 -2.976562 -1.429688 L -2.972656 -1.421875 C -2.980469 -1.453125 -3.042969 -1.640625 -3.03125 -1.800781 L -3.03125 -1.796875 C -3.027344 -1.835938 -3.019531 -1.839844 -2.957031 -1.808594 C -2.871094 -1.773438 -2.8125 -1.730469 -2.710938 -1.652344 C -2.609375 -1.578125 -2.589844 -1.578125 -2.542969 -1.640625 C -2.492188 -1.699219 -2.523438 -1.890625 -2.601562 -1.980469 C -2.664062 -2.054688 -2.742188 -2.101562 -2.882812 -2.15625 C -2.992188 -2.195312 -3.042969 -2.183594 -3.125 -2.085938 C -3.265625 -1.925781 -3.304688 -1.6875 -3.230469 -1.394531 C -3.15625 -1.117188 -3.019531 -0.855469 -2.828125 -0.640625 C -2.457031 -0.230469 -2.082031 -0.269531 -1.851562 -0.746094 C -1.730469 -0.996094 -1.597656 -1.203125 -1.445312 -1.394531 C -1.238281 -1.660156 -1.03125 -1.769531 -0.800781 -1.722656 C -0.363281 -1.625 -0.117188 -1.175781 -0.203125 -0.625 C -0.242188 -0.382812 -0.40625 -0.21875 -0.65625 -0.175781 C -0.757812 -0.160156 -0.859375 -0.171875 -0.964844 -0.171875 L -0.960938 -0.171875 C -0.996094 -0.183594 -1.015625 -0.148438 -1.039062 -0.0898438 L -1.039062 -0.078125 C -1.042969 -0.0351562 -1.03125 0.0195312 -1.007812 0.0351562 C -0.882812 0.128906 -0.796875 0.160156 -0.683594 0.160156 C -0.382812 0.164062 -0.113281 -0.0390625 0.00390625 -0.363281 C 0.0664062 -0.546875 0.09375 -0.765625 0.0898438 -1.015625 Z M 0.0898438 -1.015625 "/>
      </g>
    </g>
  </g>
</svg>