<?xml version="1.0" encoding="utf-8"?>
<svg viewBox="158.2095 166.3925 140.0699 15.9654" xmlns="http://www.w3.org/2000/svg">
  <defs>
    <clipPath id="478adc748f">
      <path d="M 270 5 L 280 5 L 280 13 L 270 13 Z M 270 5 " clip-rule="nonzero"/>
    </clipPath>
    <clipPath id="652206efc9">
      <path d="M 269.105469 0 L 283.867188 2.523438 L 281.972656 13.59375 L 267.214844 11.070312 Z M 269.105469 0 " clip-rule="nonzero"/>
    </clipPath>
    <clipPath id="4a9e19aa8f">
      <path d="M 269.105469 0 L 283.867188 2.523438 L 281.972656 13.59375 L 267.214844 11.070312 Z M 269.105469 0 " clip-rule="nonzero"/>
    </clipPath>
    <clipPath id="8b57847c75">
      <path d="M 269.105469 0 L 283.867188 2.523438 L 281.972656 13.59375 L 267.214844 11.070312 Z M 269.105469 0 " clip-rule="nonzero"/>
    </clipPath>
    <clipPath id="50af2bdced">
      <path d="M 268 1 L 283 1 L 283 9 L 268 9 Z M 268 1 " clip-rule="nonzero"/>
    </clipPath>
    <clipPath id="756f88824a">
      <path d="M 269.105469 0 L 283.867188 2.523438 L 281.972656 13.59375 L 267.214844 11.070312 Z M 269.105469 0 " clip-rule="nonzero"/>
    </clipPath>
    <clipPath id="71131d47d0">
      <path d="M 269.105469 0 L 283.867188 2.523438 L 281.972656 13.59375 L 267.214844 11.070312 Z M 269.105469 0 " clip-rule="nonzero"/>
    </clipPath>
    <clipPath id="70237f2712">
      <path d="M 269.105469 0 L 283.867188 2.523438 L 281.972656 13.59375 L 267.214844 11.070312 Z M 269.105469 0 " clip-rule="nonzero"/>
    </clipPath>
    <clipPath id="20db6b9b5e">
      <path d="M 277 1 L 283 1 L 283 9 L 277 9 Z M 277 1 " clip-rule="nonzero"/>
    </clipPath>
    <clipPath id="e491e49877">
      <path d="M 269.105469 0 L 283.867188 2.523438 L 281.972656 13.59375 L 267.214844 11.070312 Z M 269.105469 0 " clip-rule="nonzero"/>
    </clipPath>
    <clipPath id="f457816258">
      <path d="M 269.105469 0 L 283.867188 2.523438 L 281.972656 13.59375 L 267.214844 11.070312 Z M 269.105469 0 " clip-rule="nonzero"/>
    </clipPath>
    <clipPath id="747f4f3d9f">
      <path d="M 269.105469 0 L 283.867188 2.523438 L 281.972656 13.59375 L 267.214844 11.070312 Z M 269.105469 0 " clip-rule="nonzero"/>
    </clipPath>
    <clipPath id="b6d5a3ebde">
      <path d="M 270 4 L 281 4 L 281 7 L 270 7 Z M 270 4 " clip-rule="nonzero"/>
    </clipPath>
    <clipPath id="e722cd72b9">
      <path d="M 269.105469 0 L 283.867188 2.523438 L 281.972656 13.59375 L 267.214844 11.070312 Z M 269.105469 0 " clip-rule="nonzero"/>
    </clipPath>
    <clipPath id="6824ebf3cd">
      <path d="M 269.105469 0 L 283.867188 2.523438 L 281.972656 13.59375 L 267.214844 11.070312 Z M 269.105469 0 " clip-rule="nonzero"/>
    </clipPath>
    <clipPath id="78e51f8eac">
      <path d="M 269.105469 0 L 283.867188 2.523438 L 281.972656 13.59375 L 267.214844 11.070312 Z M 269.105469 0 " clip-rule="nonzero"/>
    </clipPath>
    <clipPath id="7b03d2a02f">
      <path d="M 278 5 L 281 5 L 281 7 L 278 7 Z M 278 5 " clip-rule="nonzero"/>
    </clipPath>
    <clipPath id="24259d1f47">
      <path d="M 269.105469 0 L 283.867188 2.523438 L 281.972656 13.59375 L 267.214844 11.070312 Z M 269.105469 0 " clip-rule="nonzero"/>
    </clipPath>
    <clipPath id="2c29abf56e">
      <path d="M 269.105469 0 L 283.867188 2.523438 L 281.972656 13.59375 L 267.214844 11.070312 Z M 269.105469 0 " clip-rule="nonzero"/>
    </clipPath>
    <clipPath id="20a5f19a83">
      <path d="M 269.105469 0 L 283.867188 2.523438 L 281.972656 13.59375 L 267.214844 11.070312 Z M 269.105469 0 " clip-rule="nonzero"/>
    </clipPath>
    <clipPath id="58fe5a5060">
      <path d="M 273 3 L 275 3 L 275 5 L 273 5 Z M 273 3 " clip-rule="nonzero"/>
    </clipPath>
    <clipPath id="ad41426902">
      <path d="M 269.105469 0 L 283.867188 2.523438 L 281.972656 13.59375 L 267.214844 11.070312 Z M 269.105469 0 " clip-rule="nonzero"/>
    </clipPath>
    <clipPath id="cecf922902">
      <path d="M 269.105469 0 L 283.867188 2.523438 L 281.972656 13.59375 L 267.214844 11.070312 Z M 269.105469 0 " clip-rule="nonzero"/>
    </clipPath>
    <clipPath id="3ad34cafa5">
      <path d="M 269.105469 0 L 283.867188 2.523438 L 281.972656 13.59375 L 267.214844 11.070312 Z M 269.105469 0 " clip-rule="nonzero"/>
    </clipPath>
    <clipPath id="5031569267">
      <path d="M 276 3 L 277 3 L 277 5 L 276 5 Z M 276 3 " clip-rule="nonzero"/>
    </clipPath>
    <clipPath id="c68ae795da">
      <path d="M 269.105469 0 L 283.867188 2.523438 L 281.972656 13.59375 L 267.214844 11.070312 Z M 269.105469 0 " clip-rule="nonzero"/>
    </clipPath>
    <clipPath id="944706c591">
      <path d="M 269.105469 0 L 283.867188 2.523438 L 281.972656 13.59375 L 267.214844 11.070312 Z M 269.105469 0 " clip-rule="nonzero"/>
    </clipPath>
    <clipPath id="2497ce658a">
      <path d="M 269.105469 0 L 283.867188 2.523438 L 281.972656 13.59375 L 267.214844 11.070312 Z M 269.105469 0 " clip-rule="nonzero"/>
    </clipPath>
    <clipPath id="b398e99408">
      <path d="M 272 2 L 274 2 L 274 3 L 272 3 Z M 272 2 " clip-rule="nonzero"/>
    </clipPath>
    <clipPath id="07672f6c35">
      <path d="M 269.105469 0 L 283.867188 2.523438 L 281.972656 13.59375 L 267.214844 11.070312 Z M 269.105469 0 " clip-rule="nonzero"/>
    </clipPath>
    <clipPath id="3a693b0106">
      <path d="M 269.105469 0 L 283.867188 2.523438 L 281.972656 13.59375 L 267.214844 11.070312 Z M 269.105469 0 " clip-rule="nonzero"/>
    </clipPath>
    <clipPath id="d79c7efaa6">
      <path d="M 269.105469 0 L 283.867188 2.523438 L 281.972656 13.59375 L 267.214844 11.070312 Z M 269.105469 0 " clip-rule="nonzero"/>
    </clipPath>
    <clipPath id="941a9a9639">
      <path d="M 271 2 L 273 2 L 273 4 L 271 4 Z M 271 2 " clip-rule="nonzero"/>
    </clipPath>
    <clipPath id="2e83572e57">
      <path d="M 269.105469 0 L 283.867188 2.523438 L 281.972656 13.59375 L 267.214844 11.070312 Z M 269.105469 0 " clip-rule="nonzero"/>
    </clipPath>
    <clipPath id="39d2bd9528">
      <path d="M 269.105469 0 L 283.867188 2.523438 L 281.972656 13.59375 L 267.214844 11.070312 Z M 269.105469 0 " clip-rule="nonzero"/>
    </clipPath>
    <clipPath id="aa9dcb7cbb">
      <path d="M 269.105469 0 L 283.867188 2.523438 L 281.972656 13.59375 L 267.214844 11.070312 Z M 269.105469 0 " clip-rule="nonzero"/>
    </clipPath>
  </defs>
  <g fill="#ffde59" fill-opacity="1" transform="matrix(1, 0, 0, 1, 15.81486820898752, 164.82695252935514)">
    <g transform="translate(142.311808, 15.373461)">
      <g>
        <path d="M 4.316406 -12.054688 C 3.183594 -12.054688 1.953125 -12.039062 0.957031 -11.488281 C 0.515625 -11.265625 0.496094 -11.128906 0.804688 -10.875 C 0.941406 -10.753906 1.796875 -10.804688 2.347656 -10.941406 C 2.652344 -11.027344 2.484375 -11.078125 2.414062 -10.71875 C 2.003906 -8.339844 1.457031 -6.042969 0.90625 -3.765625 C 0.582031 -2.347656 0.359375 -1.660156 0.101562 -0.292969 C 0.0351562 0.121094 0.136719 0.292969 0.546875 0.394531 C 0.992188 0.515625 1.386719 0.308594 1.472656 -0.0703125 L 1.507812 -0.238281 C 1.796875 -1.695312 2.089844 -2.960938 2.378906 -4.210938 C 2.621094 -4.042969 3.132812 -3.957031 3.699219 -4.007812 C 5.667969 -4.230469 7.449219 -5.324219 8.269531 -7.019531 C 9.417969 -9.433594 7.347656 -12.039062 4.316406 -12.054688 Z M 7.226562 -8.785156 C 7.210938 -7.929688 6.933594 -7.210938 6.300781 -6.472656 C 5.496094 -5.566406 4.332031 -5.015625 3.097656 -4.828125 L 3.046875 -4.828125 C 2.996094 -4.8125 2.722656 -4.792969 2.5 -4.726562 C 2.738281 -5.71875 2.980469 -6.710938 3.238281 -7.84375 C 3.441406 -8.800781 3.679688 -9.742188 3.734375 -10.71875 C 3.75 -11.0625 3.476562 -11.128906 3.5625 -11.183594 L 3.578125 -11.183594 C 3.75 -11.285156 4.898438 -11.488281 6.335938 -10.652344 C 6.847656 -10.359375 7.242188 -9.519531 7.226562 -8.785156 Z M 7.226562 -8.785156 " style=""/>
      </g>
    </g>
  </g>
  <g fill="#ffde59" fill-opacity="1" transform="matrix(1, 0, 0, 1, 15.81486820898752, 164.82695252935514)">
    <g transform="translate(151.506635, 15.373461)">
      <g>
        <path d="M 6.796875 -0.222656 C 6.765625 -0.632812 5.804688 -0.957031 4.710938 -0.957031 C 3.527344 -0.957031 2.757812 -0.734375 1.644531 -0.546875 C 1.660156 -0.566406 1.660156 -0.582031 1.679688 -0.617188 C 2.125 -2.414062 2.570312 -4.023438 2.945312 -5.789062 C 3.339844 -7.636719 3.648438 -9.144531 3.871094 -10.992188 C 3.886719 -11.265625 3.921875 -11.488281 3.921875 -11.730469 C 3.902344 -12.039062 3.5625 -12.277344 3.167969 -12.277344 C 2.550781 -12.277344 2.652344 -11.953125 2.621094 -11.796875 C 2.261719 -10 2.054688 -8.511719 1.679688 -6.765625 C 1.179688 -4.570312 0.789062 -2.515625 0.136719 -0.429688 C 0.0351562 -0.0859375 0.136719 0.0859375 0.546875 0.34375 C 0.734375 0.460938 1.128906 0.515625 1.421875 0.429688 C 2.636719 0.0507812 3.902344 -0.0351562 5.34375 0.121094 C 5.683594 0.152344 6.011719 0.171875 6.285156 0.136719 C 6.679688 0.0859375 6.816406 0 6.796875 -0.222656 Z M 6.796875 -0.222656 "/>
      </g>
    </g>
  </g>
  <g fill="#ffde59" fill-opacity="1" transform="matrix(1, 0, 0, 1, 15.81486820898752, 164.82695252935514)">
    <g transform="translate(159.246042, 15.373461)">
      <g>
        <path d="M 6.867188 0.324219 C 7.328125 0.171875 7.414062 -0.0703125 7.140625 -0.445312 C 6.746094 -0.957031 6.523438 -2.089844 6.457031 -3.988281 C 6.386719 -5.683594 6.574219 -8.441406 6.832031 -10.238281 C 6.902344 -10.769531 7.019531 -11.214844 6.953125 -11.730469 C 6.917969 -11.96875 6.457031 -12.226562 6.0625 -12.226562 L 6.078125 -12.226562 C 5.480469 -12.261719 5.207031 -12.105469 4.847656 -11.507812 C 3.679688 -9.519531 2.484375 -7.054688 1.574219 -5 C 1.558594 -4.964844 1.558594 -4.929688 1.542969 -4.898438 L 1.523438 -4.898438 C 1.113281 -4.929688 0.703125 -4.898438 0.324219 -4.828125 L 0.292969 -4.828125 C 0.222656 -4.792969 -0.0859375 -4.761719 -0.152344 -4.589844 C -0.222656 -4.417969 -0.152344 -4.347656 0.136719 -4.179688 L 0.152344 -4.179688 C 0.375 -4.058594 0.753906 -3.988281 1.0625 -4.023438 L 1.078125 -4.023438 C 1.042969 -3.988281 1.011719 -3.9375 0.992188 -3.886719 C 0.617188 -3.132812 0.273438 -2.429688 -0.0351562 -1.746094 C -0.257812 -1.25 -0.445312 -0.769531 -0.667969 -0.375 C -0.855469 -0.0507812 -0.769531 0.121094 -0.34375 0.257812 C -0.015625 0.359375 0.496094 0.222656 0.617188 -0.015625 C 1.265625 -1.386719 1.847656 -2.601562 2.414062 -3.851562 C 2.5 -4.058594 2.484375 -4.058594 2.601562 -4.058594 C 3.40625 -4.058594 4.179688 -4.160156 4.964844 -4.144531 C 5.121094 -4.144531 5.121094 -4.125 5.136719 -3.628906 C 5.222656 -1.796875 5.460938 -0.703125 5.960938 0 C 6.128906 0.238281 6.59375 0.410156 6.867188 0.324219 Z M 2.929688 -4.964844 C 2.929688 -4.984375 2.945312 -5.015625 2.960938 -5.070312 C 3.679688 -6.523438 4.28125 -7.792969 4.777344 -8.871094 C 5 -9.347656 5.257812 -9.792969 5.460938 -10.085938 C 5.152344 -8.542969 5.136719 -6.832031 5.070312 -5.597656 C 5.070312 -5.597656 5.015625 -5.070312 5.035156 -5.070312 C 4.347656 -5.070312 3.578125 -4.984375 2.929688 -4.964844 Z M 2.929688 -4.964844 "/>
      </g>
    </g>
  </g>
  <g fill="#ffde59" fill-opacity="1" transform="matrix(1, 0, 0, 1, 15.81486820898752, 164.82695252935514)">
    <g transform="translate(168.166907, 15.373461)">
      <g>
        <path d="M 9.589844 -11.695312 L 9.605469 -11.679688 C 9.539062 -11.847656 9.265625 -12.019531 9.042969 -11.988281 L 9.007812 -11.988281 C 8.75 -11.917969 8.699219 -11.867188 8.699219 -11.59375 C 8.699219 -9.519531 8.441406 -7.328125 7.960938 -5.375 C 7.585938 -3.765625 7.242188 -2.261719 6.4375 -0.941406 C 6.164062 -0.480469 6.113281 -0.410156 6.042969 -0.429688 C 5.925781 -0.445312 5.804688 -0.632812 5.632812 -1.0625 L 5.617188 -1.078125 L 5.582031 -1.148438 C 5.257812 -1.902344 5.207031 -2.808594 5.101562 -3.699219 C 4.898438 -5.445312 4.726562 -7.378906 4.488281 -9.179688 C 4.402344 -9.777344 4.332031 -10.375 4.230469 -11.027344 C 4.195312 -11.320312 3.851562 -11.523438 3.425781 -11.523438 C 3.015625 -11.523438 2.824219 -11.351562 2.773438 -11.011719 C 2.6875 -10.445312 2.570312 -9.949219 2.464844 -9.539062 C 2.125 -8.339844 1.78125 -6.953125 1.421875 -5.445312 C 0.957031 -3.613281 0.566406 -1.78125 0.121094 -0.015625 C 0.0507812 0.292969 0.152344 0.445312 0.53125 0.582031 C 0.855469 0.703125 1.25 0.566406 1.335938 0.308594 C 1.4375 0.0507812 1.542969 -0.1875 1.59375 -0.375 C 1.953125 -1.816406 2.226562 -3.21875 2.601562 -4.554688 C 2.859375 -5.410156 3.082031 -6.335938 3.304688 -7.226562 C 3.304688 -7.125 3.320312 -7.039062 3.320312 -6.953125 C 3.40625 -5.375 3.664062 -3.820312 3.957031 -2.261719 C 4.160156 -1.199219 4.433594 -0.617188 5.015625 -0.0703125 C 5.703125 0.617188 6.796875 0.566406 7.398438 -0.171875 C 7.792969 -0.683594 8.183594 -1.148438 8.355469 -1.660156 C 9.332031 -4.402344 9.726562 -7.363281 9.863281 -10.273438 C 9.898438 -10.960938 9.863281 -11.199219 9.589844 -11.695312 Z M 9.589844 -11.695312 "/>
      </g>
    </g>
  </g>
  <g fill="#ffde59" fill-opacity="1" transform="matrix(1, 0, 0, 1, 15.81486820898752, 164.82695252935514)">
    <g transform="translate(179.159604, 15.373461)">
      <g>
        <path d="M 9.589844 -11.695312 L 9.605469 -11.679688 C 9.539062 -11.847656 9.265625 -12.019531 9.042969 -11.988281 L 9.007812 -11.988281 C 8.75 -11.917969 8.699219 -11.867188 8.699219 -11.59375 C 8.699219 -9.519531 8.441406 -7.328125 7.960938 -5.375 C 7.585938 -3.765625 7.242188 -2.261719 6.4375 -0.941406 C 6.164062 -0.480469 6.113281 -0.410156 6.042969 -0.429688 C 5.925781 -0.445312 5.804688 -0.632812 5.632812 -1.0625 L 5.617188 -1.078125 L 5.582031 -1.148438 C 5.257812 -1.902344 5.207031 -2.808594 5.101562 -3.699219 C 4.898438 -5.445312 4.726562 -7.378906 4.488281 -9.179688 C 4.402344 -9.777344 4.332031 -10.375 4.230469 -11.027344 C 4.195312 -11.320312 3.851562 -11.523438 3.425781 -11.523438 C 3.015625 -11.523438 2.824219 -11.351562 2.773438 -11.011719 C 2.6875 -10.445312 2.570312 -9.949219 2.464844 -9.539062 C 2.125 -8.339844 1.78125 -6.953125 1.421875 -5.445312 C 0.957031 -3.613281 0.566406 -1.78125 0.121094 -0.015625 C 0.0507812 0.292969 0.152344 0.445312 0.53125 0.582031 C 0.855469 0.703125 1.25 0.566406 1.335938 0.308594 C 1.4375 0.0507812 1.542969 -0.1875 1.59375 -0.375 C 1.953125 -1.816406 2.226562 -3.21875 2.601562 -4.554688 C 2.859375 -5.410156 3.082031 -6.335938 3.304688 -7.226562 C 3.304688 -7.125 3.320312 -7.039062 3.320312 -6.953125 C 3.40625 -5.375 3.664062 -3.820312 3.957031 -2.261719 C 4.160156 -1.199219 4.433594 -0.617188 5.015625 -0.0703125 C 5.703125 0.617188 6.796875 0.566406 7.398438 -0.171875 C 7.792969 -0.683594 8.183594 -1.148438 8.355469 -1.660156 C 9.332031 -4.402344 9.726562 -7.363281 9.863281 -10.273438 C 9.898438 -10.960938 9.863281 -11.199219 9.589844 -11.695312 Z M 9.589844 -11.695312 "/>
      </g>
    </g>
  </g>
  <g fill="#ffde59" fill-opacity="1" transform="matrix(1, 0, 0, 1, 15.81486820898752, 164.82695252935514)">
    <g transform="translate(190.152301, 15.373461)">
      <g>
        <path d="M 7.019531 -11.796875 C 6.867188 -11.953125 6.507812 -11.933594 6.421875 -11.953125 L 6.386719 -11.953125 C 5.597656 -11.953125 4.984375 -11.917969 4.503906 -11.882812 C 3.441406 -11.816406 2.652344 -11.96875 1.847656 -11.867188 C 1.371094 -11.796875 1.300781 -11.765625 1.285156 -11.574219 C 1.265625 -11.351562 1.351562 -11.234375 1.625 -11.0625 C 2.003906 -10.839844 2.875 -10.976562 3.492188 -10.992188 L 3.542969 -10.992188 C 3.527344 -10.976562 3.511719 -10.925781 3.492188 -10.839844 C 3.355469 -10.273438 3.289062 -9.710938 3.152344 -9.246094 L 3.132812 -9.230469 C 2.601562 -6.523438 2.070312 -3.835938 1.609375 -1.128906 C 1.59375 -1.042969 1.609375 -0.992188 1.609375 -0.957031 L 1.558594 -0.957031 C 0.890625 -0.941406 0.207031 -0.890625 -0.429688 -0.855469 C -0.890625 -0.820312 -1.011719 -0.683594 -0.890625 -0.34375 C -0.753906 0.0507812 -0.410156 0.1875 0.34375 0.152344 C 0.992188 0.121094 1.507812 0.0703125 2.140625 0.0703125 C 3.40625 0.0507812 4.195312 0.015625 4.964844 -0.015625 C 5.375 -0.0351562 5.597656 -0.292969 5.582031 -0.683594 C 5.566406 -0.941406 5.34375 -1.0625 4.898438 -1.0625 C 4.402344 -1.0625 3.527344 -0.976562 3.066406 -0.941406 C 2.894531 -0.925781 2.945312 -0.875 2.996094 -1.179688 C 3.21875 -2.707031 3.527344 -3.988281 3.820312 -5.410156 C 4.179688 -7.261719 4.519531 -9.109375 4.828125 -10.804688 C 4.863281 -11.011719 4.828125 -10.992188 4.964844 -11.011719 C 5.597656 -11.113281 6.148438 -11.011719 6.78125 -11.042969 C 7.328125 -11.078125 7.449219 -11.40625 7.019531 -11.796875 Z M 7.019531 -11.796875 "/>
      </g>
    </g>
  </g>
  <g fill="#ffde59" fill-opacity="1" transform="matrix(1, 0, 0, 1, 15.81486820898752, 164.82695252935514)">
    <g transform="translate(197.515007, 15.373461)">
      <g>
        <path d="M 9.589844 -11.695312 L 9.605469 -11.679688 C 9.539062 -11.847656 9.265625 -12.019531 9.042969 -11.988281 L 9.007812 -11.988281 C 8.75 -11.917969 8.699219 -11.867188 8.699219 -11.59375 C 8.699219 -9.519531 8.441406 -7.328125 7.960938 -5.375 C 7.585938 -3.765625 7.242188 -2.261719 6.4375 -0.941406 C 6.164062 -0.480469 6.113281 -0.410156 6.042969 -0.429688 C 5.925781 -0.445312 5.804688 -0.632812 5.632812 -1.0625 L 5.617188 -1.078125 L 5.582031 -1.148438 C 5.257812 -1.902344 5.207031 -2.808594 5.101562 -3.699219 C 4.898438 -5.445312 4.726562 -7.378906 4.488281 -9.179688 C 4.402344 -9.777344 4.332031 -10.375 4.230469 -11.027344 C 4.195312 -11.320312 3.851562 -11.523438 3.425781 -11.523438 C 3.015625 -11.523438 2.824219 -11.351562 2.773438 -11.011719 C 2.6875 -10.445312 2.570312 -9.949219 2.464844 -9.539062 C 2.125 -8.339844 1.78125 -6.953125 1.421875 -5.445312 C 0.957031 -3.613281 0.566406 -1.78125 0.121094 -0.015625 C 0.0507812 0.292969 0.152344 0.445312 0.53125 0.582031 C 0.855469 0.703125 1.25 0.566406 1.335938 0.308594 C 1.4375 0.0507812 1.542969 -0.1875 1.59375 -0.375 C 1.953125 -1.816406 2.226562 -3.21875 2.601562 -4.554688 C 2.859375 -5.410156 3.082031 -6.335938 3.304688 -7.226562 C 3.304688 -7.125 3.320312 -7.039062 3.320312 -6.953125 C 3.40625 -5.375 3.664062 -3.820312 3.957031 -2.261719 C 4.160156 -1.199219 4.433594 -0.617188 5.015625 -0.0703125 C 5.703125 0.617188 6.796875 0.566406 7.398438 -0.171875 C 7.792969 -0.683594 8.183594 -1.148438 8.355469 -1.660156 C 9.332031 -4.402344 9.726562 -7.363281 9.863281 -10.273438 C 9.898438 -10.960938 9.863281 -11.199219 9.589844 -11.695312 Z M 9.589844 -11.695312 "/>
      </g>
    </g>
  </g>
  <g fill="#ffde59" fill-opacity="1" transform="matrix(1, 0, 0, 1, 15.81486820898752, 164.82695252935514)">
    <g transform="translate(208.507702, 15.373461)">
      <g>
        <path d="M 9.417969 -5.050781 C 9.589844 -5.855469 9.125 -6.234375 8.238281 -6.097656 C 7.515625 -5.976562 6.867188 -5.855469 6.164062 -5.960938 L 6.148438 -5.960938 C 5.683594 -6.011719 5.445312 -5.890625 5.429688 -5.652344 L 5.429688 -5.667969 C 5.375 -5.394531 5.582031 -5.257812 6.078125 -5.171875 C 6.644531 -5.085938 7.261719 -5 7.894531 -5.085938 C 7.945312 -4.964844 7.5 -3.972656 7.398438 -3.679688 C 6.902344 -2.175781 5.769531 -0.992188 4.519531 -0.617188 C 3.269531 -0.238281 2.277344 -0.976562 1.832031 -2.585938 C 1.335938 -4.433594 1.457031 -5.753906 2.292969 -7.707031 C 2.980469 -9.332031 3.714844 -10.222656 5.015625 -11.042969 C 5.410156 -11.285156 5.976562 -11.523438 6.25 -11.558594 C 7.070312 -11.660156 7.515625 -11.164062 7.3125 -10.410156 C 7.210938 -10 7.105469 -9.710938 6.988281 -9.519531 C 6.765625 -9.230469 6.765625 -9.246094 6.917969 -9.09375 L 6.902344 -9.09375 C 7.019531 -8.957031 7.378906 -8.9375 7.738281 -9.109375 C 8.5625 -9.453125 8.9375 -10.738281 8.390625 -11.472656 C 7.84375 -12.226562 6.765625 -12.585938 5.652344 -12.398438 C 4.367188 -12.175781 3.238281 -11.457031 2.292969 -10.257812 C -0.0507812 -7.242188 -1.214844 -2.070312 2.398438 0.0507812 C 3.390625 0.652344 4.710938 0.617188 5.960938 -0.0507812 C 6.386719 -0.273438 6.78125 -0.53125 7.054688 -0.769531 C 7.054688 -0.566406 7.054688 -0.359375 7.089844 -0.152344 C 7.191406 0.617188 7.378906 0.957031 7.894531 1.300781 C 8.117188 1.457031 8.425781 1.472656 8.5625 1.371094 L 8.597656 1.351562 C 8.800781 1.148438 8.820312 1.0625 8.699219 0.820312 C 8.289062 -0.015625 8.5625 -0.992188 8.664062 -1.867188 C 8.785156 -2.996094 9.230469 -4.007812 9.417969 -5.050781 Z M 9.417969 -5.050781 "/>
      </g>
    </g>
  </g>
  <g fill="#fef9ef" fill-opacity="1" transform="matrix(1, 0, 0, 1, 15.81486820898752, 164.82695252935514)">
    <g transform="translate(221.548213, 14.343496)">
      <g>
        <path d="M 5.585938 -0.503906 C 6.144531 -1.0625 6.296875 -1.335938 6.234375 -1.777344 C 6.195312 -2.0625 6.066406 -2.203125 5.804688 -2.269531 L 5.832031 -2.269531 C 5.441406 -2.382812 5.378906 -1.96875 5.367188 -1.957031 L 5.351562 -1.945312 C 4.703125 -0.765625 3.292969 0.0117188 2.410156 -0.519531 C 1.800781 -0.882812 1.503906 -1.375 1.296875 -2.359375 C 1.167969 -2.992188 1.179688 -3.617188 1.335938 -4.355469 C 1.644531 -5.832031 2.085938 -6.675781 3.070312 -7.683594 C 3.5625 -8.191406 3.992188 -8.515625 4.613281 -8.554688 C 4.9375 -8.578125 5.117188 -8.4375 5.171875 -8.136719 C 5.261719 -7.59375 5.09375 -7.074219 4.769531 -6.816406 C 4.457031 -6.570312 4.433594 -6.53125 4.640625 -6.3125 C 4.820312 -6.105469 5.171875 -6.066406 5.390625 -6.207031 C 5.898438 -6.519531 6.128906 -6.921875 6.144531 -7.503906 C 6.183594 -8.96875 4.601562 -9.5625 3.550781 -9.109375 C 2.8125 -8.785156 2.308594 -8.28125 1.890625 -7.800781 C 0.921875 -6.699219 0.519531 -5.871094 0.234375 -4.445312 C -0.0390625 -2.992188 0.0117188 -2.203125 0.464844 -1.359375 C 1.492188 0.570312 4.082031 0.996094 5.585938 -0.503906 Z M 5.585938 -0.503906 " style="fill: rgb(186, 218, 85);"/>
      </g>
    </g>
  </g>
  <g fill="#fef9ef" fill-opacity="1" transform="matrix(1, 0, 0, 1, 15.81486820898752, 164.82695252935514)">
    <g transform="translate(228.566981, 14.343496)">
      <g>
        <path d="M 0.960938 0.117188 C 1.527344 0.296875 2.085938 0.0898438 2.515625 -0.464844 L 2.5 -0.464844 L 2.617188 -0.597656 C 2.941406 0.128906 4.015625 0.257812 4.664062 -0.375 C 5.027344 -0.710938 5.351562 -1.152344 5.585938 -1.605469 C 5.6875 -1.8125 5.675781 -1.929688 5.507812 -2.164062 L 5.496094 -2.164062 C 5.351562 -2.332031 5.09375 -2.253906 4.898438 -1.917969 C 4.664062 -1.515625 4.550781 -1.398438 4.328125 -1.140625 C 4.148438 -0.90625 3.769531 -0.609375 3.550781 -0.699219 C 3.410156 -0.75 3.382812 -1.050781 3.371094 -1.296875 C 3.34375 -1.945312 3.65625 -2.695312 3.746094 -3.175781 C 3.808594 -3.539062 3.730469 -3.667969 3.371094 -3.757812 C 3.03125 -3.847656 2.851562 -3.71875 2.746094 -3.371094 C 2.515625 -2.59375 2.269531 -1.75 1.761719 -1.023438 C 1.566406 -0.765625 1.464844 -0.609375 1.296875 -0.542969 C 1.167969 -0.480469 1.207031 -0.480469 1.0625 -0.660156 C 0.855469 -0.90625 0.894531 -1.347656 0.855469 -1.789062 C 0.90625 -2.890625 1.21875 -3.863281 1.789062 -4.664062 C 2.332031 -5.402344 2.566406 -5.46875 2.914062 -5.027344 C 3.046875 -4.886719 3.007812 -4.703125 3.019531 -4.550781 C 3.03125 -4.328125 3.277344 -4.160156 3.550781 -4.1875 C 3.808594 -4.210938 3.925781 -4.355469 3.925781 -4.625 C 3.902344 -5.183594 3.355469 -5.765625 2.683594 -5.921875 L 2.695312 -5.921875 C 2.332031 -6.027344 1.929688 -5.949219 1.632812 -5.714844 C 1.074219 -5.273438 0.710938 -4.808594 0.414062 -4.148438 C -0.0117188 -3.175781 -0.3125 -2.320312 -0.15625 -1.257812 C -0.0390625 -0.542969 0.3125 -0.105469 0.960938 0.117188 Z M 0.960938 0.117188 " style="fill: rgb(186, 218, 85);"/>
      </g>
    </g>
  </g>
  <g fill="#fef9ef" fill-opacity="1" transform="matrix(1, 0, 0, 1, 15.81486820898752, 164.82695252935514)">
    <g transform="translate(233.695086, 14.343496)">
      <g>
        <path d="M 7.867188 -2.136719 L 7.855469 -2.136719 C 7.453125 -2.214844 7.375 -1.867188 7.335938 -1.800781 C 7.011719 -1.230469 6.804688 -0.933594 6.234375 -0.597656 C 5.804688 -0.351562 5.6875 -0.375 5.652344 -0.828125 C 5.585938 -1.453125 5.714844 -1.917969 5.859375 -2.515625 C 6.066406 -3.421875 6.273438 -4.015625 6.492188 -4.859375 C 6.558594 -5.15625 6.480469 -5.351562 6.207031 -5.574219 L 6.21875 -5.558594 C 6.066406 -5.714844 5.636719 -5.742188 5.402344 -5.613281 C 5.25 -5.535156 5.09375 -5.417969 4.964844 -5.289062 C 4.585938 -4.910156 4.238281 -4.535156 3.953125 -4.148438 L 4.148438 -5.09375 C 4.226562 -5.441406 4.109375 -5.664062 3.769531 -5.871094 C 3.460938 -6.050781 2.785156 -6.027344 2.515625 -5.820312 C 2.097656 -5.480469 1.800781 -5.132812 1.4375 -4.5625 C 1.359375 -4.433594 1.269531 -4.289062 1.191406 -4.148438 C 1.296875 -4.625 1.398438 -5.117188 1.425781 -5.597656 C 1.425781 -5.871094 1.308594 -6.011719 1.011719 -6.089844 L 0.996094 -6.089844 C 0.699219 -6.15625 0.558594 -6.027344 0.519531 -5.742188 C 0.363281 -4.585938 0.0273438 -3.484375 -0.128906 -2.371094 C -0.207031 -1.789062 -0.324219 -1.257812 -0.425781 -0.726562 C -0.480469 -0.464844 -0.351562 -0.3125 0 -0.179688 C 0.234375 -0.105469 0.480469 -0.195312 0.570312 -0.414062 C 0.789062 -0.945312 0.921875 -1.425781 1.089844 -1.867188 C 1.503906 -2.953125 1.878906 -3.824219 2.566406 -4.625 C 2.800781 -4.898438 3.148438 -5.195312 3.277344 -5.273438 C 3.226562 -5.09375 2.929688 -4.082031 2.902344 -4.015625 C 2.65625 -2.980469 2.460938 -2.527344 2.292969 -1.515625 C 2.242188 -1.242188 2.382812 -1.050781 2.722656 -0.921875 L 2.707031 -0.921875 C 2.902344 -0.828125 3.148438 -0.933594 3.277344 -1.167969 C 3.914062 -2.410156 4.523438 -3.617188 5.351562 -4.601562 C 5.351562 -4.574219 5.339844 -4.5625 5.339844 -4.535156 C 5.066406 -3.355469 4.730469 -2.628906 4.640625 -1.464844 C 4.613281 -1.113281 4.640625 -0.84375 4.757812 -0.519531 C 4.964844 0.078125 5.859375 0.402344 6.542969 0.128906 C 7.632812 -0.296875 7.855469 -1.011719 8.035156 -1.425781 C 8.175781 -1.761719 8.136719 -2.0625 7.867188 -2.136719 Z M 7.867188 -2.136719 " style="fill: rgb(186, 218, 85);"/>
      </g>
    </g>
  </g>
  <g fill="#fef9ef" fill-opacity="1" transform="matrix(1, 0, 0, 1, 15.81486820898752, 164.82695252935514)">
    <g transform="translate(241.283646, 14.343496)">
      <g>
        <path d="M 4.121094 -4.535156 C 4.09375 -5.117188 3.863281 -5.441406 3.34375 -5.675781 C 2.914062 -5.871094 2.421875 -5.765625 2.007812 -5.417969 C 1.644531 -5.09375 1.503906 -4.757812 1.257812 -4.433594 C 1.335938 -4.859375 1.398438 -5.027344 1.414062 -5.390625 C 1.425781 -5.675781 1.269531 -5.832031 0.945312 -5.871094 L 0.960938 -5.871094 C 0.660156 -5.921875 0.542969 -5.820312 0.480469 -5.535156 C 0.117188 -3.707031 -0.21875 -1.890625 -0.570312 -0.117188 C -0.75 0.804688 -0.855469 1.738281 -0.972656 2.65625 C -0.996094 2.941406 -0.816406 3.109375 -0.464844 3.175781 C -0.207031 3.226562 0.0273438 3.109375 0.0664062 2.878906 C 0.257812 1.671875 0.453125 0.464844 0.648438 -0.726562 L 0.777344 -0.519531 C 0.816406 -0.464844 0.882812 -0.390625 0.972656 -0.324219 C 1.699219 0.15625 2.695312 0.0390625 3.109375 -0.621094 C 3.226562 -0.804688 3.355469 -0.984375 3.410156 -1.101562 C 3.992188 -2.175781 4.210938 -3.292969 4.121094 -4.535156 Z M 2.269531 -1.074219 C 1.945312 -0.636719 1.621094 -0.609375 1.230469 -0.867188 C 1.152344 -0.945312 0.921875 -1.152344 0.699219 -1.0625 C 0.726562 -1.207031 0.738281 -1.347656 0.765625 -1.492188 C 0.882812 -2.371094 1.128906 -3.046875 1.476562 -3.523438 C 1.96875 -4.1875 2.4375 -4.679688 2.890625 -5.042969 C 3.097656 -5.210938 2.992188 -5.25 3.109375 -4.925781 C 3.175781 -4.703125 3.148438 -4.417969 3.164062 -4.226562 C 3.136719 -3.058594 2.773438 -1.777344 2.269531 -1.074219 Z M 2.269531 -1.074219 " style="fill: rgb(186, 218, 85);"/>
      </g>
    </g>
  </g>
  <g fill="#fef9ef" fill-opacity="1" transform="matrix(1, 0, 0, 1, 15.81486820898752, 164.82695252935514)">
    <g transform="translate(246.204555, 14.343496)">
      <g>
        <path d="M 0.648438 -6.53125 C 0.789062 -6.414062 1.101562 -6.441406 1.230469 -6.570312 C 1.621094 -7.074219 1.945312 -7.582031 2.023438 -8.035156 C 2.085938 -8.59375 1.984375 -8.890625 1.632812 -9.1875 C 1.515625 -9.277344 1.230469 -9.292969 1.113281 -9.214844 C 0.945312 -9.097656 0.945312 -9.109375 1.023438 -8.917969 C 1.140625 -8.59375 1.128906 -8.203125 0.972656 -7.828125 C 0.804688 -7.4375 0.660156 -7.167969 0.53125 -6.960938 C 0.414062 -6.777344 0.425781 -6.738281 0.621094 -6.542969 Z M 0.648438 -6.53125 " style="fill: rgb(186, 218, 85);"/>
      </g>
    </g>
  </g>
  <g fill="#fef9ef" fill-opacity="1" transform="matrix(1, 0, 0, 1, 15.81486820898752, 164.82695252935514)">
    <g transform="translate(248.172923, 14.343496)">
      <g>
        <path d="M 5.3125 -8.929688 C 5.195312 -9.046875 4.925781 -9.03125 4.859375 -9.046875 L 4.832031 -9.046875 C 4.238281 -9.046875 3.769531 -9.019531 3.410156 -8.992188 C 2.605469 -8.941406 2.007812 -9.058594 1.398438 -8.980469 C 1.035156 -8.929688 0.984375 -8.902344 0.972656 -8.761719 C 0.960938 -8.59375 1.023438 -8.5 1.230469 -8.371094 C 1.515625 -8.203125 2.175781 -8.308594 2.644531 -8.320312 L 2.683594 -8.320312 C 2.667969 -8.308594 2.65625 -8.269531 2.644531 -8.203125 C 2.539062 -7.777344 2.488281 -7.347656 2.382812 -7 L 2.371094 -6.984375 C 1.96875 -4.9375 1.566406 -2.902344 1.21875 -0.855469 C 1.207031 -0.789062 1.21875 -0.75 1.21875 -0.726562 L 1.179688 -0.726562 C 0.675781 -0.710938 0.15625 -0.675781 -0.324219 -0.648438 C -0.675781 -0.621094 -0.765625 -0.519531 -0.675781 -0.257812 C -0.570312 0.0390625 -0.3125 0.140625 0.257812 0.117188 C 0.75 0.0898438 1.140625 0.0507812 1.621094 0.0507812 C 2.578125 0.0390625 3.175781 0.0117188 3.757812 -0.0117188 C 4.070312 -0.0273438 4.238281 -0.21875 4.226562 -0.519531 C 4.210938 -0.710938 4.042969 -0.804688 3.707031 -0.804688 C 3.332031 -0.804688 2.667969 -0.738281 2.320312 -0.710938 C 2.191406 -0.699219 2.230469 -0.660156 2.269531 -0.894531 C 2.4375 -2.046875 2.667969 -3.019531 2.890625 -4.09375 C 3.164062 -5.496094 3.421875 -6.894531 3.65625 -8.175781 C 3.679688 -8.332031 3.65625 -8.320312 3.757812 -8.332031 C 4.238281 -8.410156 4.652344 -8.332031 5.132812 -8.359375 C 5.546875 -8.386719 5.636719 -8.632812 5.3125 -8.929688 Z M 5.3125 -8.929688 " style="fill: rgb(186, 218, 85);"/>
      </g>
    </g>
  </g>
  <g fill="#fef9ef" fill-opacity="1" transform="matrix(1, 0, 0, 1, 15.81486820898752, 164.82695252935514)">
    <g transform="translate(253.741319, 14.343496)">
      <g>
        <path d="M 7.257812 -8.851562 L 7.269531 -8.839844 C 7.21875 -8.96875 7.011719 -9.097656 6.84375 -9.070312 L 6.816406 -9.070312 C 6.621094 -9.019531 6.582031 -8.980469 6.582031 -8.773438 C 6.582031 -7.207031 6.390625 -5.546875 6.027344 -4.070312 C 5.742188 -2.851562 5.480469 -1.710938 4.871094 -0.710938 C 4.664062 -0.363281 4.625 -0.3125 4.574219 -0.324219 C 4.484375 -0.335938 4.394531 -0.480469 4.265625 -0.804688 L 4.25 -0.816406 L 4.226562 -0.867188 C 3.980469 -1.4375 3.941406 -2.125 3.863281 -2.800781 C 3.707031 -4.121094 3.578125 -5.585938 3.394531 -6.945312 C 3.332031 -7.398438 3.277344 -7.855469 3.199219 -8.347656 C 3.175781 -8.566406 2.914062 -8.722656 2.59375 -8.722656 C 2.28125 -8.722656 2.136719 -8.59375 2.097656 -8.332031 C 2.035156 -7.90625 1.945312 -7.53125 1.867188 -7.21875 C 1.605469 -6.3125 1.347656 -5.261719 1.074219 -4.121094 C 0.726562 -2.734375 0.425781 -1.347656 0.0898438 -0.0117188 C 0.0390625 0.21875 0.117188 0.335938 0.402344 0.441406 C 0.648438 0.53125 0.945312 0.425781 1.011719 0.234375 C 1.089844 0.0390625 1.167969 -0.140625 1.207031 -0.285156 C 1.476562 -1.375 1.683594 -2.4375 1.96875 -3.445312 C 2.164062 -4.09375 2.332031 -4.796875 2.5 -5.46875 C 2.5 -5.390625 2.515625 -5.328125 2.515625 -5.261719 C 2.578125 -4.070312 2.773438 -2.890625 2.992188 -1.710938 C 3.148438 -0.90625 3.355469 -0.464844 3.796875 -0.0507812 C 4.316406 0.464844 5.144531 0.425781 5.597656 -0.128906 C 5.898438 -0.519531 6.195312 -0.867188 6.324219 -1.257812 C 7.0625 -3.332031 7.359375 -5.574219 7.464844 -7.777344 C 7.492188 -8.292969 7.464844 -8.476562 7.257812 -8.851562 Z M 7.257812 -8.851562 " style="fill: rgb(186, 218, 85);"/>
      </g>
    </g>
  </g>
  <g fill="#fef9ef" fill-opacity="1" transform="matrix(1, 0, 0, 1, 15.81486820898752, 164.82695252935514)">
    <g transform="translate(262.055059, 14.343496)">
      <g>
        <path d="M 2.890625 0.257812 C 4.054688 0.246094 4.964844 -0.375 5.480469 -1.089844 C 5.792969 -1.542969 6.027344 -1.984375 6.050781 -2.421875 C 6.105469 -3.253906 5.625 -4.054688 4.625 -4.871094 C 4.03125 -5.339844 3.394531 -5.714844 2.644531 -6.050781 C 2.074219 -6.324219 1.917969 -6.765625 2.191406 -7.140625 C 2.554688 -7.632812 3.109375 -8.023438 4.070312 -8.460938 L 4.042969 -8.449219 C 4.132812 -8.476562 4.664062 -8.65625 5.117188 -8.617188 L 5.105469 -8.617188 C 5.222656 -8.605469 5.234375 -8.59375 5.144531 -8.410156 C 5.042969 -8.164062 4.925781 -7.996094 4.703125 -7.710938 C 4.484375 -7.425781 4.484375 -7.359375 4.664062 -7.230469 C 4.832031 -7.089844 5.378906 -7.179688 5.636719 -7.398438 C 5.84375 -7.582031 5.972656 -7.800781 6.128906 -8.203125 C 6.246094 -8.515625 6.207031 -8.65625 5.933594 -8.890625 C 5.480469 -9.292969 4.796875 -9.394531 3.964844 -9.1875 C 3.175781 -8.980469 2.4375 -8.59375 1.828125 -8.046875 C 0.660156 -6.984375 0.765625 -5.921875 2.125 -5.261719 C 2.839844 -4.925781 3.421875 -4.550781 3.964844 -4.109375 C 4.71875 -3.523438 5.027344 -2.929688 4.898438 -2.28125 C 4.625 -1.035156 3.34375 -0.335938 1.777344 -0.582031 C 1.089844 -0.6875 0.621094 -1.152344 0.503906 -1.867188 C 0.453125 -2.152344 0.492188 -2.449219 0.492188 -2.746094 L 0.492188 -2.734375 C 0.519531 -2.839844 0.425781 -2.890625 0.257812 -2.953125 L 0.21875 -2.953125 C 0.105469 -2.96875 -0.0507812 -2.929688 -0.105469 -2.863281 C -0.363281 -2.515625 -0.453125 -2.269531 -0.453125 -1.945312 C -0.464844 -1.089844 0.117188 -0.324219 1.035156 0.0117188 C 1.554688 0.195312 2.175781 0.273438 2.890625 0.257812 Z M 2.890625 0.257812 " style="fill: rgb(186, 218, 85);"/>
      </g>
    </g>
  </g>
  <g fill="#fef9ef" fill-opacity="1" transform="matrix(1, 0, 0, 1, 15.81486820898752, 164.82695252935514)">
    <g transform="translate(268.957279, 14.343496)">
      <g>
        <path d="M 5.195312 0.246094 C 5.546875 0.128906 5.613281 -0.0507812 5.402344 -0.335938 C 5.105469 -0.726562 4.9375 -1.582031 4.886719 -3.019531 C 4.832031 -4.300781 4.976562 -6.390625 5.171875 -7.75 C 5.222656 -8.152344 5.3125 -8.488281 5.261719 -8.878906 C 5.234375 -9.058594 4.886719 -9.253906 4.585938 -9.253906 L 4.601562 -9.253906 C 4.148438 -9.277344 3.941406 -9.164062 3.667969 -8.707031 C 2.785156 -7.207031 1.878906 -5.339844 1.191406 -3.785156 C 1.179688 -3.757812 1.179688 -3.730469 1.167969 -3.707031 L 1.152344 -3.707031 C 0.84375 -3.730469 0.53125 -3.707031 0.246094 -3.65625 L 0.21875 -3.65625 C 0.167969 -3.628906 -0.0664062 -3.601562 -0.117188 -3.472656 C -0.167969 -3.34375 -0.117188 -3.292969 0.105469 -3.164062 L 0.117188 -3.164062 C 0.285156 -3.070312 0.570312 -3.019531 0.804688 -3.046875 L 0.816406 -3.046875 C 0.789062 -3.019531 0.765625 -2.980469 0.75 -2.941406 C 0.464844 -2.371094 0.207031 -1.839844 -0.0273438 -1.320312 C -0.195312 -0.945312 -0.335938 -0.582031 -0.503906 -0.285156 C -0.648438 -0.0390625 -0.582031 0.0898438 -0.257812 0.195312 C -0.0117188 0.273438 0.375 0.167969 0.464844 -0.0117188 C 0.960938 -1.050781 1.398438 -1.96875 1.828125 -2.914062 C 1.890625 -3.070312 1.878906 -3.070312 1.96875 -3.070312 C 2.578125 -3.070312 3.164062 -3.148438 3.757812 -3.136719 C 3.875 -3.136719 3.875 -3.125 3.886719 -2.746094 C 3.953125 -1.359375 4.132812 -0.53125 4.511719 0 C 4.640625 0.179688 4.988281 0.3125 5.195312 0.246094 Z M 2.214844 -3.757812 C 2.214844 -3.769531 2.230469 -3.796875 2.242188 -3.835938 C 2.785156 -4.9375 3.238281 -5.898438 3.617188 -6.714844 C 3.785156 -7.074219 3.980469 -7.414062 4.132812 -7.632812 C 3.902344 -6.46875 3.886719 -5.171875 3.835938 -4.238281 C 3.835938 -4.238281 3.796875 -3.835938 3.808594 -3.835938 C 3.292969 -3.835938 2.707031 -3.769531 2.214844 -3.757812 Z M 2.214844 -3.757812 " style="fill: rgb(186, 218, 85);"/>
      </g>
    </g>
  </g>
  <g clip-path="url(#478adc748f)" transform="matrix(1, 0, 0, 1, 15.81486820898752, 164.82695252935514)">
    <g clip-path="url(#652206efc9)">
      <g clip-path="url(#4a9e19aa8f)">
        <g clip-path="url(#8b57847c75)">
          <path fill="#a2783a" d="M 279.652344 6.96875 C 279.660156 6.738281 279.3125 6.777344 279.304688 7.007812 C 279.28125 7.941406 279.109375 8.707031 278.386719 9.339844 C 277.914062 9.753906 277.347656 10.058594 276.796875 10.351562 C 276.0625 10.738281 275.28125 10.902344 274.574219 11.28125 C 274.546875 11.253906 274.511719 11.226562 274.476562 11.207031 C 274.421875 11.125 274.347656 11.105469 274.257812 11.144531 C 274.183594 11.167969 274.140625 11.214844 274.125 11.292969 C 274.121094 11.304688 274.121094 11.316406 274.121094 11.332031 C 274.023438 11.300781 273.925781 11.269531 273.824219 11.234375 C 273.144531 11 272.550781 10.609375 272.097656 10.03125 C 271.648438 9.457031 271.417969 8.789062 271.316406 8.0625 C 271.207031 7.277344 271.105469 6.460938 271.28125 5.675781 C 271.335938 5.449219 270.988281 5.390625 270.9375 5.617188 C 270.746094 6.464844 270.851562 7.359375 270.980469 8.207031 C 271.089844 8.894531 271.308594 9.539062 271.707031 10.101562 C 272.082031 10.632812 272.558594 11.046875 273.132812 11.339844 C 273.410156 11.472656 273.695312 11.582031 273.992188 11.667969 C 273.949219 11.699219 273.910156 11.734375 273.871094 11.769531 C 273.703125 11.921875 273.902344 12.214844 274.070312 12.0625 C 274.144531 11.996094 274.21875 11.9375 274.289062 11.878906 C 274.390625 11.953125 274.496094 11.972656 274.613281 11.933594 C 274.644531 11.921875 274.671875 11.902344 274.691406 11.875 C 275.019531 11.96875 275.332031 12.097656 275.632812 12.257812 C 275.832031 12.367188 275.980469 12.039062 275.785156 11.929688 C 275.480469 11.769531 275.160156 11.640625 274.828125 11.542969 C 275.195312 11.355469 275.578125 11.226562 275.996094 11.089844 C 276.632812 10.886719 277.238281 10.535156 277.808594 10.1875 C 278.371094 9.84375 278.925781 9.421875 279.273438 8.839844 C 279.609375 8.273438 279.636719 7.613281 279.652344 6.96875 Z M 279.652344 6.96875 " fill-opacity="1" fill-rule="nonzero"/>
        </g>
      </g>
    </g>
  </g>
  <g clip-path="url(#50af2bdced)" transform="matrix(1, 0, 0, 1, 15.81486820898752, 164.82695252935514)">
    <g clip-path="url(#756f88824a)">
      <g clip-path="url(#71131d47d0)">
        <g clip-path="url(#70237f2712)">
          <path fill="#e9bd78" d="M 281.035156 8.3125 C 280.363281 8.308594 279.132812 7.878906 277.929688 7.558594 C 277.535156 7.453125 277.140625 7.359375 276.773438 7.296875 C 275.277344 7.042969 270.605469 6.234375 270.058594 6.234375 C 269.234375 6.238281 268.023438 6.375 268.144531 5.664062 C 268.261719 4.964844 269.800781 4.964844 270.769531 4.5625 C 270.785156 4.554688 270.804688 4.546875 270.820312 4.539062 C 270.902344 4.503906 270.972656 4.417969 271.042969 4.296875 C 271.324219 3.808594 271.570312 2.742188 272.148438 2.144531 C 272.871094 1.402344 273.710938 1.722656 274.714844 1.792969 C 275.390625 1.839844 276.429688 1.582031 277.472656 1.566406 C 277.980469 1.558594 278.488281 1.605469 278.957031 1.78125 C 280.167969 2.226562 279.886719 4.875 279.976562 5.828125 C 279.992188 5.996094 280.019531 6.109375 280.066406 6.152344 C 280.085938 6.167969 280.105469 6.183594 280.125 6.195312 C 280.511719 6.472656 281.628906 6.804688 282.25 7.445312 C 282.90625 8.117188 281.929688 8.316406 281.035156 8.3125 Z M 281.035156 8.3125 " fill-opacity="1" fill-rule="nonzero"/>
        </g>
      </g>
    </g>
  </g>
  <g clip-path="url(#20db6b9b5e)" transform="matrix(1, 0, 0, 1, 15.81486820898752, 164.82695252935514)">
    <g clip-path="url(#e491e49877)">
      <g clip-path="url(#f457816258)">
        <g clip-path="url(#747f4f3d9f)">
          <path fill="#d5a765" d="M 281.035156 8.3125 C 280.363281 8.308594 279.132812 7.878906 277.929688 7.558594 C 278.039062 7.214844 278.085938 6.652344 278.078125 5.992188 C 278.078125 5.871094 278.074219 5.746094 278.070312 5.617188 C 278.019531 4.269531 277.785156 2.625 277.472656 1.566406 C 277.980469 1.558594 278.488281 1.605469 278.957031 1.78125 C 280.167969 2.226562 279.886719 4.875 279.976562 5.828125 C 279.992188 5.996094 280.019531 6.109375 280.066406 6.152344 C 280.085938 6.167969 280.105469 6.183594 280.125 6.195312 C 280.511719 6.472656 281.628906 6.804688 282.25 7.445312 C 282.90625 8.117188 281.929688 8.316406 281.035156 8.3125 Z M 281.035156 8.3125 " fill-opacity="1" fill-rule="nonzero"/>
        </g>
      </g>
    </g>
  </g>
  <g clip-path="url(#b6d5a3ebde)" transform="matrix(1, 0, 0, 1, 15.81486820898752, 164.82695252935514)">
    <g clip-path="url(#e722cd72b9)">
      <g clip-path="url(#6824ebf3cd)">
        <g clip-path="url(#78e51f8eac)">
          <path fill="#a2783a" d="M 280.125 6.195312 C 279.15625 6.164062 277.304688 5.875 276.738281 5.835938 C 276 5.78125 272.847656 5.175781 272.320312 5.078125 C 271.722656 4.96875 271.125 4.78125 270.769531 4.5625 C 270.785156 4.554688 270.804688 4.546875 270.820312 4.539062 C 270.902344 4.503906 270.972656 4.417969 271.042969 4.296875 C 271.375 4.519531 273.886719 4.972656 274.777344 5.125 C 275.558594 5.257812 278.765625 5.753906 279.976562 5.828125 C 279.992188 5.996094 280.019531 6.109375 280.066406 6.152344 C 280.085938 6.167969 280.105469 6.183594 280.125 6.195312 Z M 280.125 6.195312 " fill-opacity="1" fill-rule="nonzero"/>
        </g>
      </g>
    </g>
  </g>
  <g clip-path="url(#7b03d2a02f)" transform="matrix(1, 0, 0, 1, 15.81486820898752, 164.82695252935514)">
    <g clip-path="url(#24259d1f47)">
      <g clip-path="url(#2c29abf56e)">
        <g clip-path="url(#20a5f19a83)">
          <path fill="#8d642d" d="M 280.125 6.195312 C 279.589844 6.179688 278.785156 6.082031 278.078125 5.992188 C 278.074219 5.871094 278.074219 5.746094 278.070312 5.617188 C 278.828125 5.71875 279.535156 5.800781 279.976562 5.828125 C 279.992188 5.996094 280.019531 6.109375 280.066406 6.152344 C 280.085938 6.167969 280.105469 6.183594 280.125 6.195312 Z M 280.125 6.195312 " fill-opacity="1" fill-rule="nonzero"/>
        </g>
      </g>
    </g>
  </g>
  <g clip-path="url(#58fe5a5060)" transform="matrix(1, 0, 0, 1, 15.81486820898752, 164.82695252935514)">
    <g clip-path="url(#ad41426902)">
      <g clip-path="url(#cecf922902)">
        <g clip-path="url(#3ad34cafa5)">
          <path d="M 274.269531 3.785156 C 274.253906 3.878906 274.210938 3.953125 274.136719 4.007812 C 274.058594 4.0625 273.976562 4.078125 273.890625 4.066406 C 273.800781 4.050781 273.726562 4.003906 273.675781 3.929688 C 273.625 3.851562 273.605469 3.769531 273.621094 3.675781 C 273.636719 3.582031 273.683594 3.511719 273.757812 3.457031 C 273.832031 3.402344 273.914062 3.382812 274.003906 3.398438 C 274.09375 3.414062 274.164062 3.457031 274.214844 3.535156 C 274.269531 3.609375 274.285156 3.695312 274.269531 3.785156 Z M 274.269531 3.785156 " fill-opacity="1" fill-rule="nonzero" style="fill: rgb(186, 218, 85);"/>
        </g>
      </g>
    </g>
  </g>
  <g clip-path="url(#5031569267)" transform="matrix(1, 0, 0, 1, 15.81486820898752, 164.82695252935514)">
    <g clip-path="url(#c68ae795da)">
      <g clip-path="url(#944706c591)">
        <g clip-path="url(#2497ce658a)">
          <path d="M 276.773438 4.214844 C 276.757812 4.308594 276.710938 4.378906 276.636719 4.433594 C 276.5625 4.488281 276.480469 4.507812 276.390625 4.492188 C 276.300781 4.476562 276.230469 4.433594 276.179688 4.355469 C 276.128906 4.28125 276.109375 4.195312 276.125 4.105469 C 276.140625 4.011719 276.1875 3.9375 276.261719 3.882812 C 276.335938 3.828125 276.417969 3.808594 276.507812 3.824219 C 276.597656 3.839844 276.667969 3.886719 276.71875 3.960938 C 276.769531 4.039062 276.789062 4.121094 276.773438 4.214844 Z M 276.773438 4.214844 " fill-opacity="1" fill-rule="nonzero" style="fill: rgb(186, 218, 85);"/>
        </g>
      </g>
    </g>
  </g>
  <g clip-path="url(#b398e99408)" transform="matrix(1, 0, 0, 1, 15.81486820898752, 164.82695252935514)">
    <g clip-path="url(#07672f6c35)">
      <g clip-path="url(#3a693b0106)">
        <g clip-path="url(#d79c7efaa6)">
          <path d="M 273.175781 2.171875 C 272.621094 2.285156 272.46875 2.476562 272.480469 2.59375 C 272.5 2.792969 272.671875 2.625 272.933594 2.582031 C 273.199219 2.539062 273.792969 2.703125 273.839844 2.496094 C 273.886719 2.292969 273.449219 2.113281 273.175781 2.171875 Z M 273.175781 2.171875 " fill-opacity="1" fill-rule="nonzero" style="fill: rgb(186, 218, 85);"/>
        </g>
      </g>
    </g>
  </g>
  <g clip-path="url(#941a9a9639)" transform="matrix(1, 0, 0, 1, 15.81486820898752, 164.82695252935514)">
    <g clip-path="url(#2e83572e57)">
      <g clip-path="url(#39d2bd9528)">
        <g clip-path="url(#aa9dcb7cbb)">
          <path d="M 272.144531 2.785156 C 272.085938 2.78125 272.046875 2.804688 272.019531 2.855469 C 271.988281 2.902344 271.988281 2.953125 272.015625 3 C 272.066406 3.078125 272.191406 3.003906 272.207031 2.949219 C 272.230469 2.878906 272.21875 2.789062 272.144531 2.785156 Z M 272.144531 2.785156 " fill-opacity="1" fill-rule="nonzero" style="fill: rgb(186, 218, 85);"/>
        </g>
      </g>
    </g>
  </g>
</svg>